<svg id="_診療予約_スマホ" data-name="診療予約　スマホ" xmlns="http://www.w3.org/2000/svg" viewBox="0 0 584.18 23.18">
  <defs>
    <style>
      .cls-1 {
        fill: #5185c5;
        stroke-width: 0px;
      }
    </style>
  </defs>
  <path class="cls-1" d="M11.98,4.88v3.85l.49-.56c2.65,1.32,6.49,3.43,8.36,4.95l-2.16,2.67c-1.42-1.25-4.21-3.04-6.69-4.46v11.64h-3.14V4.88H0V1.94h21.83v2.94h-9.85Z"/>
  <path class="cls-1" d="M26.42,4.19h10.02v2.3h-10.02v-2.3ZM35.39,21.74h-5.34v.96h-2.52v-8.36h7.87v7.4ZM27.6,7.6h7.87v2.23h-7.87v-2.23ZM27.6,10.95h7.87v2.18h-7.87v-2.18ZM35.54,3.11h-7.79V.91h7.79v2.21ZM30.05,16.64v2.82h2.79v-2.82h-2.79ZM45.26,20.07c1.1,0,1.27-.56,1.45-3.63.64.47,1.91.96,2.7,1.13-.37,4.07-1.15,5.24-3.92,5.24h-4.04c-3.04,0-3.99-.81-3.99-3.95v-9.61h7.74v-5.12h-7.79V1.37h10.71v11.86h-2.92v-1.2h-4.78v6.84c0,1.03.2,1.2,1.35,1.2h3.5Z"/>
  <path class="cls-1" d="M56.39,18.94l-2.65-1.81c1.64-1.57,3.6-4.26,4.61-6.32l2.77,1.3c-1.13,2.18-3.38,5.39-4.73,6.84ZM66.66,3.7v1.96h5.71c.69,0,1.76-.07,2.43-.17v3.21c-.78-.05-1.74-.07-2.4-.07h-5.73v11.39c0,1.42-.81,2.3-2.55,2.3-1.32,0-2.74-.07-3.99-.22l-.29-3.04c1.05.2,2.13.29,2.72.29.64,0,.88-.25.91-.88.02-.91.02-8.67.02-9.83v-.02h-6.22c-.74,0-1.69.02-2.38.1v-3.26c.74.1,1.59.2,2.38.2h6.22v-1.96c0-.64-.12-1.72-.22-2.13h3.63c-.05.34-.22,1.52-.22,2.13ZM75.85,17.18l-2.89,1.57c-1.05-2.11-2.79-5.07-3.97-6.57l2.67-1.45c1.25,1.57,3.21,4.66,4.19,6.44ZM73.4,4.29l-1.99.83c-.49-.98-1.18-2.3-1.84-3.23l1.94-.81c.61.91,1.42,2.3,1.89,3.21ZM76.61,3.55l-1.94.86c-.51-1.03-1.23-2.3-1.91-3.23l1.94-.78c.66.91,1.47,2.3,1.91,3.16Z"/>
  <path class="cls-1" d="M90.95,3.99h4.97c.76,0,1.59-.1,2.13-.27l2.5,1.54c-.27.47-.59,1.13-.81,1.74-.66,1.98-1.89,4.61-3.63,7.06,1.05.76,2.01,1.47,2.72,2.06l-2.33,2.77c-.66-.61-1.57-1.37-2.57-2.18-2.16,2.28-4.95,4.36-8.77,5.81l-2.84-2.48c4.24-1.3,6.96-3.28,8.99-5.32-1.59-1.18-3.21-2.28-4.46-3.06l2.18-2.23c1.3.74,2.84,1.74,4.39,2.77,1.27-1.76,2.33-3.9,2.7-5.42h-7.01c-1.72,2.28-3.99,4.63-6.47,6.35l-2.65-2.03c4.29-2.67,6.57-6.03,7.79-8.16.39-.59.91-1.72,1.13-2.55l3.55,1.1c-.61.86-1.23,1.96-1.52,2.5Z"/>
  <path class="cls-1" d="M115.14,15.39c4.19-2.48,7.38-6.22,8.92-9.53l1.91,3.46c-1.86,3.31-5.12,6.69-9.07,9.07-2.48,1.49-5.64,2.87-9.09,3.46l-2.06-3.23c3.82-.54,7.01-1.79,9.39-3.21ZM115.14,7.47l-2.5,2.55c-1.27-1.37-4.34-4.04-6.13-5.29l2.3-2.45c1.72,1.15,4.9,3.7,6.32,5.2Z"/>
  <path class="cls-1" d="M139.92,3.7c2.33-.12,4.78-.34,6.93-.71l-.02,2.84c-2.33.34-5.34.54-7.99.61-.42.91-.91,1.79-1.4,2.5.64-.29,1.96-.49,2.77-.49,1.49,0,2.72.64,3.26,1.89,1.27-.59,2.3-1,3.31-1.45.96-.42,1.81-.81,2.72-1.27l1.23,2.84c-.78.22-2.08.71-2.92,1.03-1.1.44-2.5.98-4,1.67.02,1.37.07,3.19.1,4.31h-2.94c.07-.74.1-1.91.12-2.99-1.84,1.05-2.82,2.01-2.82,3.23,0,1.35,1.15,1.72,3.55,1.72,2.08,0,4.8-.27,6.96-.69l-.1,3.16c-1.62.22-4.63.42-6.94.42-3.85,0-6.69-.93-6.69-4.09s2.94-5.1,5.73-6.54c-.37-.61-1.03-.83-1.72-.83-1.37,0-2.89.78-3.82,1.69-.74.74-1.45,1.62-2.28,2.7l-2.62-1.96c2.57-2.38,4.31-4.56,5.42-6.76h-.32c-1,0-2.79-.05-4.14-.15v-2.87c1.25.2,3.06.29,4.31.29h1.18c.27-.98.44-1.94.49-2.82l3.23.27c-.12.61-.29,1.42-.61,2.45Z"/>
  <path class="cls-1" d="M166.58,3.99h4.97c.76,0,1.59-.1,2.13-.27l2.5,1.54c-.27.47-.59,1.13-.81,1.74-.66,1.98-1.89,4.61-3.63,7.06,1.05.76,2.01,1.47,2.72,2.06l-2.33,2.77c-.66-.61-1.57-1.37-2.57-2.18-2.16,2.28-4.95,4.36-8.77,5.81l-2.84-2.48c4.24-1.3,6.96-3.28,8.99-5.32-1.59-1.18-3.21-2.28-4.46-3.06l2.18-2.23c1.3.74,2.84,1.74,4.39,2.77,1.27-1.76,2.33-3.9,2.7-5.42h-7.01c-1.72,2.28-3.99,4.63-6.47,6.35l-2.65-2.03c4.29-2.67,6.57-6.03,7.79-8.16.39-.59.91-1.72,1.13-2.55l3.55,1.1c-.61.86-1.23,1.96-1.52,2.5Z"/>
  <path class="cls-1" d="M186.46,13.23l-2.99,1.13c-.42-1.32-1.64-4.58-2.23-5.66l2.94-1.05c.61,1.25,1.79,4.21,2.28,5.59ZM198.32,9.92c-.64,2.48-1.67,5.02-3.33,7.18-2.28,2.94-5.34,5-8.21,6.08l-2.57-2.62c2.7-.71,6.1-2.57,8.14-5.12,1.67-2.08,2.84-5.34,3.14-8.41l3.43,1.1c-.29.78-.44,1.3-.59,1.79ZM191.88,11.71l-2.94,1.03c-.29-1.2-1.37-4.17-1.98-5.44l2.92-.96c.47,1.05,1.67,4.24,2.01,5.37Z"/>
  <path class="cls-1" d="M223.22,0c1.59,0,2.92,1.32,2.92,2.94s-1.32,2.92-2.92,2.92c-.1,0-.22,0-.32-.02-.07.27-.12.51-.2.73-.56,2.4-1.62,6.2-3.68,8.92-2.21,2.94-5.49,5.37-9.85,6.79l-2.67-2.94c4.85-1.13,7.62-3.26,9.61-5.76,1.62-2.03,2.55-4.8,2.87-6.91h-11.4c-1.13,0-2.3.05-2.92.1v-3.46c.71.1,2.11.2,2.92.2h11.35c.34,0,.88-.02,1.4-.1-.02-.15-.05-.29-.05-.47,0-1.62,1.32-2.94,2.94-2.94ZM223.22,4.34c.76,0,1.4-.64,1.4-1.4s-.64-1.42-1.4-1.42-1.42.64-1.42,1.42.64,1.4,1.42,1.4Z"/>
  <path class="cls-1" d="M235.21,4.73c-.1,2.65-.29,8.14-.29,11.17,0,2.48,1.47,3.28,3.38,3.28,4.04,0,6.62-2.33,8.38-5l2.23,2.7c-1.57,2.35-5.05,5.64-10.63,5.64-4.02,0-6.62-1.76-6.62-5.95,0-3.28.25-9.73.25-11.84,0-1.15-.1-2.33-.32-3.31l3.95.05c-.15,1.03-.27,2.28-.32,3.26Z"/>
  <path class="cls-1" d="M254.23,3.92c2.03-.17,6.08-.54,10.56-.93,2.52-.2,5.22-.37,6.93-.42l.02,3.14c-1.32.02-3.43.02-4.73.32-2.96.78-5.17,3.97-5.17,6.89,0,4.02,3.77,5.49,7.92,5.71l-1.15,3.36c-5.12-.34-9.97-3.11-9.97-8.41,0-3.53,1.99-6.32,3.63-7.57-2.3.25-7.3.78-10.15,1.4l-.32-3.36c.98-.02,1.94-.07,2.43-.12Z"/>
  <path class="cls-1" d="M296.58,5.59c-1.15,1.91-3.48,5-5.88,6.71l-2.55-2.03c1.96-1.2,3.87-3.36,4.51-4.56h-12.77c-1.03,0-1.84.07-2.99.17v-3.41c.93.15,1.96.25,2.99.25h13.21c.69,0,2.03-.07,2.5-.22l1.94,1.81c-.27.32-.74.91-.96,1.27ZM280.75,22.28l-2.87-2.33c.78-.27,1.67-.69,2.57-1.35,3.11-2.16,3.7-4.75,3.7-8.77,0-.76-.05-1.42-.17-2.21h3.55c0,6.08-.12,11.08-6.79,14.65Z"/>
  <path class="cls-1" d="M320.69,0c1.59,0,2.92,1.32,2.92,2.94s-1.32,2.92-2.92,2.92c-.1,0-.22,0-.32-.02-.07.27-.12.51-.2.73-.56,2.4-1.62,6.2-3.68,8.92-2.21,2.94-5.49,5.37-9.85,6.79l-2.67-2.94c4.85-1.13,7.62-3.26,9.61-5.76,1.62-2.03,2.55-4.8,2.87-6.91h-11.39c-1.13,0-2.3.05-2.92.1v-3.46c.71.1,2.11.2,2.92.2h11.35c.34,0,.88-.02,1.4-.1-.03-.15-.05-.29-.05-.47,0-1.62,1.32-2.94,2.94-2.94ZM320.69,4.34c.76,0,1.4-.64,1.4-1.4s-.64-1.42-1.4-1.42-1.42.64-1.42,1.42.64,1.4,1.42,1.4Z"/>
  <path class="cls-1" d="M332.19,3.97v8.28c0,.61.02,1.57.07,2.13h-3.55c.02-.47.12-1.42.12-2.16V3.97c0-.47-.02-1.32-.1-1.89h3.53c-.05.56-.07,1.1-.07,1.89ZM343.54,4.34v4.85c0,5.27-1.03,7.55-2.84,9.56-1.62,1.76-4.17,2.97-5.96,3.53l-2.55-2.7c2.43-.56,4.41-1.5,5.88-3.09,1.69-1.84,2.01-3.68,2.01-7.5v-4.66c0-.98-.05-1.76-.15-2.45h3.7c-.05.69-.1,1.47-.1,2.45Z"/>
  <path class="cls-1" d="M351.92,3.97c2.06-.17,6.1-.54,10.59-.91,2.52-.22,5.2-.37,6.93-.44l.03,3.14c-1.32.02-3.43.02-4.73.34-2.96.78-5.19,3.95-5.19,6.86,0,4.04,3.77,5.49,7.94,5.71l-1.15,3.36c-5.15-.34-10-3.09-10-8.41,0-3.53,1.99-6.32,3.65-7.57-2.3.25-7.3.78-10.15,1.4l-.32-3.36c.98-.02,1.94-.07,2.4-.12ZM367.92,11.49l-1.86.83c-.61-1.35-1.13-2.3-1.91-3.41l1.81-.76c.61.88,1.5,2.38,1.96,3.33ZM370.76,10.29l-1.84.88c-.66-1.32-1.22-2.23-2.01-3.31l1.79-.83c.61.86,1.54,2.3,2.06,3.26Z"/>
  <path class="cls-1" d="M379.12,7.79c-.46-1.54-1.67-3.92-2.87-5.64l2.67-1.05c1.27,1.69,2.47,3.95,3.01,5.51l-2.82,1.18ZM387.48,8.6h7.79v14.43h-3.11v-1h-15.88v-2.89h15.88v-2.55h-14.48v-2.82h14.48v-2.25h-15.32v-2.92h7.42V.12h3.21v8.48ZM395.69,1.84c-1.08,2.18-2.33,4.51-3.38,6.05l-2.55-.88c.96-1.69,2.08-4.22,2.67-6.13l3.26.96Z"/>
  <path class="cls-1" d="M410.03,2.18c-.64,2.08-1.45,4.75-2.13,6.67,1.47,1.86,1.79,3.5,1.79,4.93,0,1.57-.32,2.6-1.08,3.14-.39.27-.86.42-1.42.51-.42.05-1,.07-1.57.05-.02-.69-.25-1.79-.64-2.48.44.02.76.02,1.08.02.27-.02.49-.07.69-.22.27-.2.37-.69.37-1.37,0-1.13-.32-2.65-1.69-4.29.49-1.54,1-3.68,1.4-5.34h-1.91v19.24h-2.52V1.2h5.32l.42-.12,1.91,1.1ZM421.4,20.24c.39,0,.47-.37.51-2.87.54.44,1.72.91,2.43,1.08-.25,3.43-.88,4.36-2.62,4.36h-1.64c-2.13,0-2.6-.83-2.6-3.33v-5.32h-1.81c-.29,4.44-1.32,7.25-6.1,8.85-.25-.69-.96-1.76-1.54-2.28,3.92-1.18,4.66-3.16,4.9-6.57h-2.7v-2.6h13.65v2.6h-3.68v5.29c0,.71.05.78.39.78h.81ZM415.32,2.82V.25h2.82v2.57h5.86v4.8h-1.89v2.18h-10.44v-2.16h-1.81V2.82h5.46ZM421.32,5.29h-8.87v2.01h8.87v-2.01Z"/>
  <path class="cls-1" d="M440.88,22.06l-1.84-2.92c.93-.1,1.62-.25,2.28-.39,3.14-.73,5.59-2.99,5.59-6.57,0-3.38-1.84-5.91-5.15-6.47-.34,2.08-.76,4.34-1.47,6.64-1.47,4.95-3.58,7.99-6.25,7.99s-4.97-2.99-4.97-7.13c0-5.66,4.9-10.49,11.25-10.49s9.9,4.21,9.9,9.56-3.16,8.82-9.34,9.78ZM434.14,16.57c1.03,0,1.99-1.54,2.99-4.85.56-1.81,1.03-3.9,1.3-5.93-4.04.83-6.22,4.41-6.22,7.11,0,2.48.98,3.68,1.94,3.68Z"/>
  <path class="cls-1" d="M471.84.25c1.57,2.6,4,5.17,6.4,6.37-.54.71-1.15,1.79-1.54,2.65-2.33-1.47-4.78-4.07-6.1-6.27-1.23,2.21-3.55,4.88-6.1,6.47-.29-.73-.96-1.84-1.45-2.45.27-.15.54-.32.78-.51h-8.87v-2.3h9.21v2.06c2.11-1.59,4.02-3.99,5-6h2.67ZM463.48,21.74h-5v.96h-2.45v-8.36h7.45v7.4ZM463.46,9.83h-7.35v-2.23h7.35v2.23ZM456.1,10.95h7.35v2.18h-7.35v-2.18ZM463.38,3.11h-7.2V.91h7.2v2.21ZM458.48,16.64v2.82h2.52v-2.82h-2.52ZM477.3,15.17c-2.5,3.82-6.64,6.37-11.37,7.92-.37-.76-1.1-1.79-1.81-2.5,4.41-1.13,8.45-3.36,10.56-6.54l2.62,1.13ZM473.06,7.67c-1.52,2.01-3.77,3.77-5.96,4.95-.44-.54-1.22-1.3-1.86-1.76,1.91-.96,4.14-2.6,5.29-4.19l2.52,1ZM475.29,11.25c-2.01,2.55-5.07,4.66-8.11,6.05-.42-.61-1.18-1.47-1.86-2.01,2.77-1.08,5.86-3.01,7.42-5.15l2.55,1.1Z"/>
  <path class="cls-1" d="M504.36,9.46c-.51.51-1.1.98-1.67,1.4.74.49,1.52.88,2.33,1.18-.59.47-1.32,1.42-1.69,2.03-.44-.2-.91-.44-1.32-.71v4.02h-4.29v3.14c0,1.2-.22,1.79-1.1,2.18-.86.37-1.99.37-3.43.37-.17-.74-.59-1.69-.91-2.33.91.02,1.94.02,2.25.02.27,0,.37-.1.37-.34v-3.04h-4.17v-4.02c-.47.29-.96.59-1.47.86-.27-.49-.83-1.18-1.35-1.62-.25,3.58-1.08,7.69-3.55,10.42-.39-.54-1.5-1.57-2.01-1.91,1.57-1.79,2.33-4.07,2.67-6.35-.88.51-1.74,1.03-2.57,1.52l-.83-2.62c.96-.42,2.28-1.08,3.68-1.76.02-.66.02-1.3.02-1.91v-.83l-2.16.98c-.12-1.27-.69-3.33-1.32-4.93l2.08-.86c.64,1.37,1.18,3.09,1.4,4.34V2.11h7.67V.17h3.09v1.94h8.58v2.45h-9.21l1.72.22c-.15.44-.29.88-.49,1.32h7.77v2.18h-1.67l1.59,1.18ZM493.21,18.4c-.88,1.62-2.35,3.28-3.7,4.31-.49-.49-1.54-1.32-2.18-1.69,1.32-.83,2.55-2.08,3.26-3.36l2.62.74ZM487.99,9.97c0,.66-.02,1.37-.05,2.11.78-.39,1.5-.81,2.13-1.27-.49-.39-1-.78-1.47-1.1l1.47-1.3c.46.29,1.03.69,1.54,1.05.37-.39.71-.78,1-1.18h-3.77v-2.18h5.05c.22-.51.42-1.03.56-1.54h-6.47v5.42ZM499.46,12.2h-6.3v.88h6.3v-.88ZM499.46,14.73h-6.3v.93h6.3v-.93ZM495.61,8.28c-.44.76-.96,1.5-1.54,2.18h4.68c-.56-.69-1.05-1.42-1.47-2.18h-1.67ZM501,17.74c1.2,1.1,2.75,2.67,3.46,3.75l-2.35,1.23c-.61-1.05-2.11-2.72-3.31-3.87l2.21-1.1ZM499.9,8.28c.37.49.81.96,1.27,1.4.54-.47,1.1-1,1.47-1.4h-2.75Z"/>
  <path class="cls-1" d="M519.11,3.7c2.33-.12,4.78-.34,6.94-.71l-.02,2.84c-2.33.34-5.34.54-7.99.61-.42.91-.91,1.79-1.4,2.5.64-.29,1.96-.49,2.77-.49,1.49,0,2.72.64,3.26,1.89,1.27-.59,2.3-1,3.31-1.45.96-.42,1.81-.81,2.72-1.27l1.23,2.84c-.78.22-2.08.71-2.92,1.03-1.1.44-2.5.98-4,1.67.02,1.37.07,3.19.1,4.31h-2.94c.07-.74.1-1.91.12-2.99-1.84,1.05-2.82,2.01-2.82,3.23,0,1.35,1.15,1.72,3.55,1.72,2.08,0,4.8-.27,6.96-.69l-.1,3.16c-1.62.22-4.63.42-6.93.42-3.85,0-6.69-.93-6.69-4.09s2.94-5.1,5.73-6.54c-.37-.61-1.03-.83-1.72-.83-1.37,0-2.89.78-3.82,1.69-.74.74-1.45,1.62-2.28,2.7l-2.62-1.96c2.57-2.38,4.31-4.56,5.42-6.76h-.32c-1,0-2.79-.05-4.14-.15v-2.87c1.25.2,3.06.29,4.31.29h1.18c.27-.98.44-1.94.49-2.82l3.24.27c-.12.61-.29,1.42-.61,2.45Z"/>
  <path class="cls-1" d="M557.62,10.29c-1.1,2.3-2.55,4.75-3.92,6.4l-2.5-1.45c.59-.81,1.3-1.91,1.91-3.01h-5.17v7.62c0,1.54-.34,2.28-1.52,2.7-1.13.42-2.72.44-4.83.44-.15-.83-.61-2.03-1.05-2.79,1.45.05,3.26.05,3.75.05.47-.02.61-.12.61-.49v-7.52h-9.68v-2.77h11.15c-1.81-.76-3.8-1.54-5.37-2.13l1.45-2.21c1.1.39,2.47.86,3.85,1.37,1.05-.66,2.16-1.47,3.11-2.3h-11.84V1.52h14.65l.66-.17,2.08,1.64c-1.57,1.57-3.6,3.26-5.66,4.66.81.32,1.54.59,2.11.86l-.59.96h3.87l.54-.2,2.38,1.03Z"/>
  <path class="cls-1" d="M565.12,14.9c-.25,2.3-.76,4.75-1.47,6.32-.51-.32-1.59-.83-2.23-1.05.71-1.45,1.1-3.63,1.3-5.69l2.4.42ZM584.18,4.29s0,.98-.03,1.35c-.32,10.73-.66,14.61-1.69,15.9-.69.93-1.32,1.2-2.35,1.35-.88.15-2.4.12-3.82.07-.05-.83-.44-2.11-.98-2.94,1.54.15,2.94.15,3.6.15.47,0,.74-.1,1.03-.42.74-.76,1.1-4.34,1.37-12.69h-6.76c-.66,1.2-1.35,2.28-2.08,3.16-.49-.44-1.57-1.18-2.3-1.62.86,1.54,1.64,3.36,1.91,4.58l-2.21,1.03c-.07-.39-.2-.83-.34-1.32l-1.4.1v10.07h-2.57v-9.88l-3.63.25-.25-2.55,1.81-.07c.37-.47.76-.98,1.13-1.52-.71-1.05-1.91-2.38-2.94-3.36l1.37-2.01c.2.17.39.34.59.51.69-1.35,1.37-2.99,1.79-4.26l2.57.91c-.88,1.69-1.89,3.58-2.77,4.95.32.34.61.71.86,1.03.88-1.37,1.67-2.79,2.25-4.02l2.47,1.03c-1.37,2.16-3.09,4.66-4.68,6.64l2.47-.1c-.27-.59-.56-1.18-.86-1.69l2.06-.91.17.29c1.81-1.94,3.26-5.07,4.04-8.16l2.99.64c-.32,1.2-.74,2.38-1.2,3.5h8.36ZM570.34,14.34c.66,1.45,1.3,3.36,1.59,4.61l-2.3.81c-.2-1.25-.83-3.23-1.45-4.73l2.16-.69ZM576.07,16.84c-.47-1.54-1.74-3.9-2.99-5.66l2.33-1.18c1.27,1.69,2.67,3.95,3.19,5.49l-2.52,1.35Z"/>
</svg>