<?xml version="1.0" encoding="UTF-8"?>
<svg id="_診療予約" data-name="診療予約" xmlns="http://www.w3.org/2000/svg" viewBox="0 0 287.04 21.12">
  <defs>
    <style>
      .cls-1 {
        fill: #5185c5;
        stroke-width: 0px;
      }
    </style>
  </defs>
  <path class="cls-1" d="M17.67,5.3c-1.03,1.72-3.12,4.49-5.28,6.03l-2.29-1.83c1.76-1.08,3.48-3.01,4.05-4.09H2.68c-.92,0-1.65.07-2.68.15v-3.06c.84.13,1.76.22,2.68.22h11.86c.62,0,1.83-.07,2.24-.2l1.74,1.63c-.24.29-.66.81-.86,1.14ZM3.45,20.29l-2.57-2.09c.7-.24,1.5-.62,2.31-1.21,2.79-1.94,3.32-4.27,3.32-7.88,0-.68-.04-1.28-.15-1.98h3.19c0,5.46-.11,9.95-6.09,13.16Z"/>
  <path class="cls-1" d="M38,.29c1.43,0,2.62,1.19,2.62,2.64s-1.19,2.62-2.62,2.62c-.09,0-.2,0-.29-.02-.07.24-.11.46-.18.66-.51,2.16-1.45,5.57-3.3,8.01-1.98,2.64-4.93,4.82-8.85,6.1l-2.4-2.64c4.36-1.01,6.84-2.93,8.63-5.17,1.45-1.83,2.29-4.31,2.57-6.2h-10.23c-1.01,0-2.07.04-2.62.09v-3.1c.64.09,1.89.18,2.62.18h10.19c.31,0,.79-.02,1.25-.09-.02-.13-.04-.26-.04-.42,0-1.45,1.19-2.64,2.64-2.64ZM38,4.18c.68,0,1.25-.57,1.25-1.25s-.57-1.28-1.25-1.28-1.28.57-1.28,1.28.57,1.25,1.28,1.25Z"/>
  <path class="cls-1" d="M46.99,3.85v7.44c0,.55.02,1.41.07,1.91h-3.19c.02-.42.11-1.28.11-1.94V3.85c0-.42-.02-1.19-.09-1.69h3.17c-.04.51-.07.99-.07,1.69ZM57.18,4.18v4.36c0,4.73-.92,6.78-2.55,8.58-1.45,1.58-3.74,2.66-5.35,3.17l-2.29-2.42c2.18-.51,3.96-1.34,5.28-2.77,1.52-1.65,1.8-3.3,1.8-6.73v-4.18c0-.88-.04-1.58-.13-2.2h3.32c-.04.62-.09,1.32-.09,2.2Z"/>
  <path class="cls-1" d="M72.69,20.09l-1.65-2.62c.84-.09,1.45-.22,2.05-.35,2.82-.66,5.02-2.68,5.02-5.9,0-3.04-1.65-5.3-4.62-5.81-.31,1.87-.68,3.89-1.32,5.96-1.32,4.44-3.21,7.17-5.61,7.17s-4.47-2.68-4.47-6.4c0-5.08,4.4-9.42,10.1-9.42s8.89,3.78,8.89,8.58-2.84,7.92-8.38,8.78ZM66.64,15.16c.92,0,1.78-1.39,2.68-4.36.51-1.63.92-3.5,1.17-5.32-3.63.75-5.59,3.96-5.59,6.38,0,2.22.88,3.3,1.74,3.3Z"/>
  <path class="cls-1" d="M88.75,12.67v5.39c0,1.14-.18,1.78-.81,2.18-.62.4-1.45.48-2.71.48-.04-.66-.33-1.67-.64-2.33.62.02,1.21.02,1.41.02.24,0,.31-.09.31-.33v-4.58c-.64.22-1.25.42-1.83.62l-.62-2.51c.7-.18,1.52-.42,2.44-.68v-3.94h-2.13v-2.42h2.13V.44h2.44v4.14h1.83v2.42h-1.83v3.17l1.58-.53.42,2.31-2,.73ZM99.9,15.73c1.23,1.17,3.06,2.2,4.84,2.77-.53.44-1.28,1.36-1.65,1.98-1.54-.66-3.1-1.76-4.31-3.06v3.59h-2.49v-3.52c-1.5,1.41-3.37,2.51-5.33,3.17-.37-.59-1.08-1.54-1.61-2.02,2.13-.55,4.25-1.63,5.68-2.9h-4.05v-2.11h5.3v-1.34h-5.02v-5.17h5.81v5.08h.86v-5.08h6.01v5.17h-5.17v1.34h5.54v2.11h-4.42ZM95.04,8.87h-1.83v1.63h1.83v-1.63ZM101.86,6.34h-8.6V1.23h8.6v5.1ZM99.49,3.06h-4v1.45h4v-1.45ZM99.95,10.5h1.91v-1.63h-1.91v1.63Z"/>
  <path class="cls-1" d="M114.25,1.3c-.57,1.54-1.3,3.1-2.11,4.58v15.07h-2.64v-11c-.46.55-.92,1.1-1.36,1.58-.24-.64-.99-2.13-1.45-2.79,2-1.98,3.92-5.1,5.02-8.23l2.55.79ZM121.22,6.49v2.31h5.7v2.38h-5.7v2.49h5.99v2.42h-5.99v4.88h-2.68V6.49h-.84c-.88,1.63-1.89,3.12-2.88,4.27-.42-.48-1.45-1.41-2-1.83,1.94-1.98,3.67-5.15,4.67-8.3l2.53.64c-.31.92-.66,1.83-1.08,2.73h8.54v2.49h-6.25Z"/>
  <path class="cls-1" d="M138.71,3.65c-.13.66-.31,1.47-.46,2.27.75-.04,1.39-.09,1.85-.09,2.33,0,3.98,1.03,3.98,4.2,0,2.6-.31,6.16-1.25,8.07-.73,1.54-1.94,2.02-3.61,2.02-.84,0-1.89-.15-2.64-.31l-.46-2.9c.84.24,2.11.46,2.68.46.75,0,1.3-.22,1.65-.95.59-1.25.9-3.92.9-6.09,0-1.76-.77-2-2.13-2-.35,0-.9.04-1.54.09-.84,3.34-2.46,8.56-4.49,11.79l-2.86-1.14c2.13-2.88,3.65-7.33,4.47-10.34-.79.09-1.5.18-1.89.22-.64.11-1.78.26-2.46.37l-.26-2.99c.81.07,1.54.02,2.35,0,.68-.02,1.72-.09,2.84-.2.31-1.65.51-3.26.46-4.64l3.28.33c-.13.57-.29,1.28-.4,1.83ZM148.04,4l-1.08.46c1.32,2.05,2.97,5.72,3.59,7.68l-2.79,1.28c-.57-2.44-2.13-6.31-3.7-8.25l1.98-.86c-.44-.84-.99-1.89-1.5-2.6l1.74-.73c.55.81,1.34,2.2,1.76,3.01ZM150.66,2.99l-1.74.75c-.46-.9-1.17-2.2-1.78-3.04l1.76-.7c.57.84,1.39,2.22,1.76,2.99Z"/>
  <path class="cls-1" d="M165.9,7.52c2.35,1.69,5.74,4.22,7.33,5.96l-2.22,2c-1.36-1.63-4.36-4.14-6.73-5.96v11.4h-2.86v-10.74c-2,2.13-4.36,4.05-7,5.41-.42-.7-1.23-1.78-1.8-2.38,4-1.87,7.44-5.28,9.48-8.65h-8.78V1.89h19.08v2.68h-6.84c-.37.68-.81,1.36-1.28,2.02v2.29l1.63-1.36Z"/>
  <path class="cls-1" d="M177.74,4.95c.04,2.05-.24,4.6-.97,6.23l-1.56-.68c.66-1.39.92-3.78.92-5.74l1.61.2ZM196,3.32v2.2h-1.91l-.15,2.27h-10.52l.22-2.27h-1.72c.33,1.12.55,2.29.57,3.1l-1.54.53c-.04-.97-.31-2.46-.68-3.76v15.56h-2.35V.42h2.35v4.11l1.19-.37c.13.37.26.75.4,1.14v-1.98h1.98l.2-2.2h10.34l-.15,2.2h1.78ZM192.35,17.49c1.36.7,2.77,1.47,3.65,2.05l-2.02,1.45c-.95-.7-2.71-1.78-4.18-2.57l1.03-.92h-4.27l1.56.53c-1.25,1.25-3.32,2.38-5.13,3.06-.37-.51-1.23-1.43-1.74-1.87,1.52-.4,3.12-1.01,4.16-1.72h-2.07v-9h11.09v9h-2.09ZM185.79,11h6.07v-.86h-6.07v.86ZM185.79,13.42h6.07v-.88h-6.07v.88ZM185.79,15.82h6.07v-.86h-6.07v.86ZM185.81,6.12h1.74c.02-.29.07-.59.09-.9h-1.74l-.09.9ZM186.12,2.79l-.09.86h1.74l.04-.86h-1.69ZM191.71,6.12l.07-.9h-1.98l-.09.9h2ZM191.93,2.79h-1.91l-.07.86h1.91l.07-.86Z"/>
  <path class="cls-1" d="M203.7,1.21l3.21.11c-.13.62-.33,1.74-.48,3.1l.81,1.06c-.31.4-.75,1.12-1.12,1.69-.02.15-.02.31-.04.48,1.74-1.52,4.27-3.3,6.4-3.3,2.38,0,3.45,1.41,3.45,3.26,0,2.29-.73,5.52-.73,7.79,0,.57.29.99.84.99.81,0,1.85-.57,2.86-1.58l.35,3.1c-1.01.95-2.35,1.63-4.14,1.63-1.65,0-2.75-1.19-2.75-3.32,0-2.38.79-5.61.79-7.61,0-1.08-.57-1.63-1.5-1.63-1.63,0-4,2.02-5.81,4-.02.62-.04,1.21-.04,1.78,0,1.8,0,3.65.13,5.72.02.4.09,1.19.15,1.69h-3.04c.04-.51.07-1.28.07-1.63.04-1.72.07-2.99.09-4.84-.92,1.39-2,2.99-2.77,4.03l-1.74-2.4c1.25-1.54,3.45-4.44,4.71-6.29.04-.51.09-1.03.11-1.56-1.08.13-2.77.35-4,.53l-.29-2.82c.64.02,1.14.02,1.91-.02.64-.04,1.61-.15,2.55-.29.04-.84.09-1.45.09-1.69,0-.64.02-1.3-.09-1.98Z"/>
  <path class="cls-1" d="M230.08,4.36c1.08-.2,2.11-.44,2.97-.7l.09,2.55c-1.01.26-2.38.55-3.85.77-1.06,3.08-2.93,6.93-4.71,9.42l-2.66-1.36c1.74-2.16,3.52-5.39,4.49-7.77-.4.02-.77.02-1.14.02-.9,0-1.8-.02-2.75-.09l-.2-2.55c.95.11,2.11.15,2.93.15.66,0,1.32-.02,2-.09.31-1.21.55-2.53.59-3.67l3.04.31c-.18.7-.46,1.83-.79,3.01ZM236.02,11c.02.64.09,1.69.13,2.79,1.89.7,3.43,1.8,4.55,2.82l-1.47,2.35c-.77-.7-1.76-1.63-2.97-2.35v.22c0,2.05-1.12,3.63-4.25,3.63-2.73,0-4.88-1.21-4.88-3.63,0-2.16,1.8-3.81,4.86-3.81.53,0,1.01.04,1.52.09-.09-1.63-.2-3.59-.24-4.93h2.75c-.07.92-.02,1.85,0,2.82ZM231.62,17.93c1.52,0,1.98-.84,1.98-2.05v-.44c-.57-.13-1.17-.22-1.78-.22-1.28,0-2.09.57-2.09,1.34,0,.81.68,1.36,1.89,1.36ZM234.52,6.23l1.41-2.18c1.58.68,4.31,2.18,5.43,2.99l-1.56,2.31c-1.28-1.01-3.78-2.44-5.28-3.12Z"/>
  <path class="cls-1" d="M253.18,6.42c-.07.95-.13,1.91-.24,2.86h8.49s-.02.79-.09,1.14c-.4,5.98-.86,8.45-1.74,9.42-.66.7-1.34.92-2.38,1.01-.81.09-2.29.07-3.76,0-.04-.75-.44-1.83-.92-2.57,1.52.15,3.06.15,3.7.15.48,0,.79-.04,1.06-.29.57-.48.97-2.4,1.28-6.4h-6.05c-.84,3.72-2.66,7.15-7.06,9.37-.37-.73-1.17-1.65-1.85-2.22,5.94-2.75,6.45-7.77,6.69-12.48h-6.29v-2.51h8.43V.33h2.71v3.59h8.69v2.51h-10.65Z"/>
  <path class="cls-1" d="M268.47,10.78c1.01-1.06,2.71-3.32,4.07-4.91,1.54-1.74,2.97-1.89,4.58-.33,1.5,1.45,3.26,3.72,4.55,5.13,1.41,1.54,3.28,3.52,5.37,5.39l-2.27,2.64c-1.58-1.5-3.45-3.63-4.84-5.26-1.36-1.63-3.01-3.72-4.05-4.88-.77-.86-1.19-.75-1.83.07-.88,1.1-2.44,3.28-3.39,4.53-.51.73-1.01,1.52-1.39,2.09l-2.68-2.75c.66-.51,1.21-1.01,1.87-1.72Z"/>
</svg>