<?xml version="1.0" encoding="UTF-8"?>
<svg id="_診療予約" data-name="診療予約" xmlns="http://www.w3.org/2000/svg" viewBox="0 0 495.11 21.12">
  <defs>
    <style>
      .cls-1 {
        fill: #5185c5;
        stroke-width: 0px;
      }
    </style>
  </defs>
  <path class="cls-1" d="M7.9,15.47c-.42-.64-1.14-1.56-1.87-2.4v7.9h-2.57v-7.17c-.7.75-1.41,1.39-2.11,1.94-.24-.64-.92-1.91-1.34-2.38,2.13-1.5,4.29-4.07,5.63-6.69H.62v-2.35h2.84V.44h2.57v3.87h.95l.42-.11,1.47.97c-.66,1.8-1.61,3.59-2.71,5.21.18.15.37.33.59.53.57-.75,1.21-1.74,1.58-2.44l1.67,1.39c-.77.75-1.45,1.54-2.05,2.16.66.64,1.25,1.21,1.5,1.47l-1.56,1.98ZM20.4,2.11s0,.97-.02,1.32c-.2,11-.4,14.83-1.25,16.02-.57.88-1.12,1.17-1.96,1.32-.79.15-2,.13-3.19.11-.04-.77-.35-1.94-.81-2.71,1.14.09,2.18.09,2.71.09.35,0,.57-.09.81-.42.62-.73.86-4.27,1.01-13.27h-3.19c-.18,6.36-.77,12.7-5.68,16.41-.44-.7-1.25-1.56-1.94-2.07,4.51-3.17,4.84-8.74,4.95-14.35h-3.17v-2.46h11.73Z"/>
  <path class="cls-1" d="M37.36,4.03c-.07.29-.13.55-.2.84,3.45.79,5.74,3.59,5.74,7.44,0,4.66-3.32,7.33-7.9,8.03l-1.67-2.55c4.82-.4,6.73-2.88,6.73-5.63,0-2.44-1.36-4.27-3.56-4.86-.77,2.55-1.74,5.08-2.99,7,.4.46.79.92,1.21,1.32l-2.22,1.76c-.26-.29-.53-.57-.75-.86-1.47,1.61-2.71,2.33-4.34,2.33-1.83,0-3.5-1.54-3.5-4.38,0-2.51,1.25-5.19,3.26-6.95-.22-.59-.4-1.19-.59-1.78-.24-.79-.48-1.5-.88-2.29l2.88-.9c.13.73.31,1.45.48,2.11.11.42.24.88.4,1.34,1.67-.84,3.3-1.25,4.99-1.32.09-.37.15-.73.2-1.06.11-.64.18-1.58.18-2.09l3.04.29c-.18.59-.37,1.67-.51,2.22ZM27.74,16c.79,0,1.61-.68,2.42-1.67-.7-1.08-1.41-2.57-2.05-4.22-1.03,1.21-1.63,2.77-1.63,4.14,0,1.08.46,1.76,1.25,1.76ZM31.84,11.9c.79-1.41,1.45-3.12,1.96-4.75-1.34.15-2.51.62-3.54,1.23.51,1.36,1.06,2.64,1.58,3.52Z"/>
  <path class="cls-1" d="M47.89,3.81c1.83-.15,5.46-.48,9.48-.84,2.27-.18,4.69-.33,6.23-.37l.02,2.82c-1.19.02-3.08.02-4.25.29-2.66.7-4.64,3.56-4.64,6.18,0,3.61,3.39,4.93,7.11,5.13l-1.03,3.01c-4.6-.31-8.96-2.79-8.96-7.55,0-3.17,1.78-5.68,3.26-6.8-2.07.22-6.56.7-9.11,1.25l-.29-3.01c.88-.02,1.74-.07,2.18-.11Z"/>
  <path class="cls-1" d="M67.91,3.85c1.85-.15,5.48-.48,9.51-.81,2.27-.2,4.66-.33,6.23-.4l.02,2.82c-1.19.02-3.08.02-4.25.31-2.66.7-4.66,3.54-4.66,6.16,0,3.63,3.39,4.93,7.13,5.13l-1.03,3.01c-4.62-.31-8.98-2.77-8.98-7.55,0-3.17,1.78-5.68,3.28-6.8-2.07.22-6.56.7-9.11,1.25l-.29-3.01c.88-.02,1.74-.07,2.16-.11ZM82.28,10.61l-1.67.75c-.55-1.21-1.01-2.07-1.72-3.06l1.63-.68c.55.79,1.34,2.13,1.76,2.99ZM84.84,9.53l-1.65.79c-.59-1.19-1.1-2-1.8-2.97l1.61-.75c.55.77,1.39,2.07,1.85,2.93Z"/>
  <path class="cls-1" d="M92.16,1.21l3.21.11c-.13.62-.31,1.74-.48,3.12l.81,1.03c-.31.4-.75,1.12-1.12,1.69-.02.2-.02.42-.04.62,2.22-1.65,4.49-2.27,6.47-2.27,3.39,0,6.05,2.4,6.07,5.94,0,4.44-2.79,7.11-8.25,8.19l-1.32-2.66c3.87-.57,6.64-2.16,6.62-5.59,0-1.72-1.39-3.3-3.59-3.3-2.33,0-4.38,1.12-6.23,2.82-.02.64-.04,1.28-.04,1.85,0,1.8,0,3.65.13,5.72.02.4.09,1.19.15,1.69h-3.04c.04-.48.07-1.28.07-1.63.04-1.72.07-2.99.09-4.84-.92,1.39-2,2.99-2.77,4.03l-1.74-2.4c1.25-1.54,3.45-4.44,4.71-6.29.04-.51.09-1.03.11-1.56-1.08.13-2.77.35-4,.53l-.29-2.82c.64.02,1.14.02,1.91-.02.64-.04,1.61-.15,2.55-.29.04-.84.09-1.45.09-1.69,0-.64.02-1.3-.09-1.98Z"/>
  <path class="cls-1" d="M118.91,3.5c-.15.66-.31,1.47-.46,2.27.73-.04,1.39-.09,1.85-.09,2.33,0,3.98,1.03,3.98,4.2,0,2.6-.31,6.16-1.25,8.08-.73,1.54-1.96,2.02-3.61,2.02-.86,0-1.89-.15-2.64-.31l-.48-2.9c.86.24,2.11.46,2.71.46.73,0,1.3-.22,1.65-.95.59-1.25.88-3.92.88-6.09,0-1.76-.75-2-2.13-2-.35,0-.9.04-1.52.09-.84,3.34-2.46,8.56-4.49,11.79l-2.86-1.14c2.13-2.88,3.65-7.33,4.44-10.34-.79.09-1.47.18-1.89.22-.62.11-1.78.26-2.44.37l-.26-2.99c.79.07,1.54.02,2.35,0,.68-.02,1.72-.09,2.84-.18.31-1.67.48-3.28.46-4.66l3.28.33c-.13.57-.29,1.28-.4,1.83ZM130.75,11.93l-2.79,1.3c-.57-2.44-2.13-6.43-3.7-8.36l2.62-1.12c1.36,1.89,3.21,6.1,3.87,8.19Z"/>
  <path class="cls-1" d="M137.02,10.91c2-1.45,4.18-2.09,6.49-2.09,3.85,0,6.09,2.38,6.09,5.04,0,4-3.17,7.09-12.32,6.31l-.84-2.88c6.6.9,10.1-.7,10.1-3.5,0-1.43-1.36-2.49-3.28-2.49-2.49,0-4.73.92-6.12,2.6-.4.48-.62.84-.81,1.28l-2.53-.64c.44-2.16.95-6.47,1.1-9.2l2.95.42c-.29,1.21-.68,3.89-.84,5.15ZM146.52,3.06l-.66,2.68c-2.22-.29-7.13-1.32-8.84-1.76l.7-2.64c2.09.66,6.89,1.5,8.8,1.72Z"/>
  <path class="cls-1" d="M161.59,4.36c1.08-.2,2.11-.44,2.97-.7l.09,2.55c-1.01.26-2.38.55-3.85.77-1.06,3.08-2.93,6.93-4.71,9.42l-2.66-1.36c1.74-2.16,3.52-5.39,4.49-7.77-.4.02-.77.02-1.14.02-.9,0-1.8-.02-2.75-.09l-.2-2.55c.95.11,2.11.15,2.93.15.66,0,1.32-.02,2-.09.31-1.21.55-2.53.59-3.67l3.04.31c-.18.7-.46,1.83-.79,3.01ZM167.53,11c.02.64.09,1.69.13,2.79,1.89.7,3.43,1.8,4.55,2.82l-1.47,2.35c-.77-.7-1.76-1.63-2.97-2.35v.22c0,2.05-1.12,3.63-4.25,3.63-2.73,0-4.88-1.21-4.88-3.63,0-2.16,1.8-3.81,4.86-3.81.53,0,1.01.04,1.52.09-.09-1.63-.2-3.59-.24-4.93h2.75c-.07.92-.02,1.85,0,2.82ZM163.13,17.93c1.52,0,1.98-.84,1.98-2.05v-.44c-.57-.13-1.17-.22-1.78-.22-1.28,0-2.09.57-2.09,1.34,0,.81.68,1.36,1.89,1.36ZM166.04,6.23l1.41-2.18c1.58.68,4.31,2.18,5.43,2.99l-1.56,2.31c-1.28-1.01-3.78-2.44-5.28-3.12Z"/>
  <path class="cls-1" d="M179.76,6.01c-.02,1.43,0,3.08.13,4.66.31,3.17.97,5.35,2.35,5.35,1.03,0,1.91-2.57,2.33-4.33l2.2,2.68c-1.45,3.83-2.84,5.17-4.6,5.17-2.42,0-4.51-2.18-5.13-8.08-.22-2.02-.24-4.6-.24-5.94,0-.62-.04-1.56-.18-2.24l3.39.04c-.15.79-.26,2.07-.26,2.68ZM195.03,15.23l-2.88,1.12c-.35-3.54-1.52-8.89-3.92-11.62l2.79-.9c2.09,2.53,3.76,8.03,4,11.4Z"/>
  <path class="cls-1" d="M207.29,6.42c-.07.95-.13,1.91-.24,2.86h8.49s-.02.79-.09,1.14c-.4,5.98-.86,8.45-1.74,9.42-.66.7-1.34.92-2.38,1.01-.81.09-2.29.07-3.76,0-.04-.75-.44-1.83-.92-2.57,1.52.15,3.06.15,3.7.15.48,0,.79-.04,1.06-.29.57-.48.97-2.4,1.28-6.4h-6.05c-.84,3.72-2.66,7.15-7.06,9.37-.37-.73-1.17-1.65-1.85-2.22,5.94-2.75,6.45-7.77,6.69-12.48h-6.29v-2.51h8.43V.33h2.71v3.59h8.69v2.51h-10.65Z"/>
  <path class="cls-1" d="M220.77,15.71l2.29-1.98c1.56,1.28,3.7,3.45,4.8,4.82l-2.35,2.02c-1.34-1.65-3.21-3.54-4.73-4.86Z"/>
  <path class="cls-1" d="M251.13,5.3c-1.03,1.72-3.12,4.49-5.28,6.03l-2.29-1.83c1.76-1.08,3.48-3.01,4.05-4.09h-11.46c-.92,0-1.65.07-2.68.15v-3.06c.84.13,1.76.22,2.68.22h11.86c.62,0,1.83-.07,2.24-.2l1.74,1.63c-.24.29-.66.81-.86,1.14ZM236.92,20.29l-2.57-2.09c.7-.24,1.5-.62,2.31-1.21,2.79-1.94,3.32-4.27,3.32-7.88,0-.68-.04-1.28-.15-1.98h3.19c0,5.46-.11,9.95-6.09,13.16Z"/>
  <path class="cls-1" d="M271.46.29c1.43,0,2.62,1.19,2.62,2.64s-1.19,2.62-2.62,2.62c-.09,0-.2,0-.29-.02-.07.24-.11.46-.18.66-.51,2.16-1.45,5.57-3.3,8.01-1.98,2.64-4.93,4.82-8.85,6.09l-2.4-2.64c4.36-1.01,6.84-2.93,8.63-5.17,1.45-1.83,2.29-4.31,2.57-6.2h-10.23c-1.01,0-2.07.04-2.62.09v-3.1c.64.09,1.89.18,2.62.18h10.19c.31,0,.79-.02,1.25-.09-.02-.13-.04-.26-.04-.42,0-1.45,1.19-2.64,2.64-2.64ZM271.46,4.18c.68,0,1.25-.57,1.25-1.25s-.57-1.28-1.25-1.28-1.28.57-1.28,1.28.57,1.25,1.28,1.25Z"/>
  <path class="cls-1" d="M280.46,3.85v7.44c0,.55.02,1.41.07,1.91h-3.19c.02-.42.11-1.28.11-1.94V3.85c0-.42-.02-1.19-.09-1.69h3.17c-.04.51-.07.99-.07,1.69ZM290.65,4.18v4.36c0,4.73-.92,6.78-2.55,8.58-1.45,1.58-3.74,2.66-5.35,3.17l-2.29-2.42c2.18-.51,3.96-1.34,5.28-2.77,1.52-1.65,1.8-3.3,1.8-6.73v-4.18c0-.88-.04-1.58-.13-2.2h3.32c-.04.62-.09,1.32-.09,2.2Z"/>
  <path class="cls-1" d="M306.15,20.09l-1.65-2.62c.84-.09,1.45-.22,2.05-.35,2.82-.66,5.02-2.68,5.02-5.9,0-3.04-1.65-5.3-4.62-5.81-.31,1.87-.68,3.89-1.32,5.96-1.32,4.44-3.21,7.17-5.61,7.17s-4.47-2.68-4.47-6.4c0-5.08,4.4-9.42,10.1-9.42s8.89,3.78,8.89,8.58-2.84,7.92-8.38,8.78ZM300.1,15.16c.92,0,1.78-1.39,2.68-4.36.51-1.63.92-3.5,1.17-5.32-3.63.75-5.59,3.96-5.59,6.38,0,2.22.88,3.3,1.74,3.3Z"/>
  <path class="cls-1" d="M322.21,12.67v5.39c0,1.14-.18,1.78-.81,2.18-.62.4-1.45.48-2.71.48-.04-.66-.33-1.67-.64-2.33.62.02,1.21.02,1.41.02.24,0,.31-.09.31-.33v-4.58c-.64.22-1.25.42-1.83.62l-.62-2.51c.7-.18,1.52-.42,2.44-.68v-3.94h-2.13v-2.42h2.13V.44h2.44v4.14h1.83v2.42h-1.83v3.17l1.58-.53.42,2.31-2,.73ZM333.37,15.73c1.23,1.17,3.06,2.2,4.84,2.77-.53.44-1.28,1.36-1.65,1.98-1.54-.66-3.1-1.76-4.31-3.06v3.59h-2.49v-3.52c-1.5,1.41-3.37,2.51-5.32,3.17-.37-.59-1.08-1.54-1.61-2.02,2.13-.55,4.25-1.63,5.68-2.9h-4.05v-2.11h5.3v-1.34h-5.02v-5.17h5.81v5.08h.86v-5.08h6.01v5.17h-5.17v1.34h5.54v2.11h-4.42ZM328.51,8.87h-1.83v1.63h1.83v-1.63ZM335.33,6.34h-8.6V1.23h8.6v5.1ZM332.95,3.06h-4v1.45h4v-1.45ZM333.41,10.5h1.91v-1.63h-1.91v1.63Z"/>
  <path class="cls-1" d="M347.71,1.3c-.57,1.54-1.3,3.1-2.11,4.58v15.07h-2.64v-11c-.46.55-.92,1.1-1.36,1.58-.24-.64-.99-2.13-1.45-2.79,2-1.98,3.92-5.11,5.02-8.23l2.55.79ZM354.69,6.49v2.31h5.7v2.38h-5.7v2.49h5.98v2.42h-5.98v4.88h-2.68V6.49h-.84c-.88,1.63-1.89,3.12-2.88,4.27-.42-.48-1.45-1.41-2-1.83,1.94-1.98,3.67-5.15,4.66-8.29l2.53.64c-.31.92-.66,1.83-1.08,2.73h8.54v2.49h-6.25Z"/>
  <path class="cls-1" d="M372.18,3.65c-.13.66-.31,1.47-.46,2.27.75-.04,1.39-.09,1.85-.09,2.33,0,3.98,1.03,3.98,4.2,0,2.6-.31,6.16-1.25,8.07-.73,1.54-1.94,2.02-3.61,2.02-.84,0-1.89-.15-2.64-.31l-.46-2.9c.84.24,2.11.46,2.68.46.75,0,1.3-.22,1.65-.95.59-1.25.9-3.92.9-6.1,0-1.76-.77-2-2.13-2-.35,0-.9.04-1.54.09-.84,3.34-2.46,8.56-4.49,11.79l-2.86-1.14c2.13-2.88,3.65-7.33,4.47-10.34-.79.09-1.5.18-1.89.22-.64.11-1.78.26-2.46.37l-.26-2.99c.81.07,1.54.02,2.35,0,.68-.02,1.72-.09,2.84-.2.31-1.65.51-3.26.46-4.64l3.28.33c-.13.57-.29,1.28-.4,1.83ZM381.51,4l-1.08.46c1.32,2.05,2.97,5.72,3.59,7.68l-2.79,1.28c-.57-2.44-2.13-6.31-3.7-8.25l1.98-.86c-.44-.84-.99-1.89-1.5-2.6l1.74-.73c.55.81,1.34,2.2,1.76,3.01ZM384.12,2.99l-1.74.75c-.46-.9-1.17-2.2-1.78-3.04l1.76-.7c.57.84,1.39,2.22,1.76,2.99Z"/>
  <path class="cls-1" d="M406.61,19.96h-7.02v1.03h-2.35v-11.27l-.24.35c-.26-.29-.77-.75-1.25-1.14v1.76h-3.3v.86h3.32v1.91h-3.32v.07c0,.29,0,.57-.02.86h3.89v2.05h-4.07c1.25.7,3.26,1.89,3.85,2.29l-1.5,2.13c-.79-.7-2.24-1.85-3.43-2.71-.75,1.1-1.91,2.09-3.72,2.88-.33-.53-1.01-1.32-1.58-1.76,1.87-.73,2.93-1.76,3.5-2.84h-3.3v-2.05h3.92c.02-.31.04-.59.04-.88v-.04h-3.17v-1.91h3.17v-.86h-3.26v-4.93h8.98v1.69c1.21-1.89,2.2-4.51,2.84-7.02l2.4.53c-.31,1.19-.7,2.4-1.14,3.54h1.67c.48-1.19.95-2.71,1.21-3.87l2.51.57c-.42,1.12-.86,2.29-1.3,3.3h2.46v2.33h-2.57v2.05h2.4v2.2h-2.4v2.11h2.4v2.2h-2.4v2.18h2.79v2.38ZM388.02,4.22h-1.78v-2.02h1.78V.42h2.27v1.78h2.07V.42h2.24v1.78h1.74v2.02h-1.74v1.14h-2.24v-1.14h-2.07v1.14h-2.27v-1.14ZM388.72,9h1.41v-1.56h-1.41v1.56ZM393.67,7.44h-1.45v1.56h1.45v-1.56ZM401.48,6.84h-1.89v2.05h1.89v-2.05ZM401.48,11.09h-1.89v2.11h1.89v-2.11ZM399.59,17.58h1.89v-2.18h-1.89v2.18Z"/>
  <path class="cls-1" d="M414.72,4.53c-.09,2.38-.26,7.3-.26,10.03,0,2.22,1.32,2.95,3.04,2.95,3.63,0,5.94-2.09,7.53-4.49l2,2.42c-1.41,2.11-4.53,5.06-9.55,5.06-3.61,0-5.94-1.58-5.94-5.35,0-2.95.22-8.74.22-10.63,0-1.03-.09-2.09-.29-2.97l3.54.04c-.13.92-.24,2.05-.29,2.93Z"/>
  <path class="cls-1" d="M433.73,6.01c-.02,1.43,0,3.08.13,4.66.31,3.17.97,5.35,2.35,5.35,1.03,0,1.91-2.57,2.33-4.33l2.2,2.68c-1.45,3.83-2.84,5.17-4.6,5.17-2.42,0-4.51-2.18-5.13-8.08-.22-2.02-.24-4.6-.24-5.94,0-.62-.04-1.56-.18-2.24l3.39.04c-.15.79-.26,2.07-.26,2.68ZM449,15.23l-2.88,1.12c-.35-3.54-1.52-8.89-3.92-11.62l2.79-.9c2.09,2.53,3.76,8.03,4,11.4Z"/>
  <path class="cls-1" d="M461.26,6.42c-.07.95-.13,1.91-.24,2.86h8.49s-.02.79-.09,1.14c-.4,5.98-.86,8.45-1.74,9.42-.66.7-1.34.92-2.38,1.01-.81.09-2.29.07-3.76,0-.04-.75-.44-1.83-.92-2.57,1.52.15,3.06.15,3.7.15.48,0,.79-.04,1.06-.29.57-.48.97-2.4,1.28-6.4h-6.05c-.84,3.72-2.66,7.15-7.06,9.37-.37-.73-1.17-1.65-1.85-2.22,5.94-2.75,6.45-7.77,6.69-12.48h-6.29v-2.51h8.43V.33h2.71v3.59h8.69v2.51h-10.65Z"/>
  <path class="cls-1" d="M476.54,10.78c1.01-1.06,2.71-3.32,4.07-4.91,1.54-1.74,2.97-1.89,4.58-.33,1.5,1.45,3.26,3.72,4.55,5.13,1.41,1.54,3.28,3.52,5.37,5.39l-2.27,2.64c-1.58-1.5-3.45-3.63-4.84-5.26-1.36-1.63-3.01-3.72-4.05-4.88-.77-.86-1.19-.75-1.83.07-.88,1.1-2.44,3.28-3.39,4.53-.51.73-1.01,1.52-1.39,2.09l-2.68-2.75c.66-.51,1.21-1.01,1.87-1.72Z"/>
</svg>