<svg id="_診療予約" data-name="診療予約" xmlns="http://www.w3.org/2000/svg" viewBox="0 0 591.3 18.94">
  <defs>
    <style>
      .cls-1 {
        fill: #595757;
        stroke-width: 0px;
      }
    </style>
  </defs>
  <path class="cls-1" d="M12.9,8.36c.52-.58.68-.76,1.24-1.36.8.54,1.04.7,1.74,1.26.2.18.3.3.3.42,0,.2-.2.36-.74.6v3.4q0,1.98.08,5.22c0,.28-.06.42-.26.5-.2.1-.86.18-1.4.18s-.7-.1-.74-.48v-.72H1.8c-.66,0-1.06.04-1.68.12l-.12-.72c.62.12,1.16.18,1.76.18h11.36v-4.12H2.44c-.58,0-1,.04-1.5.12l-.14-.7c.6.1,1.08.14,1.64.14h10.68v-3.6H1.76c-.56,0-1.08.04-1.52.12l-.12-.72c.64.12,1.08.16,1.68.16h4.76V2.78c0-1.02-.02-1.46-.14-2.4,2.9.3,3.26.36,3.26.66,0,.2-.24.36-.82.52v6.8h4.04ZM.36,1.5c1.52.88,2.26,1.4,3.02,2.06.92.8,1.22,1.28,1.22,1.96,0,.96-.76,2.02-1.46,2.02-.28,0-.46-.26-.64-.94C1.92,4.44,1.32,3.14.22,1.66l.14-.16ZM10.04,7.86c1.26-2.14,2.32-4.58,2.88-6.62,3.04,1.08,3.24,1.16,3.24,1.42,0,.24-.26.34-1.04.42-2.24,2.66-2.92,3.36-4.88,4.94l-.2-.16Z"/>
  <path class="cls-1" d="M21.54,14.36c0,.44.02,1.52.04,3.7-.02.22-.04.3-.14.38-.18.12-.7.2-1.28.2s-.74-.1-.76-.56c.08-2.4.12-5.12.12-8.22,0-4.6-.04-8.5-.12-9.64,1.02.46,1.32.62,2.24,1.16h1.56c.44-.48.56-.62,1-1.08.76.5.98.66,1.66,1.2.22.14.3.24.3.36,0,.2-.22.32-.76.44-1.1,2.08-1.18,2.2-2.94,4.78,1.14.78,1.6,1.24,2.08,2.04.5.8.76,1.74.76,2.66,0,1.08-.36,1.94-1.04,2.48-.36.3-.94.5-1.42.5-.2,0-.24-.06-.24-.4-.02-.86-.28-1.24-1.06-1.54v1.54ZM21.54,12.52c.58.06.94.08,1.14.08.3,0,.48-.08.58-.28.12-.26.2-.7.2-1.2,0-1.6-.42-2.78-1.4-3.98.46-1.48,1-3.8,1.24-5.34h-1.76v10.72ZM29.64,9.64c-.12,2.48-.36,3.7-.94,4.84-.66,1.34-1.7,2.32-3.36,3.14-.78.4-1.36.62-2.68,1l-.1-.26c2.44-1.4,3.7-2.76,4.34-4.62.36-1.04.52-2.24.54-4.1h-.56c-.66,0-.96.02-1.52.12l-.14-.68c.64.1,1.02.14,1.7.14h6.94c.54-.64.72-.84,1.28-1.46.9.66,1.16.88,2,1.58.08.08.12.14.12.18,0,.06-.1.12-.22.12h-3.82v6.16c0,.46.06.5.88.5.64,0,.9-.08,1.06-.34.26-.4.52-1.1,1.3-3.54l.2.02-.14,2.8v.4c0,.18.04.24.22.32.56.2.74.42.74.9,0,.44-.24.82-.62,1-.4.2-1.36.3-2.84.3-1.56,0-2.06-.04-2.36-.22-.4-.22-.5-.54-.5-1.56v-6.74h-1.52ZM34.18,3.04c.48-.52.64-.66,1.1-1.14.86.64,1.12.84,1.88,1.5.18.16.26.26.26.36,0,.2-.22.28-1.1.34-.64.46-.7.5-1.92,1.22.36.3.6.48,1.16.96.06.08.1.14.1.18,0,.08-.08.12-.26.12h-6.8c-.6,0-.94.02-1.56.12l-.14-.7c.58.12,1.1.16,1.76.16h3.72c.54-.62.72-.8,1.28-1.4l.3.24c.2-.5.28-.78.46-1.54h-7.64c.04.32.06.5.06.78,0,1.48-.66,2.54-1.6,2.54-.5,0-.86-.56-.86-1.36,0-.36.1-.5.6-.82.56-.34.9-.8,1.1-1.42.08-.28.1-.52.1-1.08l.26-.04c.14.5.18.64.26.98h2.76v-1.3c0-.62-.02-.88-.1-1.52,2.28.22,2.5.24,2.76.34.18.06.26.14.26.24,0,.18-.16.28-.78.46v1.78h2.58Z"/>
  <path class="cls-1" d="M40.88,5.18c.64,0,1.36-.16,5.38-1.18,1-.26,1.7-.42,4.44-1.02.8-.18,1.04-.26,1.62-.52.28-.12.54-.18.76-.18.36,0,1,.24,1.48.56.52.34.78.72.78,1.1,0,.48-.38.78-.98.78-.12,0-.3-.02-.52-.04-.26-.02-.34-.02-.58-.02-1.84,0-3.56.8-4.8,2.26-1.04,1.16-1.58,2.54-1.58,3.92,0,1.7.88,3.02,2.42,3.6.5.2,1.12.32,1.6.32.04,0,.1,0,.22-.02h.2c.38,0,.74.14,1.04.42.5.44.78.98.78,1.44,0,.64-.44.94-1.4.94-1.46,0-3.12-.58-4.26-1.5-1.36-1.1-2.08-2.64-2.08-4.46,0-1.7.82-3.52,2.24-5.02.78-.82,1.48-1.34,3.2-2.3-1.72.38-3.68.96-5.4,1.6-1.72.64-2.14.84-2.94,1.36-.36.24-.68.34-1,.34-1.08,0-2.6-1.9-2.6-3.22,0-.18.04-.32.16-.58.46.98,1.04,1.42,1.82,1.42ZM51.7,6.42c.72.24,1.48.54,2.12.9.72.4,1.04.82,1.04,1.4s-.36,1.08-.76,1.08c-.18,0-.32-.14-.48-.46-.66-1.38-1.1-1.96-2.04-2.74l.12-.18ZM53.66,5.48c.74.12,1.4.3,2.04.6.82.36,1.2.8,1.2,1.42,0,.58-.32,1.06-.7,1.06-.18,0-.3-.12-.44-.44-.52-1.1-1.12-1.78-2.18-2.5l.08-.14Z"/>
  <path class="cls-1" d="M63.7,9.24l-.66,2.54c-.4,1.5-.64,2.86-.64,3.48,0,.16.02.34.04.66.02.2.04.4.04.54,0,.6-.4,1.04-.96,1.04-.48,0-.88-.34-1.2-1.04-.42-.94-.7-2.58-.7-4.24,0-1.96.2-3.4.92-6.76.28-1.24.34-1.66.34-2.1,0-.68-.14-1.16-.62-1.96.66.14,1.16.46,1.78,1.16.68.76,1.08,1.54,1.08,2.1,0,.34-.06.52-.36,1.04-.32.56-.58,1.06-.78,1.54-.52,1.28-.86,3-.86,4.4,0,.76.06,1.32.22,1.92.34-.64.48-.92.96-1.96.48-1.02.64-1.34,1.18-2.42l.22.06ZM65.1,5.72c.88.72,1.52.96,2.56.96.78,0,1.56-.1,2.32-.28-.02-2.5-.06-3.08-.22-3.46-.2-.52-.74-.8-1.6-.88.38-.32.68-.42,1.32-.42.76,0,1.48.14,2.12.44.52.22.78.52.78.88,0,.2-.04.32-.2.68-.3.64-.38,1.02-.48,2.28.9-.28,1.18-.42,1.78-.88.2-.16.3-.2.48-.2.42,0,.98.2,1.26.48.12.12.2.32.2.5,0,.6-1.24,1.14-3.82,1.7v.76c0,1.62.1,3,.28,4.38,1.18.34,1.98.7,2.62,1.2.58.42.86.96.86,1.64,0,.72-.28,1.2-.7,1.2-.24,0-.3-.06-1.14-.9-.46-.48-1-.9-1.6-1.22.02.12.02.2.02.26,0,1.54-1.32,2.48-3.54,2.48-1.98,0-3.3-.94-3.3-2.36,0-1.58,1.64-2.66,4.06-2.66.28,0,.52.02.92.04,0-.24-.04-3.44-.08-4.58-.56.08-1,.12-1.4.12-1.02,0-1.78-.22-2.4-.68-.5-.36-.92-.82-1.26-1.34l.16-.14ZM68.18,13.64c-1.5,0-2.44.5-2.44,1.3,0,.64.76,1.08,1.92,1.08.82,0,1.56-.22,1.9-.6.22-.2.34-.5.4-.86.02-.14.04-.48.04-.62,0-.02,0-.04-.02-.04-.52-.18-1.06-.26-1.8-.26Z"/>
  <path class="cls-1" d="M77.62,13.38c1.48.34,2.68.74,3.92,1.34,1.18.58,1.72,1.3,1.72,2.36,0,.96-.56,1.86-1.14,1.86-.14,0-.28-.1-.46-.32q-.06-.08-1.02-1.66c-.78-1.3-1.84-2.46-3.1-3.38l.08-.2Z"/>
  <path class="cls-1" d="M90.82,8.04h-1.5c-.46,0-.94.02-1.42.08l-.12-.68c.56.1,1.2.18,1.54.18h1.5v-2.98c-.86.8-1.48,1.26-2.82,2.08l-.16-.16c1.12-1.26,1.82-2.24,2.52-3.44.68-1.2,1.12-2.2,1.4-3.12,2.78.74,3.06.84,3.06,1.08,0,.06-.06.16-.12.2q-.14.08-.94.16c-.52.66-.72.9-1.12,1.36h9.6c.58-.7.76-.9,1.4-1.54.9.7,1.18.92,2.08,1.66.08.08.12.14.12.18,0,.08-.06.12-.26.12h-2.48v4.4h.5c.5-.64.66-.84,1.18-1.48.76.66.98.88,1.72,1.58.06.08.1.14.1.18,0,.1-.08.14-.26.14h-3.24v4.76h.3c.52-.66.68-.86,1.22-1.46.72.68.94.88,1.62,1.6.06.08.08.12.08.16,0,.08-.06.12-.18.12h-16.52c-.24,0-.86.06-1.24.1l-.14-.68c.5.1,1.02.16,1.38.16h1.2v-4.76ZM91.52,13.78c.04.5.06.86.06,1.04,0,1.92-1.1,3.62-2.34,3.62-.62,0-1.02-.52-1.02-1.34,0-.32.1-.58.24-.74.1-.08.24-.16.64-.3.4-.14.84-.4,1.18-.7.48-.42.7-.8,1.02-1.62l.22.04ZM94.3,7.62V3.22h-1.42v4.4h1.42ZM94.3,12.8v-4.76h-1.42v4.76h1.42ZM93.94,13.74c1.38,1.24,2.1,2.3,2.1,3.08s-.8,1.54-1.6,1.54c-.38,0-.58-.22-.58-.66q0-.12.12-1.64c.02-.1.02-.2.02-.34,0-.52-.06-.94-.26-1.9l.2-.08ZM97.6,7.62V3.22h-1.42v4.4h1.42ZM97.6,12.8v-4.76h-1.42v4.76h1.42ZM97.54,13.74c2.02,1.2,2.94,2.12,2.94,2.94,0,.74-.84,1.6-1.54,1.6-.32,0-.46-.22-.52-.82-.16-1.54-.42-2.4-1.06-3.62l.18-.1ZM99.54,7.62h1.5V3.22h-1.5v4.4ZM99.54,12.8h1.5v-4.76h-1.5v4.76ZM101.44,13.78c2.94,1,4.06,1.78,4.06,2.76,0,.86-.72,1.78-1.38,1.78-.18,0-.34-.12-.44-.3q-.06-.14-.26-.72c-.42-1.24-1.04-2.24-2.12-3.38l.14-.14Z"/>
  <path class="cls-1" d="M113.76,8.96c2.16.86,2.9,1.44,2.9,2.34,0,.8-.58,1.6-1.16,1.6-.26,0-.38-.16-.52-.76-.34-1.44-.74-2.32-1.22-2.8v1.6l.02,7.32c-.02.44-.22.5-1.42.5-.66,0-.76-.06-.76-.38.08-2.78.14-4.58.16-5.44l.04-1.68c-1.18,2.14-2.1,3.34-3.54,4.64l-.18-.16c1.48-2.54,2.44-4.88,3.26-8h-1.9c-.38,0-.6.02-.96.1l-.12-.68c.38.12.64.16,1.08.16h2.3V3.02c0-.88-.04-1.5-.18-2.7,2.6.18,3,.24,3,.52,0,.18-.24.32-.8.46v6.02h.78c.44-.6.58-.78,1.04-1.32.7.6.88.78,1.48,1.42.06.08.12.14.12.2,0,.08-.1.12-.26.12h-3.16v1.22ZM108.76,1.6c1.52,1.32,2.28,2.46,2.28,3.4,0,.76-.68,1.62-1.26,1.62-.18,0-.3-.08-.34-.28q-.04-.14-.06-1.24c-.04-1.24-.26-2.2-.78-3.4l.16-.1ZM114.1,6.54c.58-1.62,1-3.36,1.18-4.94.94.32,1.84.7,2.16.88.14.08.22.16.22.24,0,.16-.2.24-.68.3-1.32,2.08-1.52,2.34-2.72,3.6l-.16-.08ZM124.62,11.82c.38-.78.5-1.02.88-1.84.82.62,1.06.82,1.76,1.44.1.08.16.14.16.2s-.08.12-.2.14l-2.86.56q.04,3.66.1,5.94c-.02.4-.3.5-1.54.5-.74,0-.84-.06-.84-.4q.02-1.12.06-5.6l-5.28,1.04c-.32.06-.48.1-.9.32l-.28-.7c.12.02.22.02.3.02.24,0,.44-.02.82-.1l5.36-1.04.02-2.14v-2.74c0-4.32-.04-5.84-.16-7.12,2.52.24,2.68.26,2.9.34.16.06.26.14.26.24,0,.2-.24.34-.82.48q-.02,4.38-.02,5.24c0,1.32,0,1.74.02,5.26l.26-.04ZM117.32,7.18c1.56.5,2,.68,2.72,1.14.64.4.86.74.86,1.28,0,.46-.18.94-.46,1.24-.22.26-.56.46-.8.46-.3,0-.46-.22-.66-.84-.3-1.02-.82-1.96-1.76-3.14l.1-.14ZM117.88,2c2.48.92,3.46,1.68,3.46,2.7,0,.8-.68,1.66-1.28,1.66-.16,0-.3-.06-.38-.18q-.1-.12-.28-.8c-.32-1.2-.8-2.14-1.62-3.22l.1-.16Z"/>
  <path class="cls-1" d="M136.58,16.98c2.14-.66,3.64-1.54,4.84-2.84,1.34-1.44,2-3.2,2-5.26,0-3.42-2.08-5.46-5.52-5.46-.26,0-.42,0-.8.04.7.82.92,1.36.92,2.14,0,1.6-1.02,4.4-2.46,6.82-1.3,2.16-2.46,3.26-3.46,3.26-.44,0-.86-.24-1.08-.58-.16-.3-.28-.58-.46-1.32-.12-.48-.28-.76-.86-1.48-.48-.6-.78-1.48-.78-2.3,0-1.26.64-2.78,1.68-4,1.72-2.04,4.56-3.28,7.54-3.28,4.46,0,7.64,2.82,7.64,6.78,0,2.9-1.6,5.22-4.5,6.56-1.24.58-2.52.92-4.62,1.2l-.08-.28ZM132.84,5.6c-1.38,1.38-2.14,3.08-2.14,4.76,0,1.38.68,2.8,1.36,2.8s1.98-1.66,3.28-4.12c1-1.88,1.6-3.54,1.6-4.42,0-.22-.02-.48-.08-.66-.04-.16-.14-.44-.16-.44-1.62.36-2.7.94-3.86,2.08Z"/>
  <path class="cls-1" d="M147.86,16.92c1.88-1.12,4.18-3.1,5.94-5.1,2.04-2.32,4.04-5.36,4.96-7.52-1.56.2-4.28.98-5.36,1.56-.4.2-.52.24-.76.24-.46,0-.92-.36-1.44-1.12-.42-.64-.66-1.24-.66-1.72,0-.2.02-.28.14-.5.6,1,1.14,1.36,2.1,1.36.62,0,2.54-.28,4.34-.64,1.32-.26,1.44-.32,1.94-.64.22-.14.34-.18.54-.18.3,0,.88.36,1.46.9.44.42.64.72.64,1,0,.2-.08.34-.32.5-.44.34-.56.48-1.16,1.46-.98,1.54-1.42,2.14-2.52,3.54,2.62,1.14,4.28,2.1,5.18,2.98.58.56.84,1.2.84,2,0,1.02-.46,1.78-1.08,1.78-.34,0-.58-.24-.82-.8-.98-2.14-2.38-3.88-4.48-5.5-1.62,1.94-3,3.18-4.78,4.38-1.46.98-2.56,1.52-4.58,2.24l-.12-.22Z"/>
  <path class="cls-1" d="M170.84,9.58c1.62.64,2.88,1.26,4,2,2.44-2.5,4.84-5.38,4.84-5.86,0-.12-.1-.16-.38-.16-.88,0-3.58.44-5.92.96-1.94.44-2.92.76-3.92,1.26-.24.14-.42.18-.62.18-.52,0-1.14-.48-1.74-1.36-.48-.7-.76-1.38-.76-1.82,0-.2.04-.34.12-.52.6,1,1.2,1.38,2.28,1.38.78,0,2.64-.2,6.04-.66q3.68-.52,3.96-.56t.8-.3c.24-.14.44-.2.66-.2.42,0,1.02.38,1.78,1.12.72.72,1.06,1.24,1.06,1.62,0,.26-.14.48-.38.6-.14.08-.16.08-.54.18-.3.1-.62.3-2.94,2-2.1,1.54-2.66,1.94-3.66,2.6.54.38,1.1.9,1.42,1.32.36.46.48.8.48,1.38,0,1.06-.52,1.86-1.2,1.86-.4,0-.62-.22-.92-.94-.38-.88-1.3-2.36-2.14-3.44-.72-.92-1.38-1.58-2.46-2.44l.14-.2Z"/>
  <path class="cls-1" d="M189.12,9c-.06,3.54-1.22,6.32-2.64,6.32-.56,0-.96-.66-.96-1.58,0-.28.08-.56.18-.74.12-.16.16-.2.62-.46.6-.32,1.16-.84,1.62-1.48.5-.68.72-1.22.9-2.08l.28.02ZM186.5,5.06c.86,1,1.38,1.22,2.8,1.22.78,0,2.06-.12,3.28-.28,0-1.96-.04-2.72-.18-3.14-.18-.56-.74-.94-1.64-1.12.28-.26.46-.32.9-.32.76,0,2,.28,2.66.58.58.28.84.58.84.96,0,.24-.02.3-.28.76-.26.48-.38.98-.44,1.96,2.12-.44,2.74-.64,3.26-1.06.22-.16.32-.2.6-.2.3,0,.96.22,1.4.48.42.26.62.52.62.82,0,.28-.14.46-.5.58-.24.1-.44.14-1.36.28-.08,0-.66.08-1.24.18-.22.04-1.18.18-2.88.42-.02.98-.02,1.08-.02,1.44,0,1.62.1,3.88.26,5.52.04.42.04.52.04.78,0,1.56-.74,2.8-1.66,2.8-.5,0-.7-.2-.86-.8-.12-.5-.34-.82-1-1.36-.6-.52-1.1-.88-1.96-1.44l.06-.16c1.5.44,2.14.6,3.26.74.08-2.26.14-4.5.14-7.34-1.3.14-2,.18-2.62.18-1.92,0-2.84-.6-3.68-2.34l.2-.14ZM196.84,8.72c1.8.86,2.58,1.36,3.42,2.2.7.68.98,1.3.98,2.04,0,1.1-.56,2.02-1.24,2.02-.24,0-.4-.1-.52-.32q-.08-.18-.24-.78c-.48-1.86-1.44-3.72-2.56-5l.16-.16Z"/>
  <path class="cls-1" d="M205.96,17.92c1.64-1.5,2.86-3.26,3.72-5.38.62-1.52,1.14-3.58,1.14-4.58,0-.44-.14-.7-.5-.98-.24-.2-.52-.34-.88-.44.22-.2.4-.26.76-.26.74,0,2.34.7,3.08,1.34,1.58-1.1,3.76-3.24,3.76-3.66,0-.18-.18-.24-.74-.24-1.08,0-3.46.34-5.48.76-1.6.36-2.54.66-3.52,1.16-.48.24-.64.28-.88.28-.52,0-1.22-.54-1.78-1.4-.36-.56-.62-1.22-.62-1.62,0-.18.04-.36.12-.58.5.92,1.16,1.3,2.22,1.3.7,0,1.02-.02,3.78-.34,3.5-.42,4.6-.54,5.4-.66q.6-.08,1.2-.32c.14-.06.24-.08.36-.08.36,0,.72.2,1.36.74,1,.86,1.62,1.66,1.62,2.1,0,.28-.14.5-.4.62-.14.08-.2.1-.6.18-.24.06-.46.12-.78.28-1.74.82-2.42,1.1-4.92,2.06-.34,1.14-.56,1.9-.7,2.28-.84,2.38-1.92,4.08-3.62,5.6-.98.88-1.86,1.5-2.94,2.02l-.16-.18Z"/>
  <path class="cls-1" d="M224.14,18c1.68-1.26,2.72-2.22,4.04-3.8,2.02-2.38,3.82-5.38,4.98-8.3.24-.6.38-1.06.38-1.26,0-.14-.12-.2-.36-.2-.72,0-2.54.36-4.26.82-1.48.4-2.26.7-3.18,1.16-.2.12-.48.18-.7.18-.58,0-1.24-.54-1.88-1.5-.36-.58-.54-1.02-.54-1.42,0-.16.02-.26.12-.52.48.94,1.1,1.32,2.1,1.32.86,0,3.2-.32,6.48-.88,1.5-.26,1.64-.3,2.18-.6.14-.06.32-.12.44-.12.3,0,.94.38,1.48.88.68.6,1.06,1.14,1.06,1.5,0,.26-.08.44-.36.72-.34.34-.42.48-.84,1.24-1.94,3.66-3.64,5.94-5.92,7.92-1.6,1.36-2.84,2.12-5.08,3.06l-.14-.2ZM239.73,2.12c0,1.12-.9,2.02-2,2.02s-2.02-.9-2.02-2.02.9-2,2.02-2,2,.9,2,2ZM236.32,2.12c0,.78.62,1.4,1.4,1.4s1.38-.62,1.38-1.4-.62-1.38-1.4-1.38-1.38.62-1.38,1.38Z"/>
  <path class="cls-1" d="M242.9,2.34c.76,0,2.04.44,2.66.9.32.24.48.54.48.82v.04c-.02.18-.02.2-.18.7-.1.34-.16,1.24-.16,2.48,0,.32.02.92.04,1.78.02.48.02.96.02,1.18,0,.62-.02.8-.06,1.08-.08.46-.36.72-.74.72-.36,0-.76-.32-1.1-.88-.28-.48-.5-1.1-.5-1.42q0-.16.12-.5c.22-.56.34-1.78.34-3.24s-.1-2.1-.38-2.52c-.26-.44-.5-.62-1.28-.96.28-.16.38-.18.74-.18ZM245.1,18.18c2.1-1.34,3.44-2.74,4.34-4.46.94-1.88,1.18-3.52,1.18-8.1,0-2.26-.06-2.94-.34-3.34-.24-.4-.8-.72-1.58-.94.32-.24.52-.3.92-.3.64,0,1.6.24,2.38.58.86.4,1.22.74,1.22,1.2,0,.16-.02.2-.14.52-.2.5-.28,1.36-.34,3.98-.06,2.86-.18,3.8-.52,4.94-.9,2.88-3.34,5.02-7,6.12l-.12-.2Z"/>
  <path class="cls-1" d="M265.01.88h-4.8v9.9h-.86V.02h5.66v.86Z"/>
  <path class="cls-1" d="M271.2,18.42c1.36-1.5,2.22-2.86,3-4.78.56-1.42,1.02-3.32,1.02-4.26,0-.48-.06-.66-.32-.94-1.4.2-3.12.68-4.18,1.2-.38.2-.6.26-.86.26-.5,0-1.1-.44-1.76-1.32-.4-.5-.56-.88-.56-1.26,0-.1.02-.18.08-.4.5.74,1.12,1.1,1.92,1.1.62,0,.8-.02,3.78-.48,1.68-.26,3.7-.52,6.08-.78.78-.08,1.2-.18,1.74-.42.24-.12.4-.16.58-.16.32,0,.8.16,1.28.42.76.38,1.14.8,1.14,1.2,0,.42-.32.68-.84.68-.06,0-.14,0-.36-.04-1.16-.2-2.58-.32-3.76-.32-1.02,0-1.84.04-2.9.16,1.14.66,1.36.9,1.36,1.42,0,.88-.84,3.04-1.76,4.54-1.14,1.84-2.52,3.16-4.52,4.34l-.16-.16ZM270.92,2.16c.78.78,1.48,1.1,2.44,1.1.76,0,1.78-.16,2.78-.46.74-.22,1.02-.32,1.76-.76.28-.14.4-.18.64-.18.3,0,.62.12,1.06.42.5.32.74.64.74.98,0,.38-.28.58-1.16.78-1.36.32-3.7.6-4.96.6-1.56,0-2.6-.7-3.48-2.34l.18-.14ZM280.5,1.22c1.06.36,1.74.7,2.42,1.14.62.4.88.82.88,1.36s-.32.98-.72.98c-.2,0-.36-.14-.54-.52-.58-1.2-1.12-1.92-2.14-2.8l.1-.16ZM282.33.02c2.38.58,3.36,1.22,3.36,2.18,0,.5-.3.94-.64.94-.16,0-.28-.12-.46-.42-.62-1.12-1.26-1.82-2.36-2.56l.1-.14Z"/>
  <path class="cls-1" d="M287.62,6.78c1.68.16,3.24.56,4.02,1.04.6.38.86.8.86,1.46,0,.8-.42,1.4-.98,1.4-.32,0-.46-.12-.8-.64-.3-.5-1-1.34-1.48-1.8-.48-.46-.92-.78-1.7-1.28l.08-.18ZM303.83,6.06c-2,3.48-5.64,6.94-10.48,9.94-1,.62-1.28.82-1.64,1.18-.16.16-.38.26-.58.26-1,0-2.72-2.24-2.72-3.54,0-.2.04-.34.14-.6.44.86,1.16,1.46,1.76,1.46.64,0,2.14-.68,4.32-1.96,3.42-2.02,6.52-4.38,9.02-6.88l.18.14ZM289.9,2.96c1.98.22,3.34.6,4.16,1.16.54.38.76.78.76,1.4,0,.78-.44,1.4-.98,1.4-.34,0-.44-.1-.86-.76-.78-1.24-1.92-2.32-3.18-3.02l.1-.18ZM298.42,1.84c2.38.86,3.34,1.56,3.34,2.48,0,.54-.32,1-.72,1-.22,0-.38-.14-.54-.48-.66-1.3-1.14-1.94-2.18-2.84l.1-.16ZM300.29.56c2.34.5,3.42,1.22,3.42,2.28,0,.46-.32.9-.64.9-.2,0-.32-.12-.52-.46-.56-1.06-1.26-1.82-2.34-2.58l.08-.14Z"/>
  <path class="cls-1" d="M305.5,16.92c1.88-1.12,4.18-3.1,5.94-5.1,2.04-2.32,4.04-5.36,4.96-7.52-1.56.2-4.28.98-5.36,1.56-.4.2-.52.24-.76.24-.46,0-.92-.36-1.44-1.12-.42-.64-.66-1.24-.66-1.72,0-.2.02-.28.14-.5.6,1,1.14,1.36,2.1,1.36.62,0,2.54-.28,4.34-.64,1.32-.26,1.44-.32,1.94-.64.22-.14.34-.18.54-.18.3,0,.88.36,1.46.9.44.42.64.72.64,1,0,.2-.08.34-.32.5-.44.34-.56.48-1.16,1.46-.98,1.54-1.42,2.14-2.52,3.54,2.62,1.14,4.28,2.1,5.18,2.98.58.56.84,1.2.84,2,0,1.02-.46,1.78-1.08,1.78-.34,0-.58-.24-.82-.8-.98-2.14-2.38-3.88-4.48-5.5-1.62,1.94-3,3.18-4.78,4.38-1.46.98-2.56,1.52-4.58,2.24l-.12-.22Z"/>
  <path class="cls-1" d="M328.48,9.58c1.62.64,2.88,1.26,4,2,2.44-2.5,4.84-5.38,4.84-5.86,0-.12-.1-.16-.38-.16-.88,0-3.58.44-5.92.96-1.94.44-2.92.76-3.92,1.26-.24.14-.42.18-.62.18-.52,0-1.14-.48-1.74-1.36-.48-.7-.76-1.38-.76-1.82,0-.2.04-.34.12-.52.6,1,1.2,1.38,2.28,1.38.78,0,2.64-.2,6.04-.66q3.68-.52,3.96-.56t.8-.3c.24-.14.44-.2.66-.2.42,0,1.02.38,1.78,1.12.72.72,1.06,1.24,1.06,1.62,0,.26-.14.48-.38.6-.14.08-.16.08-.54.18-.3.1-.62.3-2.94,2-2.1,1.54-2.66,1.94-3.66,2.6.54.38,1.1.9,1.42,1.32.36.46.48.8.48,1.38,0,1.06-.52,1.86-1.2,1.86-.4,0-.62-.22-.92-.94-.38-.88-1.3-2.36-2.14-3.44-.72-.92-1.38-1.58-2.46-2.44l.14-.2Z"/>
  <path class="cls-1" d="M342.5,4.2c.52.12.94.16,1.44.16h3.02c.58-.66.76-.86,1.34-1.5.86.68,1.14.88,1.98,1.6.08.08.12.14.12.18,0,.08-.1.14-.24.14h-6.18c-.5,0-.8.02-1.34.12l-.14-.7ZM343.1,1.6c.48.12.94.18,1.3.18h2.22l1.3-1.44c.84.66,1.1.86,1.88,1.56.08.08.1.14.1.18,0,.08-.1.12-.24.12h-5.2c-.54,0-.78.02-1.22.12l-.14-.72ZM343.14,9.34c.5.12.92.16,1.38.16h1.96c.52-.58.68-.76,1.2-1.34.8.64,1.06.82,1.84,1.46.08.1.1.14.1.18,0,.08-.08.12-.2.12h-4.9c-.54,0-.76.02-1.24.1l-.14-.68ZM346.42,6.9c.54-.6.72-.78,1.24-1.38.82.66,1.06.86,1.86,1.54.06.06.08.08.08.18,1.78-2.06,3.22-4.76,3.68-6.9.66.14,1.18.26,1.5.32,1.24.26,1.58.4,1.58.6,0,.16-.18.28-.72.4.72,1.38,1.36,2.04,2.74,2.88,1.14.68,2.04,1.04,3.34,1.32l-.04.22c-.56.22-.8.5-1.14,1.3-.08.18-.14.38-.24.68-.04.1-.1.16-.18.16-.1,0-.26-.08-.56-.3-1.1-.72-2.16-1.84-2.9-3.04-.52-.84-.86-1.58-1.34-2.92-1.02,1.82-1.94,2.98-3.34,4.24-.9.8-1.68,1.36-3.18,2.2l-.16-.18c.48-.46.62-.6.9-.92l-.12.02h-4.96c-.38,0-.66.02-1.16.12l-.12-.7c.48.12.8.16,1.28.16h1.96ZM345.26,18.1c0,.44-.22.52-1.3.52-.58,0-.74-.08-.74-.36v-.06c.02-1.48.04-3.3.04-4.12,0-.98-.02-1.92-.08-3.06,1,.48,1.3.64,2.28,1.22h1.5c.44-.48.58-.64,1-1.1.68.48.88.64,1.52,1.12.18.16.24.24.24.32,0,.14-.1.22-.6.54v2.9q.02,1.18.02,1.64c0,.22-.04.32-.14.38-.16.1-.64.18-1.18.18-.58,0-.68-.06-.7-.36v-.62h-1.86v.86ZM345.26,16.82h1.86v-4.16h-1.86v4.16ZM348.94,18.18c2.46-.88,4.24-1.84,6.18-3.3,1.6-1.22,2.72-2.32,3.34-3.3.56.32.98.56,1.26.72,1.12.64,1.26.76,1.26.94,0,.14-.16.24-.44.24-.16,0-.3,0-.52-.02-2.04,1.82-3.66,2.82-6,3.72-1.56.58-2.86.9-5,1.24l-.08-.24ZM349.58,10.56c1.56-1,2.6-1.82,3.8-3.02.88-.88,1.24-1.32,1.66-2.06,1.78,1.08,2.32,1.46,2.32,1.62s-.18.24-.52.24c-.1,0-.24,0-.44-.02-2.34,1.78-3.8,2.54-6.68,3.46l-.14-.22ZM349.78,13.96c2.34-1.2,3.62-2.04,5.12-3.36,1.12-.98,1.56-1.48,1.98-2.18,1.78,1.12,2.32,1.5,2.32,1.68,0,.14-.18.24-.4.24-.18,0-.36-.02-.6-.04-1.48,1.24-2.5,1.86-4.12,2.56-1.2.52-2.26.84-4.18,1.32l-.12-.22Z"/>
  <path class="cls-1" d="M378.73,10.62c.02.54.02.96.04,1.3,0,.46,0,.48.02.94,0,.24-.06.34-.24.42-.16.06-.78.14-1.24.14-.4,0-.5-.08-.52-.36v-.44h-1.68v1.86q.02,1.74.02,2.6c0,.94-.32,1.32-1.4,1.6-.32.08-.88.16-1.22.16-.2,0-.24-.04-.28-.36-.08-.9-.54-1.24-2.08-1.64v-.26c1.7.1,1.74.1,2.68.12.22,0,.26-.06.26-.28v-3.8h-1.68v.26c-.02.2-.08.3-.26.36-.14.04-.78.1-1.18.1s-.52-.08-.54-.32q0-.48.02-1.16.02-.4.02-1.18v-1.26c-.72.42-1.02.56-2.06,1-.24,1.86-.66,3.26-1.32,4.58-.38.74-.92,1.52-1.62,2.36-.38.46-.62.7-1.28,1.26l-.2-.16c1.5-2.56,2.28-5.14,2.52-8.48-.44.62-.72.96-1.6,1.96-.02.68-.1.92-.3.92s-.22-.02-1.1-2.64c1.02-.24,1.92-.6,3.06-1.2.06-1,.08-2.06.08-3.58,0-2.1-.04-3.14-.14-4.6,1.1.54,1.44.72,2.48,1.34h4.14v-.7c0-.56-.02-.84-.1-1.48,2.74.24,3,.28,3,.58,0,.16-.22.28-.72.44v1.16h3.64c.6-.7.8-.9,1.4-1.56.94.7,1.22.92,2.1,1.66.1.08.14.14.14.2s-.1.12-.22.12h-13.62c0,1-.02,1.28-.04,1.98h4.2c.36-.78.46-1.04.6-1.76,2.36.44,2.44.44,2.66.58.08.04.14.14.14.2,0,.18-.24.28-.86.36-.16.3-.18.34-.34.62h4c.52-.58.68-.76,1.18-1.32.82.58,1.08.76,1.84,1.36.12.12.16.18.16.24,0,.08-.12.14-.3.14h-5.84c.7.96,1.1,1.34,1.86,1.86.5-.6.86-1.16,1.22-1.84.72.34,1.54.78,1.94,1.02.16.1.22.16.22.26,0,.12-.14.18-.36.18-.08,0-.36-.02-.54-.04q-.46.18-1.52.64c-.08.02-.2.06-.36.12,1.32.68,2.6,1.02,4.14,1.1l-.02.22c-.48.26-.72.52-.98,1.06-.06.14-.14.32-.18.5-.04.16-.1.2-.22.2-.22,0-.86-.28-1.64-.72l.02,1.06ZM362.86,3.62c1.72,1.18,2.52,2.12,2.52,2.98,0,.68-.76,1.58-1.32,1.58-.28,0-.42-.22-.46-.72-.04-.48-.12-1.06-.26-1.7-.2-1.04-.3-1.32-.66-2l.18-.14ZM365.82,18.14c1.18-1,1.84-1.68,2.6-2.72.54-.76.8-1.18,1.12-1.9.56.2,1,.36,1.28.46,1.12.42,1.36.54,1.36.74s-.26.28-.9.3c-1.86,1.66-2.9,2.32-5.32,3.3l-.14-.18ZM367.7,5c-.02.7-.04,1.22-.04,1.56-.06,2.02-.06,2.14-.22,3.52,1.82-1.34,3.14-2.92,4.26-5.08h-4ZM368.06,5.38c1.56.42,2.18.82,2.18,1.4s-.46,1.2-.9,1.2c-.22,0-.24-.06-.42-.6-.26-.82-.46-1.24-.96-1.88l.1-.12ZM376.79,10.02v-1.62h-5.38v1.62h5.38ZM376.79,12.2v-1.76h-5.38v1.76h5.38ZM376.59,7.96c-.88-.96-1.32-1.68-1.82-2.96h-.92c-.72,1.18-1.4,2.04-2.38,2.94l.06.04h5.04l.02-.02ZM376.05,13.8c3.52,1.04,4.6,1.68,4.6,2.72,0,.84-.58,1.72-1.14,1.72-.22,0-.32-.12-.72-.84-.68-1.28-1.52-2.26-2.84-3.42l.1-.18Z"/>
  <path class="cls-1" d="M383.84,18.04h4.8v-9.9h.86v10.76h-5.66v-.86Z"/>
  <path class="cls-1" d="M395.46,5.18c.64,0,1.36-.16,5.38-1.18,1-.26,1.7-.42,4.44-1.02.8-.18,1.04-.26,1.62-.52.28-.12.54-.18.76-.18.36,0,1,.24,1.48.56.52.34.78.72.78,1.1,0,.48-.38.78-.98.78-.12,0-.3-.02-.52-.04-.26-.02-.34-.02-.58-.02-1.84,0-3.56.8-4.8,2.26-1.04,1.16-1.58,2.54-1.58,3.92,0,1.7.88,3.02,2.42,3.6.5.2,1.12.32,1.6.32.04,0,.1,0,.22-.02h.2c.38,0,.74.14,1.04.42.5.44.78.98.78,1.44,0,.64-.44.94-1.4.94-1.46,0-3.12-.58-4.26-1.5-1.36-1.1-2.08-2.64-2.08-4.46,0-1.7.82-3.52,2.24-5.02.78-.82,1.48-1.34,3.2-2.3-1.72.38-3.68.96-5.4,1.6-1.72.64-2.14.84-2.94,1.36-.36.24-.68.34-1,.34-1.08,0-2.6-1.9-2.6-3.22,0-.18.04-.32.16-.58.46.98,1.04,1.42,1.82,1.42ZM406.29,6.42c.72.24,1.48.54,2.12.9.72.4,1.04.82,1.04,1.4s-.36,1.08-.76,1.08c-.18,0-.32-.14-.48-.46-.66-1.38-1.1-1.96-2.04-2.74l.12-.18ZM408.25,5.48c.74.12,1.4.3,2.04.6.82.36,1.2.8,1.2,1.42,0,.58-.32,1.06-.7,1.06-.18,0-.3-.12-.44-.44-.52-1.1-1.12-1.78-2.18-2.5l.08-.14Z"/>
  <path class="cls-1" d="M412.8,4.2c.52.12.94.16,1.44.16h3.02c.58-.66.76-.86,1.34-1.5.86.68,1.14.88,1.98,1.6.08.08.12.14.12.18,0,.08-.1.14-.24.14h-6.18c-.5,0-.8.02-1.34.12l-.14-.7ZM413.4,1.6c.48.12.94.18,1.3.18h2.22l1.3-1.44c.84.66,1.1.86,1.88,1.56.08.08.1.14.1.18,0,.08-.1.12-.24.12h-5.2c-.54,0-.78.02-1.22.12l-.14-.72ZM413.44,9.34c.5.12.92.16,1.38.16h1.96c.52-.58.68-.76,1.2-1.34.8.64,1.06.82,1.84,1.46.08.1.1.14.1.18,0,.08-.08.12-.2.12h-4.9c-.54,0-.76.02-1.24.1l-.14-.68ZM416.72,6.9c.54-.6.72-.78,1.24-1.38.82.66,1.06.86,1.86,1.54.06.06.08.08.08.18,1.78-2.06,3.22-4.76,3.68-6.9.66.14,1.18.26,1.5.32,1.24.26,1.58.4,1.58.6,0,.16-.18.28-.72.4.72,1.38,1.36,2.04,2.74,2.88,1.14.68,2.04,1.04,3.34,1.32l-.04.22c-.56.22-.8.5-1.14,1.3-.08.18-.14.38-.24.68-.04.1-.1.16-.18.16-.1,0-.26-.08-.56-.3-1.1-.72-2.16-1.84-2.9-3.04-.52-.84-.86-1.58-1.34-2.92-1.02,1.82-1.94,2.98-3.34,4.24-.9.8-1.68,1.36-3.18,2.2l-.16-.18c.48-.46.62-.6.9-.92l-.12.02h-4.96c-.38,0-.66.02-1.16.12l-.12-.7c.48.12.8.16,1.28.16h1.96ZM415.56,18.1c0,.44-.22.52-1.3.52-.58,0-.74-.08-.74-.36v-.06c.02-1.48.04-3.3.04-4.12,0-.98-.02-1.92-.08-3.06,1,.48,1.3.64,2.28,1.22h1.5c.44-.48.58-.64,1-1.1.68.48.88.64,1.52,1.12.18.16.24.24.24.32,0,.14-.1.22-.6.54v2.9q.02,1.18.02,1.64c0,.22-.04.32-.14.38-.16.1-.64.18-1.18.18-.58,0-.68-.06-.7-.36v-.62h-1.86v.86ZM415.56,16.82h1.86v-4.16h-1.86v4.16ZM419.24,18.18c2.46-.88,4.24-1.84,6.18-3.3,1.6-1.22,2.72-2.32,3.34-3.3.56.32.98.56,1.26.72,1.12.64,1.26.76,1.26.94,0,.14-.16.24-.44.24-.16,0-.3,0-.52-.02-2.04,1.82-3.66,2.82-6,3.72-1.56.58-2.86.9-5,1.24l-.08-.24ZM419.88,10.56c1.56-1,2.6-1.82,3.8-3.02.88-.88,1.24-1.32,1.66-2.06,1.78,1.08,2.32,1.46,2.32,1.62s-.18.24-.52.24c-.1,0-.24,0-.44-.02-2.34,1.78-3.8,2.54-6.68,3.46l-.14-.22ZM420.08,13.96c2.34-1.2,3.62-2.04,5.12-3.36,1.12-.98,1.56-1.48,1.98-2.18,1.78,1.12,2.32,1.5,2.32,1.68,0,.14-.18.24-.4.24-.18,0-.36-.02-.6-.04-1.48,1.24-2.5,1.86-4.12,2.56-1.2.52-2.26.84-4.18,1.32l-.12-.22Z"/>
  <path class="cls-1" d="M449.03,10.62c.02.54.02.96.04,1.3,0,.46,0,.48.02.94,0,.24-.06.34-.24.42-.16.06-.78.14-1.24.14-.4,0-.5-.08-.52-.36v-.44h-1.68v1.86q.02,1.74.02,2.6c0,.94-.32,1.32-1.4,1.6-.32.08-.88.16-1.22.16-.2,0-.24-.04-.28-.36-.08-.9-.54-1.24-2.08-1.64v-.26c1.7.1,1.74.1,2.68.12.22,0,.26-.06.26-.28v-3.8h-1.68v.26c-.02.2-.08.3-.26.36-.14.04-.78.1-1.18.1s-.52-.08-.54-.32q0-.48.02-1.16.02-.4.02-1.18v-1.26c-.72.42-1.02.56-2.06,1-.24,1.86-.66,3.26-1.32,4.58-.38.74-.92,1.52-1.62,2.36-.38.46-.62.7-1.28,1.26l-.2-.16c1.5-2.56,2.28-5.14,2.52-8.48-.44.62-.72.96-1.6,1.96-.02.68-.1.92-.3.92s-.22-.02-1.1-2.64c1.02-.24,1.92-.6,3.06-1.2.06-1,.08-2.06.08-3.58,0-2.1-.04-3.14-.14-4.6,1.1.54,1.44.72,2.48,1.34h4.14v-.7c0-.56-.02-.84-.1-1.48,2.74.24,3,.28,3,.58,0,.16-.22.28-.72.44v1.16h3.64c.6-.7.8-.9,1.4-1.56.94.7,1.22.92,2.1,1.66.1.08.14.14.14.2s-.1.12-.22.12h-13.62c0,1-.02,1.28-.04,1.98h4.2c.36-.78.46-1.04.6-1.76,2.36.44,2.44.44,2.66.58.08.04.14.14.14.2,0,.18-.24.28-.86.36-.16.3-.18.34-.34.62h4c.52-.58.68-.76,1.18-1.32.82.58,1.08.76,1.84,1.36.12.12.16.18.16.24,0,.08-.12.14-.3.14h-5.84c.7.96,1.1,1.34,1.86,1.86.5-.6.86-1.16,1.22-1.84.72.34,1.54.78,1.94,1.02.16.1.22.16.22.26,0,.12-.14.18-.36.18-.08,0-.36-.02-.54-.04q-.46.18-1.52.64c-.08.02-.2.06-.36.12,1.32.68,2.6,1.02,4.14,1.1l-.02.22c-.48.26-.72.52-.98,1.06-.06.14-.14.32-.18.5-.04.16-.1.2-.22.2-.22,0-.86-.28-1.64-.72l.02,1.06ZM433.16,3.62c1.72,1.18,2.52,2.12,2.52,2.98,0,.68-.76,1.58-1.32,1.58-.28,0-.42-.22-.46-.72-.04-.48-.12-1.06-.26-1.7-.2-1.04-.3-1.32-.66-2l.18-.14ZM436.12,18.14c1.18-1,1.84-1.68,2.6-2.72.54-.76.8-1.18,1.12-1.9.56.2,1,.36,1.28.46,1.12.42,1.36.54,1.36.74s-.26.28-.9.3c-1.86,1.66-2.9,2.32-5.32,3.3l-.14-.18ZM438,5c-.02.7-.04,1.22-.04,1.56-.06,2.02-.06,2.14-.22,3.52,1.82-1.34,3.14-2.92,4.26-5.08h-4ZM438.36,5.38c1.56.42,2.18.82,2.18,1.4s-.46,1.2-.9,1.2c-.22,0-.24-.06-.42-.6-.26-.82-.46-1.24-.96-1.88l.1-.12ZM447.09,10.02v-1.62h-5.38v1.62h5.38ZM447.09,12.2v-1.76h-5.38v1.76h5.38ZM446.89,7.96c-.88-.96-1.32-1.68-1.82-2.96h-.92c-.72,1.18-1.4,2.04-2.38,2.94l.06.04h5.04l.02-.02ZM446.35,13.8c3.52,1.04,4.6,1.68,4.6,2.72,0,.84-.58,1.72-1.14,1.72-.22,0-.32-.12-.72-.84-.68-1.28-1.52-2.26-2.84-3.42l.1-.18Z"/>
  <path class="cls-1" d="M465.85,1.5c.54-.56.72-.72,1.3-1.26,1,.72,1.3.94,2.24,1.72.22.2.32.32.32.44,0,.16-.24.26-.6.26h-.66c-1.46,1-2.66,1.68-4.36,2.48.4.36.54.6.54,1.02,0,.56-.24,1-.74,1.34h4.32c.54-.6.72-.78,1.28-1.34,1.02.74,1.32.98,2.24,1.76.2.2.3.32.3.42,0,.26-.3.34-1.32.36-1.84,1.38-3.18,2.24-5.02,3.18l-.18-.22c1.1-1.22,1.86-2.26,2.74-3.74h-4.44v3.26c0,.74.02,2.92.04,4.82,0,.08.02.18.02.2,0,1.3-.44,1.8-1.8,2.16-.46.12-.98.2-1.26.2-.22,0-.26-.04-.3-.34-.06-.6-.32-1-.8-1.28-.46-.28-.94-.4-3.04-.88l.02-.3c2.04.14,2.68.18,4.42.22.3-.02.38-.1.38-.38v-7.68h-5.58c-.64,0-1.4.06-1.94.14l-.14-.76c.78.14,1.34.2,2.12.2h7.04c-.16-.12-.2-.18-.48-.62-.82-1.32-1.88-2.42-3.54-3.66l.16-.18c1.86.5,3.14,1,4.4,1.72.8-.86,1.4-1.6,2.26-2.84h-7.92c-.8,0-1.38.04-2.04.14l-.14-.74c.74.14,1.24.18,2.08.18h8.08Z"/>
  <path class="cls-1" d="M477.06,9.8q-1.06.3-2.04.54c-.08.46-.18.64-.34.64-.22,0-.22-.06-.78-2.46.7.04.9.04,1.48.04.08,0,.24,0,.48-.02.82-1.06,1.22-1.6,1.76-2.46.9-1.42,1.52-2.6,1.86-3.52.58.22,1.04.4,1.34.52.96.36,1.26.52,1.26.68,0,.22-.22.3-.9.34-1.62,1.94-2.62,2.92-4.5,4.4,1.4-.06,2.62-.14,3.28-.22-.22-.68-.36-.94-.84-1.68l.16-.16c.94.6,1.38.92,2.06,1.56.68-1.36.94-2,1.32-3.22.52-1.7.82-3.2.9-4.6.68.12,1.22.24,1.54.3,1.3.24,1.7.38,1.7.6s-.28.34-.86.4c-.52,1.28-.78,1.8-1.26,2.7h4.58c.48-.54.64-.7,1.14-1.24.8.56,1.02.72,1.74,1.28.18.16.24.26.24.36,0,.16-.18.32-.68.56-.24,6.32-.32,7.32-.68,9.4-.34,1.96-.64,2.72-1.28,3.26-.46.4-1.04.64-1.92.76-.24.04-.44.06-.56.06-.22,0-.28-.08-.3-.36-.02-.54-.26-.94-.7-1.26-.42-.26-.76-.38-2.66-.94l.02-.26c2.6.22,3.24.26,4.08.26.62,0,.78-.24,1.06-1.54.42-1.94.74-6,.74-9.3,0-.14,0-.34-.02-.62h-5.04c-1.06,1.78-1.64,2.52-2.86,3.64.42.46.54.7.54,1.1,0,.72-.64,1.44-1.26,1.44-.26,0-.4-.22-.5-.8-.06-.38-.12-.66-.22-1.08q-.88.3-1.2.38v4.22c0,.94.02,2.96.04,4.64,0,.18-.02.26-.06.32-.12.18-.52.26-1.28.26-.56,0-.7-.08-.7-.4.08-3,.12-4.62.12-4.82v-1.08c-.16.04-.2.04-.38.08-.92,2.6-1.6,3.9-2.8,5.42l-.2-.12c.66-1.88,1.14-4.48,1.14-6.1v-.44c1.12.28,1.56.38,2.24.6v-2.06ZM474.12,3.04c.8.28,1.08.4,1.68.7.64-1.48.94-2.48,1.1-3.58,2.58.68,3.08.86,3.08,1.12,0,.2-.24.28-.94.34-1.52,1.4-2.38,2.18-2.72,2.4.9.54,1.1.82,1.1,1.42,0,.76-.54,1.46-1.12,1.46-.3,0-.4-.14-.66-.94-.38-1.16-.7-1.7-1.66-2.76l.14-.16ZM479.34,11.02c.88.64,1.24.94,1.7,1.44.6.64.96,1.42.96,2.04,0,.84-.7,1.84-1.3,1.84-.18,0-.3-.1-.38-.28q-.06-.16-.12-1.08c-.14-1.62-.4-2.7-.98-3.82l.12-.14ZM483.62,6.96c2.54,1.52,3.6,2.62,3.6,3.72,0,.96-.76,1.94-1.5,1.94-.32,0-.48-.24-.56-.84-.1-.66-.36-1.72-.58-2.38-.26-.74-.52-1.28-1.12-2.28l.16-.16Z"/>
  <path class="cls-1" d="M498.36,14.1c1.56.78,2.48,1.14,2.88,1.14.42,0,.7-.26,1.04-.96.84-1.7,1.46-4.3,1.46-6.08,0-1.16-.32-1.62-1.16-1.62-.5,0-.96.1-1.76.36-1.9,4.64-3,7.28-3.26,7.92-.92,2.12-1.28,2.62-1.84,2.62s-.94-.76-.94-1.88c0-.7.1-.98.58-1.44.94-.98,2.06-3.02,3.64-6.68-1.12.48-1.66.74-2.18,1.06-.3.18-.42.22-.6.22-.36,0-.76-.28-1.12-.76-.4-.58-.68-1.32-.68-1.84,0-.16.02-.28.12-.52.42.88.94,1.24,1.76,1.24.52,0,1.5-.2,3.08-.6.42-1.2.7-2.44.7-3.2,0-.82-.48-1.32-1.62-1.7.34-.18.5-.22.78-.22.44,0,1.18.12,1.74.3,1.14.36,1.74.82,1.74,1.36,0,.18-.06.36-.26.68-.42.64-.64,1.08-1.24,2.48.68-.14,1-.18,1.46-.18.96,0,1.72.3,2.16.9.48.62.66,1.38.66,2.74,0,2.46-.92,5.6-2.02,6.96-.66.82-1.58,1.3-2.5,1.3-.3,0-.56-.12-.68-.32q-.1-.16-.14-.76c-.04-.46-.6-1.14-1.94-2.3l.14-.22ZM506.93,5.72c1.66.3,2.84.9,3.94,1.98,1,1,1.54,2.18,1.54,3.4s-.52,1.98-1.4,1.98c-.32,0-.54-.1-.88-.4-.44-.4-.82-.46-3.08-.48l-.04-.18c1.64-.44,2.58-.72,2.94-.9.1-.06.14-.14.14-.3,0-.42-.24-1.36-.52-1.98-.62-1.42-1.46-2.3-2.74-2.9l.1-.22ZM507.79,2.7c.78.18,1.52.44,2.18.78.92.48,1.22.84,1.22,1.44,0,.56-.32,1.02-.7,1.02-.22,0-.38-.14-.62-.58-.54-1.02-1.32-1.92-2.18-2.5l.1-.16ZM509.41,1.26c1,.12,1.82.36,2.52.72.68.36.92.68.92,1.22s-.28,1-.6,1c-.18,0-.32-.12-.52-.48-.64-1-1.42-1.78-2.38-2.32l.06-.14Z"/>
  <path class="cls-1" d="M516.26,5.18c.64,0,1.36-.16,5.38-1.18,1-.26,1.7-.42,4.44-1.02.8-.18,1.04-.26,1.62-.52.28-.12.54-.18.76-.18.36,0,1,.24,1.48.56.52.34.78.72.78,1.1,0,.48-.38.78-.98.78-.12,0-.3-.02-.52-.04-.26-.02-.34-.02-.58-.02-1.84,0-3.56.8-4.8,2.26-1.04,1.16-1.58,2.54-1.58,3.92,0,1.7.88,3.02,2.42,3.6.5.2,1.12.32,1.6.32.04,0,.1,0,.22-.02h.2c.38,0,.74.14,1.04.42.5.44.78.98.78,1.44,0,.64-.44.94-1.4.94-1.46,0-3.12-.58-4.26-1.5-1.36-1.1-2.08-2.64-2.08-4.46,0-1.7.82-3.52,2.24-5.02.78-.82,1.48-1.34,3.2-2.3-1.72.38-3.68.96-5.4,1.6-1.72.64-2.14.84-2.94,1.36-.36.24-.68.34-1,.34-1.08,0-2.6-1.9-2.6-3.22,0-.18.04-.32.16-.58.46.98,1.04,1.42,1.82,1.42ZM527.09,6.42c.72.24,1.48.54,2.12.9.72.4,1.04.82,1.04,1.4s-.36,1.08-.76,1.08c-.18,0-.32-.14-.48-.46-.66-1.38-1.1-1.96-2.04-2.74l.12-.18ZM529.05,5.48c.74.12,1.4.3,2.04.6.82.36,1.2.8,1.2,1.42,0,.58-.32,1.06-.7,1.06-.18,0-.3-.12-.44-.44-.52-1.1-1.12-1.78-2.18-2.5l.08-.14Z"/>
  <path class="cls-1" d="M534.66,3.86c.92.64,1.68.88,2.78.88.9,0,2.32-.24,3.4-.58-.48-.82-1.2-1.7-1.64-2.02-.36-.28-.98-.44-1.64-.44h-.28c.22-.44.44-.58,1.12-.74.4-.1.84-.14,1.34-.14.84,0,1.44.12,1.7.38.22.18.24.26.3.86.02.36.16.72.64,1.64,1.6-.6,2.08-.86,2.68-1.46.14-.14.4-.22.76-.22.84,0,1.36.3,1.36.76,0,.58-.88,1.02-4.16,2.12q.16.26.36.6c.1.18.36.64.8,1.4,1.22-.46,1.76-.7,2.26-1.04-.4-.42-.56-.56-1.18-1.12l.12-.16c.72.36,1.26.52,1.74.52q.12,0,.6-.08c.08-.02.14-.02.2-.02.48,0,.8.3.8.74,0,.76-1,1.38-3.86,2.42.52.9.6,1.04.8,1.4q.44.76.86,1.46c.36.58.48.94.48,1.36,0,.52-.16,1.1-.38,1.4-.16.24-.4.36-.68.36-.26,0-.44-.1-.74-.38-.64-.64-.86-.78-1.44-1.06-1.04-.5-2.24-.78-3.3-.78-1.94,0-3.3.82-3.3,2.02s1.24,1.82,3.54,1.82c.82,0,1.18-.04,2.2-.3.18-.06.36-.08.48-.08.84,0,1.8.8,1.8,1.52,0,.34-.22.6-.64.72-.56.18-1.54.28-2.72.28-2.3,0-3.9-.38-4.98-1.2-.74-.58-1.18-1.4-1.18-2.26,0-1.94,2.22-3.3,5.36-3.3,1.1,0,2.26.12,3.82.4-.2-.72-.62-1.68-1.32-3-1.48.48-3.1.76-4.44.76-1.68,0-2.62-.6-3.42-2.2l.18-.14c.76.88,1.44,1.2,2.52,1.2,1.22,0,2.74-.28,4.52-.82-.34-.66-.72-1.28-1.22-2.02-1.38.38-2.6.58-3.6.58-1.42,0-2.62-.64-3.56-1.88l.16-.16Z"/>
  <path class="cls-1" d="M552.44,3.72c1.12,1.02,1.92,1.3,3.58,1.3.8,0,1.72-.08,2.62-.2-.02-1.14-.1-2.06-.24-2.5-.18-.64-.76-.98-1.72-1.06.34-.34.62-.42,1.32-.42.78,0,1.7.14,2.26.36.58.22.84.5.84.88,0,.2-.04.34-.26.72-.26.48-.3.7-.44,1.7,1.84-.38,2.46-.6,3.22-1.12.2-.12.36-.18.54-.18.38,0,1,.2,1.32.46.24.16.36.38.36.58,0,.38-.34.62-1.18.88-1.18.34-2.72.66-4.38.9-.04.58-.04.86-.04,1.22v1.34c1.28-.2,2.42-.56,2.96-.94.3-.2.36-.22.58-.22.4,0,.96.18,1.26.4.22.16.3.3.3.52,0,.44-.44.7-1.74,1.06-1.02.28-2.38.54-3.32.64.1,2.08.1,2.16.22,2.94,1.6.3,3.02.8,4.02,1.44.84.54,1.18,1.08,1.18,1.88,0,.72-.3,1.18-.74,1.18-.3,0-.36-.04-.96-.66-.84-.86-2.16-1.66-3.4-2.08.04.34.04.48.04.72,0,.84-.26,1.44-.84,1.88-.6.44-1.62.72-2.7.72-2.26,0-3.94-1.04-3.94-2.44,0-1.64,2.16-2.78,5.22-2.78h.34v-2.66c-.86.04-1.04.04-1.3.04-2.52,0-3.8-.72-3.8-2.12,0-.18.02-.36.1-.72l.2.02c.04.56.12.82.34,1.04.32.36,1.1.54,2.32.54.68,0,1.24-.04,2.14-.14,0-.44-.02-2.02-.02-2.68-.62.06-1.2.08-1.74.08-2.48,0-3.58-.54-4.7-2.38l.18-.14ZM556.94,14.16c-1.84,0-3.1.6-3.1,1.46,0,.68.78,1.08,2.08,1.08,1.2,0,2.2-.36,2.52-.9.16-.3.22-.62.22-1.48-.7-.12-1.14-.16-1.72-.16Z"/>
  <path class="cls-1" d="M573.66,18.46c1.08-.56,1.76-1.02,2.46-1.72.94-.94,1.4-1.78,1.72-3.14-.38.24-.76.36-1.24.36-1.52,0-2.68-1.4-2.68-3.26s1.18-3.22,2.84-3.22c.42,0,.66.06,1.22.34v-.96c0-.48,0-.64-.02-1.34-2.68.32-4.74.86-6.24,1.64-.14.06-.4.12-.58.12-.58,0-1.18-.44-1.74-1.24-.38-.58-.62-1.16-.62-1.58,0-.08.02-.18.08-.34.58.82,1.24,1.18,2.14,1.18q.6,0,4.16-.52c.8-.12,1.4-.18,2.76-.34-.04-1.52-.14-2.16-.42-2.54-.32-.44-.82-.7-1.74-.84.36-.32.62-.4,1.26-.4.76,0,1.54.12,2.26.34.78.26,1.14.58,1.14,1.04,0,.2-.04.34-.2.62-.3.54-.34.72-.44,1.54,2.78-.24,2.94-.26,3.62-.56.36-.16.56-.2.86-.2.54,0,1.42.38,1.94.84.26.22.36.42.36.74,0,.36-.3.6-.72.6-.18,0-.48-.04-1.18-.14-1.14-.14-2-.2-3.28-.2-.68,0-1.02.02-1.7.08-.08,1.06-.14,2.36-.14,3.1v.42c.52.98.7,1.68.7,2.78,0,2.28-.96,4.18-2.78,5.46-.94.66-1.82,1.04-3.7,1.58l-.1-.24ZM576.66,8.06c-.8,0-1.42.84-1.42,1.92,0,1.26.6,2.14,1.48,2.14.78,0,1.24-.64,1.24-1.74,0-1.48-.48-2.32-1.3-2.32Z"/>
  <path class="cls-1" d="M591.3,16.22c0,1.5-1.2,2.72-2.7,2.72s-2.7-1.22-2.7-2.72,1.22-2.7,2.7-2.7,2.7,1.2,2.7,2.7ZM586.62,16.22c0,1.08.9,1.98,1.98,1.98s1.98-.9,1.98-1.98-.88-1.98-1.98-1.98-1.98.88-1.98,1.98Z"/>
</svg>