<?xml version="1.0" encoding="UTF-8"?>
<svg id="_レイヤー_2" data-name="レイヤー 2" xmlns="http://www.w3.org/2000/svg" viewBox="0 0 328.51 61.49">
  <defs>
    <style>
      .cls-1 {
        fill: #595757;
        stroke-width: 0px;
      }
    </style>
  </defs>
  <g id="_診療予約" data-name="診療予約">
    <g>
      <path class="cls-1" d="M10.43,1.14h-6.24v12.87h-1.12V.03h7.36v1.12Z"/>
      <path class="cls-1" d="M20.67,23.95c1.77-1.95,2.89-3.72,3.9-6.21.73-1.85,1.33-4.32,1.33-5.54,0-.62-.08-.86-.42-1.22-1.82.26-4.06.88-5.43,1.56-.49.26-.78.34-1.12.34-.65,0-1.43-.57-2.29-1.72-.52-.65-.73-1.14-.73-1.64,0-.13.03-.23.1-.52.65.96,1.46,1.43,2.5,1.43.81,0,1.04-.03,4.91-.62,2.18-.34,4.81-.68,7.9-1.01,1.01-.1,1.56-.23,2.26-.55.31-.16.52-.21.75-.21.42,0,1.04.21,1.66.55.99.49,1.48,1.04,1.48,1.56,0,.55-.42.88-1.09.88-.08,0-.18,0-.47-.05-1.51-.26-3.35-.42-4.89-.42-1.33,0-2.39.05-3.77.21,1.48.86,1.77,1.17,1.77,1.85,0,1.14-1.09,3.95-2.29,5.9-1.48,2.39-3.28,4.11-5.88,5.64l-.21-.21ZM20.31,2.81c1.01,1.01,1.92,1.43,3.17,1.43.99,0,2.31-.21,3.61-.6.96-.29,1.33-.42,2.29-.99.36-.18.52-.23.83-.23.39,0,.81.16,1.38.55.65.42.96.83.96,1.27,0,.49-.36.75-1.51,1.01-1.77.42-4.81.78-6.45.78-2.03,0-3.38-.91-4.52-3.04l.23-.18ZM32.76,1.59c1.38.47,2.26.91,3.15,1.48.81.52,1.14,1.07,1.14,1.77s-.42,1.27-.94,1.27c-.26,0-.47-.18-.7-.68-.75-1.56-1.46-2.5-2.78-3.64l.13-.21ZM35.13.03c3.09.75,4.37,1.59,4.37,2.83,0,.65-.39,1.22-.83,1.22-.21,0-.36-.16-.6-.55-.81-1.46-1.64-2.37-3.07-3.33l.13-.18Z"/>
      <path class="cls-1" d="M44.2,8.81c2.18.21,4.21.73,5.23,1.35.78.49,1.12,1.04,1.12,1.9,0,1.04-.55,1.82-1.27,1.82-.42,0-.6-.16-1.04-.83-.39-.65-1.3-1.74-1.92-2.34-.62-.6-1.2-1.01-2.21-1.66l.1-.23ZM65.26,7.88c-2.6,4.52-7.33,9.02-13.62,12.92-1.3.81-1.66,1.07-2.13,1.53-.21.21-.49.34-.75.34-1.3,0-3.54-2.91-3.54-4.6,0-.26.05-.44.18-.78.57,1.12,1.51,1.9,2.29,1.9.83,0,2.78-.88,5.62-2.55,4.45-2.63,8.48-5.69,11.73-8.94l.23.18ZM47.17,3.85c2.57.29,4.34.78,5.41,1.51.7.49.99,1.01.99,1.82,0,1.01-.57,1.82-1.27,1.82-.44,0-.57-.13-1.12-.99-1.01-1.61-2.5-3.02-4.13-3.93l.13-.23ZM58.24,2.39c3.09,1.12,4.34,2.03,4.34,3.22,0,.7-.42,1.3-.94,1.3-.29,0-.49-.18-.7-.62-.86-1.69-1.48-2.52-2.83-3.69l.13-.21ZM60.66.73c3.04.65,4.45,1.59,4.45,2.96,0,.6-.42,1.17-.83,1.17-.26,0-.42-.16-.68-.6-.73-1.38-1.64-2.37-3.04-3.35l.1-.18Z"/>
      <path class="cls-1" d="M69.63,22c2.44-1.46,5.43-4.03,7.72-6.63,2.65-3.02,5.25-6.97,6.45-9.78-2.03.26-5.56,1.27-6.97,2.03-.52.26-.68.31-.99.31-.6,0-1.2-.47-1.87-1.46-.55-.83-.86-1.61-.86-2.24,0-.26.03-.36.18-.65.78,1.3,1.48,1.77,2.73,1.77.81,0,3.3-.36,5.64-.83,1.72-.34,1.87-.42,2.52-.83.29-.18.44-.23.7-.23.39,0,1.14.47,1.9,1.17.57.55.83.94.83,1.3,0,.26-.1.44-.42.65-.57.44-.73.62-1.51,1.9-1.27,2-1.85,2.78-3.28,4.6,3.41,1.48,5.56,2.73,6.73,3.87.75.73,1.09,1.56,1.09,2.6,0,1.33-.6,2.31-1.4,2.31-.44,0-.75-.31-1.07-1.04-1.27-2.78-3.09-5.04-5.82-7.15-2.11,2.52-3.9,4.13-6.21,5.69-1.9,1.27-3.33,1.98-5.95,2.91l-.16-.29Z"/>
      <path class="cls-1" d="M101.69,12.45c2.11.83,3.74,1.64,5.2,2.6,3.17-3.25,6.29-6.99,6.29-7.62,0-.16-.13-.21-.49-.21-1.14,0-4.65.57-7.7,1.25-2.52.57-3.8.99-5.1,1.64-.31.18-.55.23-.81.23-.68,0-1.48-.62-2.26-1.77-.62-.91-.99-1.79-.99-2.37,0-.26.05-.44.16-.68.78,1.3,1.56,1.79,2.96,1.79,1.01,0,3.43-.26,7.85-.86q4.78-.68,5.15-.73.52-.1,1.04-.39c.31-.18.57-.26.86-.26.55,0,1.33.49,2.31,1.46.94.94,1.38,1.61,1.38,2.11,0,.34-.18.62-.49.78-.18.1-.21.1-.7.23-.39.13-.81.39-3.82,2.6-2.73,2-3.46,2.52-4.76,3.38.7.49,1.43,1.17,1.85,1.72.47.6.62,1.04.62,1.79,0,1.38-.68,2.42-1.56,2.42-.52,0-.81-.29-1.2-1.22-.49-1.14-1.69-3.07-2.78-4.47-.94-1.2-1.79-2.05-3.2-3.17l.18-.26Z"/>
      <path class="cls-1" d="M122.1,5.46c.68.16,1.22.21,1.87.21h3.93c.75-.86.99-1.12,1.74-1.95,1.12.88,1.48,1.14,2.57,2.08.1.1.16.18.16.23,0,.1-.13.18-.31.18h-8.03c-.65,0-1.04.03-1.74.16l-.18-.91ZM122.88,2.08c.62.16,1.22.23,1.69.23h2.89l1.69-1.87c1.09.86,1.43,1.12,2.44,2.03.1.1.13.18.13.23,0,.1-.13.16-.31.16h-6.76c-.7,0-1.01.03-1.59.16l-.18-.94ZM122.93,12.14c.65.16,1.2.21,1.79.21h2.55c.68-.75.88-.99,1.56-1.74,1.04.83,1.38,1.07,2.39,1.9.1.13.13.18.13.23,0,.1-.1.16-.26.16h-6.37c-.7,0-.99.03-1.61.13l-.18-.88ZM127.19,8.97c.7-.78.94-1.01,1.61-1.79,1.07.86,1.38,1.12,2.42,2,.08.08.1.1.1.23,2.31-2.68,4.19-6.19,4.78-8.97.86.18,1.53.34,1.95.42,1.61.34,2.05.52,2.05.78,0,.21-.23.36-.94.52.94,1.79,1.77,2.65,3.56,3.74,1.48.88,2.65,1.35,4.34,1.72l-.05.29c-.73.29-1.04.65-1.48,1.69-.1.23-.18.49-.31.88-.05.13-.13.21-.23.21-.13,0-.34-.1-.73-.39-1.43-.94-2.81-2.39-3.77-3.95-.68-1.09-1.12-2.05-1.74-3.8-1.33,2.37-2.52,3.87-4.34,5.51-1.17,1.04-2.18,1.77-4.13,2.86l-.21-.23c.62-.6.81-.78,1.17-1.2l-.16.03h-6.45c-.49,0-.86.03-1.51.16l-.16-.91c.62.16,1.04.21,1.66.21h2.55ZM125.69,23.53c0,.57-.29.68-1.69.68-.75,0-.96-.1-.96-.47v-.08c.03-1.92.05-4.29.05-5.36,0-1.27-.03-2.5-.1-3.98,1.3.62,1.69.83,2.96,1.59h1.95c.57-.62.75-.83,1.3-1.43.88.62,1.14.83,1.98,1.46.23.21.31.31.31.42,0,.18-.13.29-.78.7v3.77q.03,1.53.03,2.13c0,.29-.05.42-.18.49-.21.13-.83.23-1.53.23-.75,0-.88-.08-.91-.47v-.81h-2.42v1.12ZM125.69,21.87h2.42v-5.41h-2.42v5.41ZM130.47,23.63c3.2-1.14,5.51-2.39,8.03-4.29,2.08-1.59,3.54-3.02,4.34-4.29.73.42,1.27.73,1.64.94,1.46.83,1.64.99,1.64,1.22,0,.18-.21.31-.57.31-.21,0-.39,0-.68-.03-2.65,2.37-4.76,3.67-7.8,4.84-2.03.75-3.72,1.17-6.5,1.61l-.1-.31ZM131.3,13.73c2.03-1.3,3.38-2.37,4.94-3.93,1.14-1.14,1.61-1.72,2.16-2.68,2.31,1.4,3.02,1.9,3.02,2.11s-.23.31-.68.31c-.13,0-.31,0-.57-.03-3.04,2.31-4.94,3.3-8.68,4.5l-.18-.29ZM131.56,18.15c3.04-1.56,4.71-2.65,6.66-4.37,1.46-1.27,2.03-1.92,2.57-2.83,2.31,1.46,3.02,1.95,3.02,2.18,0,.18-.23.31-.52.31-.23,0-.47-.03-.78-.05-1.92,1.61-3.25,2.42-5.36,3.33-1.56.68-2.94,1.09-5.43,1.72l-.16-.29Z"/>
      <path class="cls-1" d="M171.37,13.81c.03.7.03,1.25.05,1.69,0,.6,0,.62.03,1.22,0,.31-.08.44-.31.55-.21.08-1.01.18-1.61.18-.52,0-.65-.1-.68-.47v-.57h-2.18v2.42q.03,2.26.03,3.38c0,1.22-.42,1.72-1.82,2.08-.42.1-1.14.21-1.59.21-.26,0-.31-.05-.36-.47-.1-1.17-.7-1.61-2.7-2.13v-.34c2.21.13,2.26.13,3.48.16.29,0,.34-.08.34-.36v-4.94h-2.18v.34c-.03.26-.1.39-.34.47-.18.05-1.01.13-1.53.13s-.68-.1-.7-.42q0-.62.03-1.51.03-.52.03-1.53v-1.64c-.94.55-1.33.73-2.68,1.3-.31,2.42-.86,4.24-1.72,5.95-.49.96-1.2,1.98-2.11,3.07-.49.6-.81.91-1.66,1.64l-.26-.21c1.95-3.33,2.96-6.68,3.28-11.02-.57.81-.94,1.25-2.08,2.55-.03.88-.13,1.2-.39,1.2s-.29-.03-1.43-3.43c1.33-.31,2.5-.78,3.98-1.56.08-1.3.1-2.68.1-4.65,0-2.73-.05-4.08-.18-5.98,1.43.7,1.87.94,3.22,1.74h5.38v-.91c0-.73-.03-1.09-.13-1.92,3.56.31,3.9.36,3.9.75,0,.21-.29.36-.94.57v1.51h4.73c.78-.91,1.04-1.17,1.82-2.03,1.22.91,1.59,1.2,2.73,2.16.13.1.18.18.18.26s-.13.16-.29.16h-17.71c0,1.3-.03,1.66-.05,2.57h5.46c.47-1.01.6-1.35.78-2.29,3.07.57,3.17.57,3.46.75.1.05.18.18.18.26,0,.23-.31.36-1.12.47-.21.39-.23.44-.44.81h5.2c.68-.75.88-.99,1.53-1.72,1.07.75,1.4.99,2.39,1.77.16.16.21.23.21.31,0,.1-.16.18-.39.18h-7.59c.91,1.25,1.43,1.74,2.42,2.42.65-.78,1.12-1.51,1.59-2.39.94.44,2,1.01,2.52,1.33.21.13.29.21.29.34,0,.16-.18.23-.47.23-.1,0-.47-.03-.7-.05q-.6.23-1.98.83c-.1.03-.26.08-.47.16,1.72.88,3.38,1.33,5.38,1.43l-.03.29c-.62.34-.94.68-1.27,1.38-.08.18-.18.42-.23.65-.05.21-.13.26-.29.26-.29,0-1.12-.36-2.13-.94l.03,1.38ZM150.75,4.71c2.24,1.53,3.28,2.76,3.28,3.87,0,.88-.99,2.05-1.72,2.05-.36,0-.55-.29-.6-.94-.05-.62-.16-1.38-.34-2.21-.26-1.35-.39-1.72-.86-2.6l.23-.18ZM154.6,23.58c1.53-1.3,2.39-2.18,3.38-3.54.7-.99,1.04-1.53,1.46-2.47.73.26,1.3.47,1.66.6,1.46.55,1.77.7,1.77.96s-.34.36-1.17.39c-2.42,2.16-3.77,3.02-6.92,4.29l-.18-.23ZM157.04,6.5c-.03.91-.05,1.59-.05,2.03-.08,2.63-.08,2.78-.29,4.58,2.37-1.74,4.08-3.8,5.54-6.6h-5.2ZM157.51,6.99c2.03.55,2.83,1.07,2.83,1.82s-.6,1.56-1.17,1.56c-.29,0-.31-.08-.55-.78-.34-1.07-.6-1.61-1.25-2.44l.13-.16ZM168.85,13.03v-2.11h-6.99v2.11h6.99ZM168.85,15.86v-2.29h-6.99v2.29h6.99ZM168.59,10.35c-1.14-1.25-1.72-2.18-2.37-3.85h-1.2c-.94,1.53-1.82,2.65-3.09,3.82l.08.05h6.55l.03-.03ZM167.88,17.94c4.58,1.35,5.98,2.18,5.98,3.54,0,1.09-.75,2.24-1.48,2.24-.29,0-.42-.16-.94-1.09-.88-1.66-1.98-2.94-3.69-4.45l.13-.23Z"/>
      <path class="cls-1" d="M180.21,23.45h6.24v-12.87h1.12v13.99h-7.36v-1.12Z"/>
      <path class="cls-1" d="M205.51,22.07c2.78-.86,4.73-2,6.29-3.69,1.74-1.87,2.6-4.16,2.6-6.84,0-4.45-2.7-7.1-7.18-7.1-.34,0-.55,0-1.04.05.91,1.07,1.2,1.77,1.2,2.78,0,2.08-1.33,5.72-3.2,8.87-1.69,2.81-3.2,4.24-4.5,4.24-.57,0-1.12-.31-1.4-.75-.21-.39-.36-.75-.6-1.72-.16-.62-.36-.99-1.12-1.92-.62-.78-1.01-1.92-1.01-2.99,0-1.64.83-3.61,2.18-5.2,2.24-2.65,5.93-4.26,9.8-4.26,5.8,0,9.93,3.67,9.93,8.81,0,3.77-2.08,6.79-5.85,8.53-1.61.75-3.28,1.2-6.01,1.56l-.1-.36ZM200.64,7.28c-1.79,1.79-2.78,4-2.78,6.19,0,1.79.88,3.64,1.77,3.64s2.57-2.16,4.26-5.36c1.3-2.44,2.08-4.6,2.08-5.75,0-.29-.03-.62-.1-.86-.05-.21-.18-.57-.21-.57-2.11.47-3.51,1.22-5.02,2.7Z"/>
      <path class="cls-1" d="M225.32,13.57c-.08.65-.1.96-.1,1.33,0,3.25,1.9,4.65,6.32,4.65,2.18,0,3.67-.23,5.28-.88.39-.16.7-.23.96-.23,1.22,0,2.63,1.09,2.63,2.03,0,.49-.34.94-.91,1.17-1.12.44-3.46.7-6.27.7-3.02,0-5.2-.44-6.58-1.33-1.48-.96-2.34-2.55-2.34-4.39,0-.96.21-1.92.68-3.12l.34.08ZM225.89,3.64c1.12.83,2.13,1.12,3.95,1.12.78,0,2-.1,2.89-.23,1.12-.16,1.43-.23,2.6-.68.18-.08.39-.1.57-.1,1.14,0,2.5,1.14,2.5,2.11,0,.42-.21.7-.68.86q-.36.16-1.59.34c-2.11.34-4.08.94-7.83,2.42l-.16-.31c.73-.49,2.31-1.51,3.9-2.5-.34.03-.57.03-.78.03-2.65,0-4.39-.88-5.59-2.86l.21-.18ZM237.82,2c1.66.44,2.21.65,2.94,1.09,1.07.62,1.48,1.14,1.48,1.79,0,.75-.42,1.4-.91,1.4-.29,0-.47-.16-.7-.6-.86-1.61-1.59-2.5-2.94-3.48l.13-.21ZM240.16.34c1.22.13,2.39.47,3.25.94.88.47,1.2.86,1.2,1.61s-.36,1.38-.81,1.38c-.23,0-.42-.16-.65-.57-.81-1.43-1.64-2.29-3.09-3.2l.1-.16Z"/>
      <path class="cls-1" d="M256.39,7.75h1.07c.7-.86.91-1.12,1.59-1.92,1.04.86,1.35,1.12,2.31,2.05.1.1.16.18.16.23,0,.13-.13.18-.36.18h-4.76v2.26c3.09,1.27,4.26,2.24,4.26,3.51,0,1.04-.86,2.16-1.66,2.16-.36,0-.55-.26-.73-1.12-.42-1.85-.83-2.76-1.87-3.98v12.38c0,.62-.23.73-1.82.73-.99,0-1.12-.08-1.12-.55.13-3.38.18-4.84.23-7.9l.03-2.91c-1.66,2.81-2.63,3.93-4.97,5.8l-.21-.16c1.48-2.18,2.39-3.87,3.28-6.06.49-1.22,1.12-3.04,1.43-4.16h-2.73c-.57,0-.91.03-1.46.16l-.16-.91c.62.16,1.04.21,1.64.21h3.12v-3.72c-1.64.26-2.44.34-4.47.47l-.08-.26c2.11-.68,3.69-1.3,5.56-2.21,1.4-.7,1.9-1.01,2.81-1.74,2.73,1.9,3.02,2.11,3.02,2.34,0,.16-.21.29-.42.29-.29,0-.65-.05-1.01-.16-1.3.39-1.77.55-2.68.75v4.24ZM265.98,2.94c0,.23-.21.36-1.04.68.03,6.16.05,10.76.1,13.83,0,.6-.26.7-1.77.7-.96,0-1.14-.08-1.14-.52.05-2.65.08-3.8.08-7.15,0-6.27-.03-6.71-.16-8.29,3.72.34,3.93.39,3.93.75ZM263.07,20.7c2.31.16,2.99.18,4.81.23.34-.03.44-.13.44-.55V4.39c0-1.43-.05-2.21-.16-3.69.88.08,1.59.16,2.03.18,1.61.13,2.03.26,2.03.57,0,.23-.21.36-1.04.73v13.55c0,1.22,0,2.31.1,5.46,0,1.33-.31,1.95-1.2,2.37-.65.29-1.85.57-2.52.57-.29,0-.34-.05-.42-.52-.13-.75-.42-1.17-1.04-1.53-.52-.34-1.17-.55-3.07-1.01l.03-.36Z"/>
      <path class="cls-1" d="M290.73,17.81c0,.68.03,2.26.1,4.73v.1c0,.31-.1.44-.49.55-.31.08-1.01.13-1.69.13-.83,0-.96-.1-.96-.73.1-2.94.1-3.3.1-4.78v-3.33h-5.33c-.34,2.6-.96,4.47-2.13,6.34-.94,1.48-1.85,2.5-3.46,3.72l-.18-.18c.96-1.53,1.48-2.63,1.95-4.19.86-2.81,1.14-5.85,1.14-12.04,0-4.76-.03-6.01-.18-7.46,1.56.65,2,.86,3.41,1.66h12.95c.62-.73.83-.94,1.53-1.66.96.73,1.25.94,2.18,1.61.26.18.36.34.36.49,0,.26-.18.42-.94.91v11.44q.03,1.87.03,3.46c.03,1.53.03,1.64.05,3.12-.03,1.09-.36,1.59-1.35,2-.7.31-1.66.52-2.31.52-.34,0-.39-.05-.39-.49-.03-1.33-.57-1.72-3.28-2.47v-.31c.47.03,1.77.08,3.87.21.39,0,.44-.05.44-.39v-6.29h-5.43v3.33ZM287.8,8.55h-5.07c-.05,2.76-.1,4.21-.21,5.38h5.28v-5.38ZM287.8,2.89h-5.04v.86l-.03,1.27v2.99h5.07V2.89ZM296.17,8.01V2.89h-5.43v5.12h5.43ZM296.17,13.94v-5.38h-5.43v5.38h5.43Z"/>
      <path class="cls-1" d="M307.69,6.73c.83,0,1.77-.21,6.99-1.53,1.3-.34,2.21-.55,5.77-1.33,1.04-.23,1.35-.34,2.11-.68.36-.16.7-.23.99-.23.47,0,1.3.31,1.92.73.68.44,1.01.94,1.01,1.43,0,.62-.49,1.01-1.27,1.01-.16,0-.39-.03-.68-.05-.34-.03-.44-.03-.75-.03-2.39,0-4.63,1.04-6.24,2.94-1.35,1.51-2.05,3.3-2.05,5.1,0,2.21,1.14,3.93,3.15,4.68.65.26,1.46.42,2.08.42.05,0,.13,0,.29-.03h.26c.49,0,.96.18,1.35.55.65.57,1.01,1.27,1.01,1.87,0,.83-.57,1.22-1.82,1.22-1.9,0-4.06-.75-5.54-1.95-1.77-1.43-2.7-3.43-2.7-5.8,0-2.21,1.07-4.58,2.91-6.53,1.01-1.07,1.92-1.74,4.16-2.99-2.24.49-4.78,1.25-7.02,2.08-2.24.83-2.78,1.09-3.82,1.77-.47.31-.88.44-1.3.44-1.4,0-3.38-2.47-3.38-4.19,0-.23.05-.42.21-.75.6,1.27,1.35,1.85,2.37,1.85ZM321.75,8.35c.94.31,1.92.7,2.76,1.17.94.52,1.35,1.07,1.35,1.82s-.47,1.4-.99,1.4c-.23,0-.42-.18-.62-.6-.86-1.79-1.43-2.55-2.65-3.56l.16-.23ZM324.3,7.12c.96.16,1.82.39,2.65.78,1.07.47,1.56,1.04,1.56,1.85,0,.75-.42,1.38-.91,1.38-.23,0-.39-.16-.57-.57-.68-1.43-1.46-2.31-2.83-3.25l.1-.18Z"/>
      <path class="cls-1" d="M0,42.46c.68.16,1.22.21,1.87.21h3.93c.75-.86.99-1.12,1.74-1.95,1.12.88,1.48,1.14,2.57,2.08.1.1.16.18.16.23,0,.1-.13.18-.31.18H1.92c-.65,0-1.04.03-1.74.16l-.18-.91ZM.78,39.08c.62.16,1.22.23,1.69.23h2.89l1.69-1.87c1.09.86,1.43,1.12,2.44,2.03.1.1.13.18.13.23,0,.1-.13.16-.31.16H2.55c-.7,0-1.01.03-1.59.16l-.18-.94ZM.83,49.14c.65.16,1.2.21,1.79.21h2.55c.68-.75.88-.99,1.56-1.74,1.04.83,1.38,1.07,2.39,1.9.1.13.13.18.13.23,0,.1-.1.16-.26.16H2.63c-.7,0-.99.03-1.61.13l-.18-.88ZM5.1,45.97c.7-.78.94-1.01,1.61-1.79,1.07.86,1.38,1.12,2.42,2,.08.08.1.1.1.23,2.31-2.68,4.19-6.19,4.78-8.97.86.18,1.53.34,1.95.42,1.61.34,2.05.52,2.05.78,0,.21-.23.36-.94.52.94,1.79,1.77,2.65,3.56,3.74,1.48.88,2.65,1.35,4.34,1.72l-.05.29c-.73.29-1.04.65-1.48,1.69-.1.23-.18.49-.31.88-.05.13-.13.21-.23.21-.13,0-.34-.1-.73-.39-1.43-.94-2.81-2.39-3.77-3.95-.68-1.09-1.12-2.05-1.74-3.8-1.33,2.37-2.52,3.87-4.34,5.51-1.17,1.04-2.18,1.77-4.13,2.86l-.21-.23c.62-.6.81-.78,1.17-1.2l-.16.03H2.55c-.49,0-.86.03-1.51.16l-.16-.91c.62.16,1.04.21,1.66.21h2.55ZM3.59,60.53c0,.57-.29.68-1.69.68-.75,0-.96-.1-.96-.47v-.08c.03-1.92.05-4.29.05-5.36,0-1.27-.03-2.5-.1-3.98,1.3.62,1.69.83,2.96,1.59h1.95c.57-.62.75-.83,1.3-1.43.88.62,1.14.83,1.98,1.46.23.21.31.31.31.42,0,.18-.13.29-.78.7v3.77q.03,1.53.03,2.13c0,.29-.05.42-.18.49-.21.13-.83.23-1.53.23-.75,0-.88-.08-.91-.47v-.81h-2.42v1.12ZM3.59,58.87h2.42v-5.41h-2.42v5.41ZM8.37,60.63c3.2-1.14,5.51-2.39,8.03-4.29,2.08-1.59,3.54-3.02,4.34-4.29.73.42,1.27.73,1.64.94,1.46.83,1.64.99,1.64,1.22,0,.18-.21.31-.57.31-.21,0-.39,0-.68-.03-2.65,2.37-4.76,3.67-7.8,4.84-2.03.75-3.72,1.17-6.5,1.61l-.1-.31ZM9.2,50.73c2.03-1.3,3.38-2.37,4.94-3.93,1.14-1.14,1.61-1.72,2.16-2.68,2.31,1.4,3.02,1.9,3.02,2.11s-.23.31-.68.31c-.13,0-.31,0-.57-.03-3.04,2.31-4.94,3.3-8.68,4.5l-.18-.29ZM9.46,55.15c3.04-1.56,4.71-2.65,6.66-4.37,1.46-1.27,2.03-1.92,2.57-2.83,2.31,1.46,3.02,1.95,3.02,2.18,0,.18-.23.31-.52.31-.23,0-.47-.03-.78-.05-1.92,1.61-3.25,2.42-5.36,3.33-1.56.68-2.94,1.09-5.43,1.72l-.16-.29Z"/>
      <path class="cls-1" d="M49.27,50.81c.03.7.03,1.25.05,1.69,0,.6,0,.62.03,1.22,0,.31-.08.44-.31.55-.21.08-1.01.18-1.61.18-.52,0-.65-.1-.68-.47v-.57h-2.18v2.42q.03,2.26.03,3.38c0,1.22-.42,1.72-1.82,2.08-.42.1-1.14.21-1.59.21-.26,0-.31-.05-.36-.47-.1-1.17-.7-1.61-2.7-2.13v-.34c2.21.13,2.26.13,3.48.16.29,0,.34-.08.34-.36v-4.94h-2.18v.34c-.03.26-.1.39-.34.47-.18.05-1.01.13-1.53.13s-.68-.1-.7-.42q0-.62.03-1.51.03-.52.03-1.53v-1.64c-.94.55-1.33.73-2.68,1.3-.31,2.42-.86,4.24-1.72,5.95-.49.96-1.2,1.98-2.11,3.07-.49.6-.81.91-1.66,1.64l-.26-.21c1.95-3.33,2.96-6.68,3.28-11.02-.57.81-.94,1.25-2.08,2.55-.03.88-.13,1.2-.39,1.2s-.29-.03-1.43-3.43c1.33-.31,2.5-.78,3.98-1.56.08-1.3.1-2.68.1-4.65,0-2.73-.05-4.08-.18-5.98,1.43.7,1.87.94,3.22,1.74h5.38v-.91c0-.73-.03-1.09-.13-1.92,3.56.31,3.9.36,3.9.75,0,.21-.29.36-.94.57v1.51h4.73c.78-.91,1.04-1.17,1.82-2.03,1.22.91,1.59,1.2,2.73,2.16.13.1.18.18.18.26s-.13.16-.29.16h-17.71c0,1.3-.03,1.66-.05,2.57h5.46c.47-1.01.6-1.35.78-2.29,3.07.57,3.17.57,3.46.75.1.05.18.18.18.26,0,.23-.31.36-1.12.47-.21.39-.23.44-.44.81h5.2c.68-.75.88-.99,1.53-1.72,1.07.75,1.4.99,2.39,1.77.16.16.21.23.21.31,0,.1-.16.18-.39.18h-7.59c.91,1.25,1.43,1.74,2.42,2.42.65-.78,1.12-1.51,1.59-2.39.94.44,2,1.01,2.52,1.33.21.13.29.21.29.34,0,.16-.18.23-.47.23-.1,0-.47-.03-.7-.05q-.6.23-1.98.83c-.1.03-.26.08-.47.16,1.72.88,3.38,1.33,5.38,1.43l-.03.29c-.62.34-.94.68-1.27,1.38-.08.18-.18.42-.23.65-.05.21-.13.26-.29.26-.29,0-1.12-.36-2.13-.94l.03,1.38ZM28.65,41.71c2.24,1.53,3.28,2.76,3.28,3.87,0,.88-.99,2.05-1.72,2.05-.36,0-.55-.29-.6-.94-.05-.62-.16-1.38-.34-2.21-.26-1.35-.39-1.72-.86-2.6l.23-.18ZM32.5,60.58c1.53-1.3,2.39-2.18,3.38-3.54.7-.99,1.04-1.53,1.46-2.47.73.26,1.3.47,1.66.6,1.46.55,1.77.7,1.77.96s-.34.36-1.17.39c-2.42,2.16-3.77,3.02-6.92,4.29l-.18-.23ZM34.94,43.5c-.03.91-.05,1.59-.05,2.03-.08,2.63-.08,2.78-.29,4.58,2.37-1.74,4.08-3.8,5.54-6.6h-5.2ZM35.41,43.99c2.03.55,2.83,1.07,2.83,1.82s-.6,1.56-1.17,1.56c-.29,0-.31-.08-.55-.78-.34-1.07-.6-1.61-1.25-2.44l.13-.16ZM46.75,50.03v-2.11h-6.99v2.11h6.99ZM46.75,52.86v-2.29h-6.99v2.29h6.99ZM46.49,47.35c-1.14-1.25-1.72-2.18-2.37-3.85h-1.2c-.94,1.53-1.82,2.65-3.09,3.82l.08.05h6.55l.03-.03ZM45.79,54.94c4.58,1.35,5.98,2.18,5.98,3.54,0,1.09-.75,2.24-1.48,2.24-.29,0-.42-.16-.94-1.09-.88-1.66-1.98-2.94-3.69-4.45l.13-.23Z"/>
      <path class="cls-1" d="M62.76,55.33c2.03,1.01,3.22,1.48,3.74,1.48.55,0,.91-.34,1.35-1.25,1.09-2.21,1.9-5.59,1.9-7.9,0-1.51-.42-2.11-1.51-2.11-.65,0-1.25.13-2.29.47-2.47,6.03-3.9,9.46-4.24,10.3-1.2,2.76-1.66,3.41-2.39,3.41s-1.22-.99-1.22-2.44c0-.91.13-1.27.75-1.87,1.22-1.27,2.68-3.93,4.73-8.68-1.46.62-2.16.96-2.83,1.38-.39.23-.55.29-.78.29-.47,0-.99-.36-1.46-.99-.52-.75-.88-1.72-.88-2.39,0-.21.03-.36.16-.68.55,1.14,1.22,1.61,2.29,1.61.68,0,1.95-.26,4-.78.55-1.56.91-3.17.91-4.16,0-1.07-.62-1.72-2.11-2.21.44-.23.65-.29,1.01-.29.57,0,1.53.16,2.26.39,1.48.47,2.26,1.07,2.26,1.77,0,.23-.08.47-.34.88-.55.83-.83,1.4-1.61,3.22.88-.18,1.3-.23,1.9-.23,1.25,0,2.24.39,2.81,1.17.62.81.86,1.79.86,3.56,0,3.2-1.2,7.28-2.63,9.05-.86,1.07-2.05,1.69-3.25,1.69-.39,0-.73-.16-.88-.42q-.13-.21-.18-.99c-.05-.6-.78-1.48-2.52-2.99l.18-.29ZM73.89,44.44c2.16.39,3.69,1.17,5.12,2.57,1.3,1.3,2,2.83,2,4.42s-.68,2.57-1.82,2.57c-.42,0-.7-.13-1.14-.52-.57-.52-1.07-.6-4-.62l-.05-.23c2.13-.57,3.35-.94,3.82-1.17.13-.08.18-.18.18-.39,0-.55-.31-1.77-.68-2.57-.81-1.85-1.9-2.99-3.56-3.77l.13-.29ZM75.01,40.51c1.01.23,1.98.57,2.83,1.01,1.2.62,1.59,1.09,1.59,1.87,0,.73-.42,1.33-.91,1.33-.29,0-.49-.18-.81-.75-.7-1.33-1.72-2.5-2.83-3.25l.13-.21ZM77.12,38.64c1.3.16,2.37.47,3.28.94.88.47,1.2.88,1.2,1.59s-.36,1.3-.78,1.3c-.23,0-.42-.16-.68-.62-.83-1.3-1.85-2.31-3.09-3.02l.08-.18Z"/>
      <path class="cls-1" d="M85.54,59c2.44-1.46,5.43-4.03,7.72-6.63,2.65-3.02,5.25-6.97,6.45-9.78-2.03.26-5.56,1.27-6.97,2.03-.52.26-.68.31-.99.31-.6,0-1.2-.47-1.87-1.46-.55-.83-.86-1.61-.86-2.24,0-.26.03-.36.18-.65.78,1.3,1.48,1.77,2.73,1.77.81,0,3.3-.36,5.64-.83,1.72-.34,1.87-.42,2.52-.83.29-.18.44-.23.7-.23.39,0,1.14.47,1.9,1.17.57.55.83.94.83,1.3,0,.26-.1.44-.42.65-.57.44-.73.62-1.51,1.9-1.27,2-1.85,2.78-3.28,4.6,3.41,1.48,5.56,2.73,6.73,3.87.75.73,1.09,1.56,1.09,2.6,0,1.33-.6,2.31-1.4,2.31-.44,0-.75-.31-1.07-1.04-1.27-2.78-3.09-5.04-5.82-7.15-2.11,2.52-3.9,4.13-6.21,5.69-1.9,1.27-3.33,1.98-5.95,2.91l-.16-.29Z"/>
      <path class="cls-1" d="M113.91,40.07c.91,0,2.11.31,3.12.81,1.01.49,1.46.99,1.46,1.56,0,.31-.03.42-.36,1.12-.31.6-.47,1.56-.65,3.56.36.21.62.26,1.09.26.88,0,2.96-.44,4.58-.99,1.33-.42,1.77-.65,2.55-1.27.18-.13.52-.23.83-.23.47,0,1.04.18,1.61.49.68.36.99.75.99,1.2,0,.57-.44.91-1.59,1.2-2.63.68-5.88,1.2-7.49,1.2-1.17,0-1.92-.29-2.68-1.01-.1,1.61-.21,3.8-.21,4.55,0,1.79.16,2.57.62,3.04.47.47,1.3.68,2.81.68,1.22,0,3.35-.18,4.39-.39.65-.13.88-.21,1.56-.49.42-.21.65-.26.91-.26.39,0,1.04.23,1.51.55.68.47,1.01.91,1.01,1.38,0,.55-.34.88-1.14,1.12-1.01.31-3.77.57-6.14.57-2.18,0-3.98-.21-4.89-.6-1.61-.68-2.39-1.87-2.7-4.06-.13-.96-.18-2.24-.18-5.38v-1.17c.03-.99.03-1.82.03-2.03,0-.86-.03-2.18-.08-2.68-.1-1.35-.7-1.98-2.24-2.39.47-.26.7-.31,1.27-.31ZM132.68,41.19c0,1.46-1.17,2.63-2.6,2.63s-2.63-1.17-2.63-2.63,1.17-2.6,2.63-2.6,2.6,1.17,2.6,2.6ZM128.26,41.19c0,1.01.81,1.82,1.82,1.82s1.79-.81,1.79-1.82-.81-1.79-1.82-1.79-1.79.81-1.79,1.79Z"/>
      <path class="cls-1" d="M138.97,47.58c.57.42,1.17.55,2.6.55,1.04,0,5.8-.08,10.3-.18.44-.03,2.13-.03,2.91-.03,2.6,0,3.41.1,3.82.47.21.18.31.47.31.78,0,.65-.57,1.07-1.69,1.22-1.46.18-3.74.26-11.6.31-1.2,0-1.33.03-3.22.1-.62.05-.75.08-1.14.23-.39.16-.65.21-.88.21-.62,0-1.33-.57-1.92-1.61-.6-1.04-.91-1.95-.91-2.7,0-.44.03-.52.31-.86.55.96.7,1.2,1.12,1.51Z"/>
      <path class="cls-1" d="M169.68,60.95c1.77-1.95,2.89-3.72,3.9-6.21.73-1.85,1.33-4.32,1.33-5.54,0-.62-.08-.86-.42-1.22-1.82.26-4.06.88-5.43,1.56-.49.26-.78.34-1.12.34-.65,0-1.43-.57-2.29-1.72-.52-.65-.73-1.14-.73-1.64,0-.13.03-.23.1-.52.65.96,1.46,1.43,2.5,1.43.81,0,1.04-.03,4.91-.62,2.18-.34,4.81-.68,7.9-1.01,1.01-.1,1.56-.23,2.26-.55.31-.16.52-.21.75-.21.42,0,1.04.21,1.66.55.99.49,1.48,1.04,1.48,1.56,0,.55-.42.88-1.09.88-.08,0-.18,0-.47-.05-1.51-.26-3.35-.42-4.89-.42-1.33,0-2.39.05-3.77.21,1.48.86,1.77,1.17,1.77,1.85,0,1.14-1.09,3.95-2.29,5.9-1.48,2.39-3.28,4.11-5.88,5.64l-.21-.21ZM169.31,39.81c1.01,1.01,1.92,1.43,3.17,1.43.99,0,2.31-.21,3.61-.6.96-.29,1.33-.42,2.29-.99.36-.18.52-.23.83-.23.39,0,.81.16,1.38.55.65.42.96.83.96,1.27,0,.49-.36.75-1.51,1.01-1.77.42-4.81.78-6.45.78-2.03,0-3.38-.91-4.52-3.04l.23-.18ZM181.77,38.59c1.38.47,2.26.91,3.15,1.48.81.52,1.14,1.07,1.14,1.77s-.42,1.27-.94,1.27c-.26,0-.47-.18-.7-.68-.75-1.56-1.46-2.5-2.78-3.64l.13-.21ZM184.13,37.03c3.09.75,4.37,1.59,4.37,2.83,0,.65-.39,1.22-.83,1.22-.21,0-.36-.16-.6-.55-.81-1.46-1.64-2.37-3.07-3.33l.13-.18Z"/>
      <path class="cls-1" d="M190.69,55.12c1.87-1.12,2.86-1.85,4.68-3.41,2.26-1.95,4.55-4.32,5.72-5.9.42-.6.57-.94.57-1.27,0-.55-.36-.99-1.25-1.51.23-.08.34-.1.57-.1.7,0,1.53.34,2.7,1.09.81.55,1.2.99,1.2,1.4,0,.39-.1.6-.49.86q-.34.23-1.33,1.17c-1.4,1.3-1.59,1.46-3.2,2.83.81.55,1.14.86,1.33,1.17q.21.39.23,2.39c.03,1.64.05,2.05.1,3.9.03.57.05,1.27.05,1.74,0,.78-.31,1.22-.88,1.22-.86,0-2-1.3-2-2.29,0-.16.03-.31.1-.57.18-.52.21-.7.29-1.25.1-.88.23-2.99.23-3.95,0-1.04-.05-1.38-.26-1.74-2.39,1.95-4.97,3.35-8.24,4.52l-.13-.31Z"/>
      <path class="cls-1" d="M215.33,47.58c.57.42,1.17.55,2.6.55,1.04,0,5.8-.08,10.3-.18.44-.03,2.13-.03,2.91-.03,2.6,0,3.41.1,3.82.47.21.18.31.47.31.78,0,.65-.57,1.07-1.69,1.22-1.46.18-3.74.26-11.6.31-1.2,0-1.33.03-3.22.1-.62.05-.75.08-1.14.23s-.65.21-.88.21c-.62,0-1.33-.57-1.92-1.61s-.91-1.95-.91-2.7c0-.44.03-.52.31-.86.55.96.7,1.2,1.12,1.51Z"/>
      <path class="cls-1" d="M248.02,49.09c-1.17,4.81-1.43,6.16-1.43,7.28q0,.26.1.96c.03.08.03.21.03.36,0,.52-.08.91-.21,1.14-.23.39-.65.62-1.12.62-.68,0-1.25-.47-1.64-1.38-.65-1.46-.99-3.46-.99-5.72s.21-3.8,1.04-7.72c.42-1.9.52-2.55.52-3.17,0-.91-.23-1.61-.86-2.5.75.08,1.46.52,2.31,1.48,1.01,1.14,1.51,2.11,1.51,2.91,0,.44-.1.73-.6,1.64-1.35,2.5-1.98,4.68-1.98,6.92,0,1.07.1,1.79.39,2.7.68-1.35.83-1.69,1.09-2.29q1.27-2.78,1.53-3.35l.29.1ZM250.95,50.39c-.05.6-.08.86-.08,1.14,0,1.35.36,2.31,1.14,2.99.86.73,2.03,1.04,3.95,1.04.78,0,1.59-.08,2.37-.18q.6-.1,1.48-.44c.18-.08.36-.1.52-.1.47,0,1.17.34,1.66.83.44.42.62.78.62,1.2,0,1.12-1.2,1.51-4.68,1.51-5.2,0-7.77-1.77-7.77-5.33,0-.96.13-1.74.47-2.73l.31.08ZM250.59,42.15c.88.57,1.46.73,2.42.73,1.64,0,4.06-.57,5.3-1.25.52-.29.55-.29.83-.29.99,0,2.29,1.09,2.29,1.95,0,.6-.31.83-1.4.99-1.2.18-2,.39-3.12.78-2.03.7-2.81,1.04-4.06,1.79l-.18-.23c.88-.83,2.05-1.87,2.39-2.16h-.6c-1.74,0-2.99-.62-4.08-2.11l.21-.21Z"/>
      <path class="cls-1" d="M274.41,53.22c-.13-4.16-.39-6.27-1.48-11.39-.08-.42-.16-.94-.16-1.22,0-1.04.7-1.51,2.18-1.51s2.16.47,2.16,1.51q0,.55-.55,3.15c-.62,2.96-.99,6.03-1.09,9.46h-1.07ZM277.08,57.23c0,1.2-.96,2.16-2.16,2.16s-2.16-.96-2.16-2.16.96-2.16,2.16-2.16,2.16.94,2.16,2.16Z"/>
    </g>
  </g>
</svg>