<svg version="1.1" id="logo_top" xmlns="http://www.w3.org/2000/svg" xmlns:xlink="http://www.w3.org/1999/xlink" x="0px"
	 y="0px" viewBox="0 0 153.66 243.36" style="enable-background:new 0 0 153.66 243.36;" xml:space="preserve" preserveAspectRatio="none" width="154" height="253">
<style type="text/css">
	.st0{fill:#7DCCF3;}
	.st1{fill:#595757;}
</style>
<g>
	<g>
		<path class="st0" d="M16.98,3.85v1.99H0V18h16.98v1.89H0v51.02l13-7.76V29.39h2.64v35.08L0.47,73.48h46.84v-20l-20.55,13.6
			l-1.56-1.65L47.31,50.8v-8.69H25.48v-1.99h21.83V29.39h2.74v10.73h23.43V24.04H51.96V5.39H28.28v7.41h-2.32V3.57h44.46v9.24h-2.33
			V5.39H54.36v16.98h19.12V0H0v3.85H16.98z M40.49,15l1.18,1.73L24.6,28.38l-1.12-1.71L40.49,15z"/>
		<polygon class="st0" points="50.05,42.11 50.05,50.53 72.67,65.37 71.05,66.75 50.05,53.09 50.05,73.48 73.48,73.48 73.48,42.11 
					"/>
	</g>
	<g>
		<polygon class="st0" points="106.05,46.82 86.74,46.82 86.74,3.22 146.71,3.22 146.71,46.82 125.16,46.82 125.16,68.36 
			153.66,68.36 153.66,0 80.18,0 80.18,72.43 		"/>
		<rect x="89.38" y="5.39" class="st0" width="54.84" height="11.57"/>
		<rect x="89.38" y="18.76" class="st0" width="54.84" height="11.66"/>
		<rect x="89.38" y="32.13" class="st0" width="54.84" height="12.51"/>
		<polygon class="st0" points="122.29,70.35 122.29,46.82 109.98,46.82 83.26,73.48 153.66,73.48 153.66,70.35 		"/>
	</g>
	<g>
		<rect x="6.07" y="99.66" class="st0" width="19.89" height="12.84"/>
		<rect x="6.07" y="84.8" class="st0" width="19.89" height="12.67"/>
		<rect x="6.07" y="114.44" class="st0" width="19.89" height="34.15"/>
		<rect x="38.11" y="84.7" class="st0" width="28.84" height="12.76"/>
		<rect x="38.11" y="99.66" class="st0" width="28.84" height="13.03"/>
		<polygon class="st0" points="59.45,137.03 73.18,153.66 73.48,153.66 73.48,128.68 		"/>
		<path class="st0" d="M38.11,114.83v32.08l9.55-5.27v2.95l-12.23,7v-68.7h33.85v32.02H41.26l16.66,20.33l15.56-9.39V80.18H0v73.48
			h70.22L38.11,114.83z M28.09,150.7H3.68V82.89h24.41V150.7z"/>
	</g>
	<g>
		<polygon class="st0" points="94.15,84.87 80.18,90.65 80.18,102.25 94.15,102.25 		"/>
		<polygon class="st0" points="94.15,104.45 80.18,104.45 80.18,134.59 94.15,115.5 		"/>
		<path class="st0" d="M140.67,125.27V80.18h-34.8l-8.89,3.57v18.51h12.4v2.19h-12.4v6.53l13.84,14.46l-2.02,1.21l-11.82-12.25
			v39.27h43.7V127.8h-25.86v-2.54H140.67z M124.66,88.26c1.97,0,3.56,1.6,3.56,3.56s-1.6,3.56-3.56,3.56c-1.97,0-3.56-1.6-3.56-3.56
			S122.69,88.26,124.66,88.26z M124.66,108.28c1.97,0,3.56,1.6,3.56,3.56c0,1.97-1.6,3.56-3.56,3.56c-1.97,0-3.56-1.6-3.56-3.56
			C121.09,109.88,122.69,108.28,124.66,108.28z"/>
		<rect x="143.35" y="127.8" class="st0" width="10.31" height="25.85"/>
		<polygon class="st0" points="99.51,80.18 80.18,80.18 80.18,88.35 		"/>
		<rect x="143.35" y="80.18" class="st0" width="10.31" height="45.09"/>
		<polygon class="st0" points="94.15,119.88 80.18,138.93 80.18,153.66 94.15,153.66 		"/>
	</g>
	<g>
		<path class="st1" d="M42.55,168.81v1.21h-8.22v7.14h7.41v1.21h-7.41v9.23h-1.45v-18.8H42.55z"/>
		<path class="st1" d="M59.94,168.81h1.45v10.25c0,2.81-0.73,4.97-2.19,6.5c-1.46,1.53-3.35,2.29-5.68,2.29
			c-2.31,0-4.2-0.75-5.66-2.26c-1.46-1.51-2.19-3.57-2.19-6.19v-10.59h1.47v10.54c0,2.24,0.59,4,1.78,5.26
			c1.19,1.26,2.72,1.9,4.61,1.9c1.9,0,3.45-0.64,4.64-1.92c1.19-1.28,1.78-3.09,1.78-5.44V168.81z"/>
		<path class="st1" d="M78.62,168.81l-9,9.39l9.86,9.41h-1.85l-9.84-9.39v9.39h-1.45v-18.8h1.45v9.35l9.02-9.35H78.62z"/>
		<path class="st1" d="M89.56,168.68l8.69,18.93h-1.52l-2.97-6.5h-9.19l-2.96,6.5h-1.52l8.69-18.93H89.56z M93.2,179.9l-4.05-8.85
			l-4.04,8.85H93.2z"/>
		<path class="st1" d="M110.21,177.54l7.14-8.73h1.47v18.8h-1.47v-16.67l-7.15,8.79l-7.18-8.79v16.67h-1.45v-18.8h1.45
			L110.21,177.54z"/>
		<path class="st1" d="M125.67,168.81v18.8h-1.45v-18.8H125.67z"/>
		<path class="st1" d="M69.08,196.57v1.21h-8.8v7.52h8.57v1.22h-8.57v7.63h9.01v1.21H58.82v-18.8H69.08z"/>
		<path class="st1" d="M87.29,196.57l-7.31,8.71v10.09h-1.45v-10.09l-7.31-8.71h1.76l6.28,7.45l6.25-7.45H87.29z"/>
		<path class="st1" d="M100.86,196.57v1.21h-8.8v7.52h8.57v1.22h-8.57v7.63h9.01v1.21H90.6v-18.8H100.86z"/>
		<path class="st1" d="M52.87,225.65v1.59c-2.28-1.21-4.51-1.82-6.7-1.82c-2.33,0-4.28,0.79-5.85,2.38
			c-1.57,1.59-2.35,3.57-2.35,5.95c0,2.4,0.79,4.38,2.37,5.93c1.58,1.55,3.59,2.33,6.04,2.33c2.05,0,4.27-0.64,6.69-1.92v1.51
			c-2.22,1.18-4.44,1.76-6.66,1.76c-2.86,0-5.25-0.92-7.15-2.75c-1.91-1.83-2.86-4.12-2.86-6.86c0-2.75,0.97-5.05,2.92-6.9
			c1.95-1.85,4.27-2.77,6.96-2.77C48.38,224.08,50.58,224.6,52.87,225.65z"/>
		<path class="st1" d="M58.42,224.32v17.59h9.3v1.21H56.97v-18.8H58.42z"/>
		<path class="st1" d="M72.43,224.32v18.8h-1.45v-18.8H72.43z"/>
		<path class="st1" d="M94.75,224.32v18.8h-1.2l-14.29-16.43v16.43h-1.45v-18.8h1.23l14.26,16.43v-16.43H94.75z"/>
		<path class="st1" d="M101.61,224.32v18.8h-1.45v-18.8H101.61z"/>
		<path class="st1" d="M122.66,225.65v1.59c-2.28-1.21-4.51-1.82-6.7-1.82c-2.33,0-4.28,0.79-5.85,2.38
			c-1.57,1.59-2.35,3.57-2.35,5.95c0,2.4,0.79,4.38,2.37,5.93c1.58,1.55,3.59,2.33,6.04,2.33c2.05,0,4.27-0.64,6.69-1.92v1.51
			c-2.22,1.18-4.44,1.76-6.66,1.76c-2.86,0-5.25-0.92-7.15-2.75c-1.91-1.83-2.86-4.12-2.86-6.86c0-2.75,0.97-5.05,2.92-6.9
			c1.95-1.85,4.27-2.77,6.96-2.77C118.17,224.08,120.38,224.6,122.66,225.65z"/>
	</g>
</g>
</svg>
