<svg version="1.1" id="logo" xmlns="http://www.w3.org/2000/svg" xmlns:xlink="http://www.w3.org/1999/xlink" x="0px"
	 y="0px" viewBox="0 0 149.19 48.58" style="enable-background:new 0 0 149.19 48.58;" xml:space="preserve" preserveAspectRatio="none" width="151" height="50">
<style type="text/css">
	.st0{fill:#7DCCF3;}
	.st1{fill:#595757;}
</style>
<g>
	<g>
		<path class="st0" d="M8.07,1.83v0.94H0v5.78h8.07v0.9H0v24.24L6.18,30V13.96h1.25v16.67l-7.2,4.28h22.25v-9.5l-9.76,6.46
			l-0.74-0.78l10.5-6.95v-4.13H12.1v-0.94h10.37v-5.1h1.3v5.1h11.13v-7.64H24.69V2.56H13.44v3.52h-1.1V1.7h21.12v4.39h-1.11V2.56
			h-6.52v8.07h9.08V0H0v1.83H8.07z M19.24,7.13l0.56,0.82l-8.11,5.53l-0.53-0.81L19.24,7.13z"/>
		<polygon class="st0" points="23.78,20.01 23.78,24.01 34.52,31.06 33.75,31.71 23.78,25.22 23.78,34.91 34.91,34.91 34.91,20.01 
					"/>
	</g>
	<g>
		<polygon class="st0" points="50.39,22.24 41.21,22.24 41.21,1.53 69.7,1.53 69.7,22.24 59.47,22.24 59.47,32.48 73,32.48 73,0 
			38.09,0 38.09,34.41 		"/>
		<rect x="42.47" y="2.56" class="st0" width="26.05" height="5.5"/>
		<rect x="42.47" y="8.91" class="st0" width="26.05" height="5.54"/>
		<rect x="42.47" y="15.27" class="st0" width="26.05" height="5.94"/>
		<polygon class="st0" points="58.1,33.42 58.1,22.24 52.25,22.24 39.56,34.91 73,34.91 73,33.42 		"/>
	</g>
	<g>
		<rect x="79.07" y="9.26" class="st0" width="9.45" height="6.1"/>
		<rect x="79.07" y="2.2" class="st0" width="9.45" height="6.02"/>
		<rect x="79.07" y="16.28" class="st0" width="9.45" height="16.23"/>
		<rect x="94.29" y="2.15" class="st0" width="13.7" height="6.06"/>
		<rect x="94.29" y="9.26" class="st0" width="13.7" height="6.19"/>
		<polygon class="st0" points="104.43,27.01 110.95,34.91 111.1,34.91 111.1,23.05 		"/>
		<path class="st0" d="M94.29,16.47v15.24l4.54-2.51v1.4l-5.81,3.32V1.29h16.08V16.5H95.79l7.92,9.66l7.39-4.46V0H76.18v34.91h33.36
			L94.29,16.47z M89.53,33.51h-11.6V1.29h11.6V33.51z"/>
	</g>
	<g>
		<polygon class="st0" points="120.92,2.23 114.28,4.98 114.28,10.49 120.92,10.49 		"/>
		<polygon class="st0" points="120.92,11.53 114.28,11.53 114.28,25.85 120.92,16.78 		"/>
		<path class="st0" d="M143.02,21.42V0h-16.53l-4.23,1.69v8.8h5.89v1.04h-5.89v3.1l6.57,6.87l-0.96,0.57l-5.62-5.82v18.66h20.76
			V22.63h-12.28v-1.21H143.02z M135.41,3.84c0.94,0,1.69,0.76,1.69,1.69c0,0.94-0.76,1.69-1.69,1.69s-1.69-0.76-1.69-1.69
			C133.72,4.6,134.47,3.84,135.41,3.84z M135.41,13.35c0.94,0,1.69,0.76,1.69,1.69s-0.76,1.69-1.69,1.69s-1.69-0.76-1.69-1.69
			S134.47,13.35,135.41,13.35z"/>
		<rect x="144.29" y="22.63" class="st0" width="4.9" height="12.28"/>
		<polygon class="st0" points="123.46,0 114.28,0 114.28,3.88 		"/>
		<rect x="144.29" class="st0" width="4.9" height="21.42"/>
		<polygon class="st0" points="120.92,18.86 114.28,27.92 114.28,34.91 120.92,34.91 		"/>
	</g>
	<g>
		<path class="st1" d="M5.62,39.65v0.58H1.71v3.39h3.52v0.58H1.71v4.39H1.02v-8.93H5.62z"/>
		<path class="st1" d="M13.88,39.65h0.69v4.87c0,1.33-0.35,2.36-1.04,3.09c-0.69,0.72-1.59,1.09-2.7,1.09c-1.1,0-2-0.36-2.69-1.07
			c-0.69-0.72-1.04-1.7-1.04-2.94v-5.03h0.7v5.01c0,1.07,0.28,1.9,0.85,2.5c0.56,0.6,1.29,0.9,2.19,0.9c0.9,0,1.64-0.3,2.2-0.91
			c0.56-0.61,0.85-1.47,0.85-2.59V39.65z"/>
		<path class="st1" d="M22.76,39.65l-4.28,4.46l4.68,4.47h-0.88l-4.68-4.46v4.46h-0.69v-8.93h0.69v4.44l4.28-4.44H22.76z"/>
		<path class="st1" d="M27.95,39.59l4.13,8.99h-0.72l-1.41-3.09h-4.37l-1.41,3.09h-0.72l4.13-8.99H27.95z M29.68,44.92l-1.92-4.21
			l-1.92,4.21H29.68z"/>
		<path class="st1" d="M37.77,43.8l3.39-4.15h0.7v8.93h-0.7v-7.92l-3.4,4.17l-3.41-4.17v7.92h-0.69v-8.93h0.69L37.77,43.8z"/>
		<path class="st1" d="M45.11,39.65v8.93h-0.69v-8.93H45.11z"/>
		<path class="st1" d="M56.72,39.65v0.58h-4.18v3.57h4.07v0.58h-4.07v3.62h4.28v0.58h-4.97v-8.93H56.72z"/>
		<path class="st1" d="M65.38,39.65l-3.47,4.14v4.79h-0.69v-4.79l-3.47-4.14h0.83l2.99,3.54l2.97-3.54H65.38z"/>
		<path class="st1" d="M71.82,39.65v0.58h-4.18v3.57h4.07v0.58h-4.07v3.62h4.28v0.58h-4.97v-8.93H71.82z"/>
		<path class="st1" d="M85.47,40.28v0.75c-1.08-0.58-2.14-0.86-3.18-0.86c-1.11,0-2.03,0.38-2.78,1.13
			c-0.75,0.75-1.12,1.7-1.12,2.83c0,1.14,0.38,2.08,1.13,2.82c0.75,0.74,1.71,1.11,2.87,1.11c0.97,0,2.03-0.3,3.18-0.91v0.72
			c-1.06,0.56-2.11,0.84-3.16,0.84c-1.36,0-2.49-0.44-3.4-1.31c-0.91-0.87-1.36-1.96-1.36-3.26c0-1.31,0.46-2.4,1.39-3.28
			c0.92-0.88,2.03-1.32,3.3-1.32C83.34,39.54,84.39,39.79,85.47,40.28z"/>
		<path class="st1" d="M88.11,39.65v8.35h4.42v0.58h-5.11v-8.93H88.11z"/>
		<path class="st1" d="M94.77,39.65v8.93h-0.69v-8.93H94.77z"/>
		<path class="st1" d="M105.37,39.65v8.93h-0.57l-6.79-7.81v7.81h-0.69v-8.93h0.58l6.77,7.81v-7.81H105.37z"/>
		<path class="st1" d="M108.63,39.65v8.93h-0.69v-8.93H108.63z"/>
		<path class="st1" d="M118.64,40.28v0.75c-1.08-0.58-2.14-0.86-3.18-0.86c-1.11,0-2.03,0.38-2.78,1.13
			c-0.75,0.75-1.12,1.7-1.12,2.83c0,1.14,0.38,2.08,1.12,2.82c0.75,0.74,1.71,1.11,2.87,1.11c0.97,0,2.03-0.3,3.18-0.91v0.72
			c-1.06,0.56-2.11,0.84-3.16,0.84c-1.36,0-2.49-0.44-3.4-1.31c-0.91-0.87-1.36-1.96-1.36-3.26c0-1.31,0.46-2.4,1.39-3.28
			c0.92-0.88,2.03-1.32,3.31-1.32C116.5,39.54,117.55,39.79,118.64,40.28z"/>
	</g>
</g>
</svg>
