<svg version="1.1" id="mes1" xmlns="http://www.w3.org/2000/svg" xmlns:xlink="http://www.w3.org/1999/xlink" x="0px"
	 y="0px" viewBox="0 0 18.48 265.28" style="enable-background:new 0 0 18.48 265.28;" xml:space="preserve" preserveAspectRatio="none" width="20" height="279">
<style type="text/css">
	.st0{fill:#231815;}
	.st1{fill:none;stroke:#231815;stroke-width:0.7;stroke-miterlimit:10;}
</style>
<g>
	<path class="st0" d="M8.16,0.03c0.16,0.32,0.26,0.42,0.96,0.74c0.82,0.34,1.1,0.72,1.1,1.32c0,0.26-0.04,0.38-0.2,1.04
		c-0.3,0.9-0.46,1.66-0.58,2.52c0.32,0.12,0.46,0.14,0.68,0.14c0.5,0,0.88-0.16,1.76-0.7c0.36-0.24,0.56-0.3,0.82-0.3
		c0.46,0,0.78,0.28,0.78,0.64c0,0.6-1.14,1.26-2.22,1.26c-0.66,0-1.2-0.16-1.88-0.56c-0.02,0.5-0.02,0.66-0.02,1
		c0,0.96,0.14,1.94,0.38,2.92c0.16,0.78,0.38,1.42,0.62,2.34c1.18,0.44,2.2,1.12,2.96,1.86c0.64,0.64,0.88,1.02,0.88,1.48
		c0,0.46-0.28,0.78-0.66,0.78c-0.28,0-0.4-0.08-0.72-0.62c-0.64-0.98-1.4-1.72-2.3-2.24c0.02,0.22,0.02,0.4,0.02,0.5
		c0,1.82-1.14,2.92-2.96,2.92c-0.82,0-1.66-0.28-2.06-0.7c-0.16-0.16-0.18-0.22-0.28-0.58c-0.04-0.18-0.1-0.26-0.3-0.42
		c-0.32-0.26-0.44-0.48-0.44-0.84c0-1.36,1.6-2.44,3.58-2.44c0.3,0,0.52,0.02,0.96,0.08c-0.46-1.98-0.68-3.7-0.68-5.24
		c0-0.72,0.06-1.76,0.2-3.38C8.62,2.99,8.7,2.41,8.7,2.15c0-0.26-0.04-0.32-0.42-0.86c-0.16-0.24-0.26-0.5-0.26-0.8
		c0-0.16,0.02-0.26,0.08-0.46C8.12-0.01,8.14-0.01,8.16,0.03z M8.08,13.17c-1.6,0-2.68,0.62-2.68,1.54c0,0.74,0.66,1.18,1.8,1.18
		c1.34,0,2.02-0.68,2.02-2.04c0-0.16-0.02-0.36-0.06-0.58C8.7,13.19,8.46,13.17,8.08,13.17z"/>
	<path class="st0" d="M9.68,26.62c0.14-0.02,0.26-0.04,0.44-0.04c0.82,0,1.54,0.84,1.54,1.82c0,0.4-0.12,0.86-0.42,1.36
		c-0.42,0.62-1.02,1.34-2.28,2.48c-1.36,1.28-1.66,1.58-2.14,2.2C6.56,34.8,6.48,35,6.48,35.34c0,0.32,0.12,0.62,0.4,0.88
		c0.6,0.54,1.18,0.94,1.76,1.38c1.36,1.06,2.26,1.82,2.78,2.64c0.42,0.7,0.56,1.38,0.56,2.2c0,0.86-0.4,1.4-1,1.4
		c-0.44,0-0.6-0.24-0.64-1.04c-0.06-1.36-0.2-1.86-0.8-2.72c-0.46-0.68-0.98-1.22-1.76-1.92c-0.6-0.54-1.08-0.94-1.5-1.36
		c-0.42-0.48-0.58-0.92-0.58-1.42c0-0.44,0.14-0.86,0.4-1.3c0.18-0.32,0.44-0.68,1.94-2.58c1.7-2.22,2.12-2.98,2.12-3.8
		c0-0.42-0.16-0.74-0.52-1C9.6,26.66,9.6,26.64,9.68,26.62z"/>
	<path class="st0" d="M0.24,70.5c2.74-0.78,4.72-2.22,5.62-4.08c0.32-0.62,0.48-1.32,0.52-2.12c1.78,0.42,2.06,0.56,2.06,0.76
		c0,0.2-0.06,0.32-0.68,0.48c-0.9,2.98-3.36,4.74-7.42,5.24C0.22,70.8,0.12,70.54,0.24,70.5z M11.4,68.06c0,0.92,0.2,1.02,2.02,1.02
		c2.04,0,2.74-0.1,3.06-0.58c0.24-0.34,0.4-0.84,0.82-2.2c0.04-0.12,0.26-0.08,0.26,0.04c-0.02,0.9-0.04,1.4-0.04,1.78
		c0,0.28,0.08,0.36,0.32,0.46c0.26,0.12,0.38,0.34,0.38,0.6c0,0.4-0.36,0.7-0.94,0.88c-0.64,0.2-1.78,0.32-4.06,0.32
		c-2.72,0-3.32-0.38-3.32-1.74c0-0.22,0.04-0.58,0.04-1.6V64H5.06v0.42c0,0.42-0.28,0.62-0.92,0.62c-0.46,0-0.64-0.14-0.64-0.54
		c0-0.72,0.1-1.78,0.1-6.24c0-2.64,0-4.02-0.1-5.4c0.74,0.3,1.04,0.44,1.74,0.84h7.68c0.66-0.66,0.76-0.74,0.88-0.74
		c0.14,0,0.26,0.08,0.94,0.62c0.3,0.28,0.36,0.38,0.36,0.5c0,0.18-0.08,0.3-0.54,0.64v2.6c0,4.38,0.12,6.32,0.12,6.94
		c0,0.46-0.32,0.68-0.88,0.68c-0.5,0-0.72-0.16-0.72-0.54V64H11.4V68.06z M13.08,54.2H5.06v2.68h8.02V54.2z M5.06,60.06h8.02v-2.68
		H5.06V60.06z M5.06,63.5h8.02v-2.94H5.06V63.5z"/>
	<path class="st0" d="M4.32,85.75c0.08,0.34,0.28,0.5,0.6,0.5c0.32,0,1.06-0.22,2.4-0.7c1.56-0.56,2.06-0.7,2.54-0.7
		c0.84,0,1.58,0.62,1.58,1.32c0,0.34-0.1,0.68-0.46,1.04c-0.72,0.64-1.62,1.48-2.56,2.42c-0.78,0.76-1.34,1.36-1.82,1.92
		c1.08-0.62,1.68-0.84,2.48-0.84c0.74,0,1.34,0.3,1.72,0.84c0.28,0.44,0.38,0.8,0.5,1.94c0.14,1.5,0.28,1.64,1.46,1.64
		c0.62,0,1.04-0.04,1.6-0.2c0.44-0.1,0.56-0.12,0.68-0.12c0.56,0,1,0.34,1,0.76c0,0.6-0.92,0.9-2.64,0.9
		c-1.56,0-2.44-0.32-2.92-1.06c-0.38-0.62-0.44-1.44-0.54-2.22c-0.14-1.24-0.58-1.74-1.46-1.74c-0.76,0-1.58,0.4-2.26,1.1
		c-0.72,0.74-1.34,1.7-1.9,3.06c-0.24,0.58-0.5,0.84-0.88,0.84c-0.44,0-0.68-0.38-0.68-1.02c0-0.72,0.04-0.78,1.04-2
		c0.82-1,1.56-1.88,2.36-2.82c1.1-1.28,1.74-1.98,2.98-3.3c0.7-0.78,0.9-1.06,0.9-1.3c0-0.18-0.1-0.28-0.3-0.28
		c-0.08,0-0.24,0.04-0.4,0.12c-0.38,0.18-0.64,0.34-1.66,0.84c-1.52,0.78-2.02,0.96-2.44,0.96c-0.58,0-1.16-0.62-1.16-1.28
		c0-0.22,0.04-0.36,0.16-0.62C4.26,85.71,4.3,85.71,4.32,85.75z M7.9,79.45c0.46,0.42,0.92,0.48,1.66,0.56
		c0.8,0.12,1.06,0.2,1.36,0.4c0.32,0.28,0.56,0.7,0.56,1.1c0,0.4-0.16,0.54-0.76,0.58c-0.22,0.02-0.44,0-0.66,0.06
		c-0.22,0.06-0.52,0.16-1.1,0.4c-0.3,0.12-0.44,0.18-1.08,0.4c-0.06,0.02-0.1-0.04-0.06-0.08c0.58-0.38,1.14-0.84,1.96-1.5
		c-0.82-0.36-1.3-0.66-1.6-1.04C8,80.09,7.9,79.83,7.82,79.49C7.82,79.43,7.86,79.43,7.9,79.45z"/>
	<path class="st0" d="M5.72,108c0.18,0.2,0.32,0.26,0.52,0.26c0.26,0,0.4-0.06,1.64-0.86c1.08-0.68,1.68-0.92,2.32-0.92
		c0.98,0,1.82,0.8,1.82,1.74c0,0.66-0.28,1.04-1.8,2.56c-2.3,2.38-3.44,3.72-4.62,5.42c2.2-1.58,3.66-2.18,5.26-2.18
		c2.4,0,4.18,1.84,4.18,4.32c0,2.76-2.08,4.62-5.1,4.62c-1.58,0-2.58-0.7-2.58-1.82c0-0.96,0.86-1.66,1.98-1.66
		c1.2,0,1.86,0.6,2.2,2.02c1.36-0.6,2.04-1.66,2.04-3.28c0-2.14-1.12-3.54-2.88-3.54c-1.34,0-3.22,0.96-4.66,2.34
		c-0.64,0.62-0.88,0.98-1.14,1.7c-0.26,0.68-0.48,0.92-0.84,0.92c-0.26,0-0.4-0.12-0.52-0.38c-0.12-0.26-0.2-0.6-0.2-1.02
		c0-0.58,0.14-0.78,0.78-1.64c0.76-1.12,1.54-2.16,2.46-3.34c0.72-0.84,1.58-1.88,2.38-2.8c1.38-1.66,1.8-2.3,1.8-2.76
		c0-0.24-0.14-0.38-0.4-0.38c-0.24,0-0.56,0.12-1.06,0.5c-0.48,0.32-1.06,0.78-1.42,1.1c-0.46,0.48-0.68,0.6-1.1,0.6
		c-0.6,0-1.22-0.58-1.22-1.18c0-0.16,0.02-0.24,0.08-0.34C5.66,107.96,5.68,107.96,5.72,108z M8.96,120.16
		c-0.56,0-1.02,0.36-1.02,0.82c0,0.58,0.56,0.92,1.5,0.92c0.3,0,0.42-0.02,0.82-0.12C10.12,120.7,9.7,120.16,8.96,120.16z"/>
	<path class="st0" d="M11.48,141.34c1.52,0.62,1.7,0.72,1.7,0.94c0,0.18-0.24,0.28-0.82,0.28c-0.52,0.5-0.86,0.8-1.44,1.18h4.74
		c0.84-1,0.98-1.1,1.1-1.1c0.14,0,0.28,0.1,1.22,0.82c0.4,0.32,0.5,0.46,0.5,0.58c0,0.14-0.06,0.2-0.26,0.2H1.66
		c-0.5,0-0.88,0.04-1.46,0.12L0,143.6c0.64,0.12,1.08,0.14,1.64,0.14H6.7c-0.1-0.08-0.16-0.22-0.22-0.42
		c-0.14-0.58-0.48-1.22-0.94-1.72c-0.06-0.06,0.02-0.16,0.1-0.14c1.22,0.2,2.1,0.86,2.1,1.52c0,0.36-0.14,0.62-0.36,0.76h2.96
		c0.3-0.52,0.54-0.98,0.7-1.4c0.18-0.36,0.28-0.7,0.34-1H4.96v0.14c0,0.42-0.26,0.62-0.82,0.62c-0.42,0-0.58-0.18-0.58-0.54
		c0-0.2,0.04-0.6,0.04-1.94c0-0.82,0-1.26-0.08-2.06c0.68,0.26,0.98,0.4,1.64,0.76h8.02c0.56-0.64,0.68-0.72,0.8-0.72
		s0.24,0.08,0.84,0.6c0.28,0.24,0.38,0.36,0.38,0.5c0,0.12-0.1,0.24-0.52,0.52v0.4c0,1.04,0.04,1.44,0.04,1.56
		c0,0.42-0.24,0.64-0.8,0.64c-0.42,0-0.56-0.16-0.58-0.48H11.48z M13.74,136.3c0.74-0.88,0.88-0.96,1-0.96
		c0.14,0,0.28,0.08,1.1,0.72c0.34,0.3,0.44,0.42,0.44,0.54c0,0.14-0.06,0.2-0.26,0.2H3.62c-0.48,0-0.84,0.04-1.4,0.12l-0.2-0.76
		c0.62,0.12,1.04,0.14,1.58,0.14h4.74v-1.84H2.16c-0.5,0-0.86,0.04-1.44,0.12l-0.2-0.76c0.66,0.1,1.06,0.14,1.62,0.14h6.2v-0.1
		c0-0.64,0-1.12-0.1-1.94c1.94,0.24,2.18,0.4,2.18,0.62c0,0.14-0.14,0.3-0.66,0.5v0.92h5.44c0.82-0.96,0.98-1.06,1.1-1.06
		c0.14,0,0.28,0.1,1.14,0.8c0.38,0.32,0.48,0.46,0.48,0.58c0,0.12-0.06,0.18-0.26,0.18h-7.9v1.84H13.74z M4.54,149.7
		c0,0.4-0.3,0.6-0.84,0.6c-0.46,0-0.64-0.16-0.64-0.5c0-0.3,0.06-0.76,0.06-2.46c0-0.94-0.02-1.48-0.12-2.26
		c0.76,0.28,1.04,0.4,1.7,0.76h8.96c0.58-0.68,0.68-0.74,0.82-0.74c0.12,0,0.24,0.06,0.9,0.6c0.3,0.26,0.38,0.36,0.38,0.5
		c0,0.14-0.06,0.24-0.5,0.56v0.62c0,1.46,0.04,2.06,0.04,2.24c0,0.4-0.32,0.62-0.86,0.62c-0.44,0-0.62-0.18-0.62-0.54v-0.42H4.54
		V149.7z M13.82,146.34H4.54v2.44h9.28V146.34z M13.34,138.82H4.96v2.02h8.38V138.82z"/>
	<path class="st0" d="M12.4,162.74c0.12,0.82,0.2,1.5,0.28,2.2c0.12,0.98,0.2,1.92,0.2,2.84c0,2.7-0.68,4.6-2,5.84
		c-1.04,1-2.42,1.54-3.88,1.54c-3.08,0-5.04-2.08-5.04-5.36c0-1.94,0.62-3.8,2-6c0.68-1.08,1.2-1.78,2.26-2.9
		c-0.54,0.14-0.78,0.18-1.12,0.18c-0.72,0-1.24-0.46-1.24-1.12c0-0.16,0-0.26,0.08-0.44c0.02-0.04,0.06-0.02,0.08,0.02
		c0.18,0.34,0.34,0.48,0.54,0.48c0.38,0,1.26-0.3,1.94-0.62c0.36-0.2,0.46-0.24,0.7-0.24c0.64,0,1.18,0.44,1.18,0.94
		c0,0.38-0.18,0.5-1.06,0.74c-0.88,0.22-1.46,0.88-1.68,1.82c-0.08,0.32-0.14,0.42-0.44,0.86c-0.38,0.58-0.96,1.56-1.34,2.42
		c-0.54,1.18-0.76,2.24-0.76,3.38c0,2.76,1.4,4.36,3.86,4.36c3.34,0,5.2-2.86,5.2-7.96c0-1.16-0.12-2.58-0.3-3.82
		c-0.08-0.78-0.16-0.94-0.44-1.04c-0.16-0.06-0.22-0.1-0.22-0.2c0-0.1,0.1-0.26,0.22-0.38c0.14-0.12,0.32-0.2,0.5-0.2
		c0.28,0,0.72,0.18,1.02,0.4c0.26,0.2,0.42,0.4,0.42,0.62c0,0.04,0,0.1-0.02,0.2c-0.04,0.16-0.06,0.24-0.06,0.36
		c0,0.48,0.24,1.42,0.52,2.22c0.6,1.62,1.32,2.6,2.64,3.52c0.46,0.32,0.6,0.54,0.6,0.92c0,0.42-0.3,0.8-0.7,0.8
		c-0.48,0-1.12-0.48-1.84-1.42c-0.96-1.26-1.46-2.46-2.02-4.98L12.4,162.74z M13.92,159.7c0.34,0,0.68,0.04,1.04,0.14
		c1,0.26,1.74,0.88,1.74,1.58c0,0.38-0.28,0.68-0.62,0.68c-0.28,0-0.36-0.06-0.72-0.78c-0.38-0.66-0.9-1.22-1.46-1.56
		C13.86,159.74,13.88,159.7,13.92,159.7z M15.58,158.48c0.18-0.02,0.3-0.02,0.46-0.02c1.46,0,2.52,0.66,2.52,1.52
		c0,0.36-0.22,0.64-0.52,0.64c-0.26,0-0.38-0.1-0.7-0.58c-0.5-0.7-0.98-1.1-1.76-1.5C15.54,158.52,15.54,158.5,15.58,158.48z"/>
	<path class="st0" d="M6.24,184.69c0.22,0.3,0.26,0.32,0.94,0.62c1.4,0.62,1.76,1.14,1.76,2.58c0,0.16-0.02,0.62-0.04,1.14
		c-0.04,0.8-0.04,1.46-0.04,1.84c0,1.6,0.18,2.06,0.8,2.06c0.34,0,0.78-0.16,1.36-0.54c0.4-0.26,0.58-0.34,0.84-0.34
		c0.54,0,1.02,0.42,1.02,0.88c0,0.34-0.2,0.58-0.72,0.74c-0.18,0.06-0.36,0.12-1.16,0.3c-0.42,0.1-0.9,0.24-1.38,0.46
		c-1.3,0.54-2.26,1.16-2.9,1.84c-0.58,0.58-0.86,1.18-0.86,1.86c0,1.3,1.06,2.02,2.98,2.02c0.86,0,1.4-0.08,2.86-0.42
		c0.36-0.1,0.6-0.14,0.82-0.14c0.5,0,0.88,0.26,0.88,0.64c0,0.74-1.62,1.28-3.76,1.28c-2.92,0-4.54-1.18-4.54-3.28
		c0-1.68,1.08-3.06,3.56-4.62c-0.78-0.42-1.06-0.96-1.06-2.06c0-0.34,0.02-0.92,0.08-1.68c0.1-1.08,0.14-1.54,0.14-2.06
		c0-0.46-0.02-0.72-0.12-0.94c-0.1-0.22-0.3-0.36-0.64-0.62c-0.52-0.36-0.74-0.6-0.84-1c-0.04-0.16-0.06-0.38-0.04-0.56
		C6.2,184.65,6.22,184.65,6.24,184.69z"/>
</g>
<line class="st1" x1="9.28" y1="209.94" x2="9.28" y2="265.28"/>
</svg>
