<svg version="1.1" id="mes2" xmlns="http://www.w3.org/2000/svg" xmlns:xlink="http://www.w3.org/1999/xlink" x="0px"
	 y="0px" viewBox="0 0 19.11 212.15" style="enable-background:new 0 0 19.11 212.15;" xml:space="preserve" preserveAspectRatio="none" width="20" height="223">
<style type="text/css">
	.st0{fill:#231815;}
	.st1{fill:none;stroke:#231815;stroke-width:0.7;stroke-miterlimit:10;}
</style>
<g>
	<path class="st0" d="M14.99,2.82c0.94-1.12,1.08-1.22,1.2-1.22c0.14,0,0.28,0.1,1.24,0.9c0.48,0.38,0.56,0.5,0.56,0.62
		c0,0.14-0.06,0.2-0.26,0.2H4.99c-1.14,1.84-2.54,3.3-4.22,4.32C0.65,7.72,0.45,7.52,0.55,7.42C2.03,6,3.47,3.74,4.25,1.78
		C4.49,1.16,4.65,0.56,4.75,0c1.4,0.38,2.12,0.72,2.12,0.98c0,0.2-0.16,0.3-0.82,0.4c-0.24,0.5-0.48,0.98-0.76,1.44H14.99z
		 M15.43,14.14c0.82-0.96,0.98-1.06,1.1-1.06c0.12,0,0.28,0.1,1.14,0.8c0.42,0.3,0.52,0.46,0.52,0.58s-0.08,0.18-0.28,0.18h-3.4
		c-0.1,0.48-0.22,0.9-0.34,1.24c-0.36,1.1-0.8,1.76-1.38,2.16c-0.34,0.22-0.74,0.36-1.24,0.36c-0.34,0-0.36-0.04-0.44-0.48
		c-0.1-0.52-0.38-0.74-1.98-1.24c-0.12-0.04-0.06-0.3,0.06-0.28c1.3,0.2,1.88,0.26,2.44,0.26c0.72,0,0.96-0.44,1.36-2.02H4.03
		c-0.1,0.3-0.2,0.58-0.3,0.86c-0.1,0.3-0.4,0.44-0.86,0.44c-0.48,0-0.72-0.14-0.72-0.38c0-0.12,0.04-0.26,0.16-0.6
		c0.58-1.62,1.06-3.24,1.42-4.78h-1.6c-0.44,0-0.8,0.02-1.3,0.14L0.61,9.54c0.6,0.1,0.98,0.14,1.5,0.14h1.74
		c0.22-0.9,0.38-1.76,0.52-2.6c0.16-0.92,0.24-1.66,0.26-2.32c0.68,0.32,0.98,0.48,1.62,0.9h7.56c0.58-0.64,0.68-0.72,0.8-0.72
		c0.14,0,0.26,0.08,0.94,0.62c0.34,0.28,0.4,0.4,0.4,0.52c0,0.18-0.14,0.3-0.58,0.52c-0.06,1.14-0.14,2.16-0.22,3.08h1
		c0.84-1.02,0.98-1.1,1.1-1.1c0.14,0,0.28,0.1,1.18,0.84c0.4,0.3,0.5,0.44,0.5,0.56c0,0.12-0.08,0.2-0.28,0.2h-3.54
		c-0.1,1.32-0.26,2.66-0.5,3.96H15.43z M7.85,14.14c0.3-1.32,0.56-2.64,0.78-3.96h-3.4c-0.3,1.34-0.64,2.66-1.06,3.96H7.85z
		 M8.71,9.68c0.16-1.18,0.3-2.34,0.4-3.52H5.99c-0.16,1.1-0.38,2.3-0.66,3.52H8.71z M13.11,14.14c0.26-1.3,0.44-2.64,0.56-3.96
		h-3.62c-0.18,1.34-0.46,2.66-0.76,3.96H13.11z M10.55,6.16c-0.1,1.18-0.26,2.36-0.42,3.52h3.6c0.1-1.06,0.18-2.24,0.26-3.52H10.55z
		"/>
	<path class="st0" d="M5.39,43.62c0,0.48-0.32,0.66-0.96,0.66c-0.48,0-0.66-0.14-0.66-0.54c0-1.04,0.12-2.5,0.12-9.2
		c0-3.66-0.02-5.44-0.12-7.06c0.78,0.3,1.12,0.46,1.86,0.9h8.28c0.7-0.74,0.8-0.8,0.92-0.8c0.16,0,0.28,0.06,1,0.66
		c0.32,0.28,0.38,0.4,0.38,0.52c0,0.18-0.1,0.3-0.56,0.6v3.98c0,6.42,0.1,9.22,0.1,10.1c0,0.48-0.32,0.68-0.98,0.68
		c-0.48,0-0.66-0.16-0.66-0.56v-0.92H5.39V43.62z M14.11,28.88H5.39v6.22h8.72V28.88z M5.39,42.14h8.72V35.6H5.39V42.14z"/>
	<path class="st0" d="M8.91,68.54c1.66-0.38,2.86-0.86,3.94-1.6c2.04-1.32,3.14-3.38,3.14-5.92c0-3.78-2.46-6.38-6.02-6.38
		c-0.2,0-0.36,0-0.66,0.04c0.84,1.18,1.2,2.36,1.2,3.68c0,2.76-1.38,5.68-3.38,7.2c-0.68,0.54-1.52,0.92-2.18,0.92
		c-0.52,0-0.78-0.22-0.92-0.74c-0.14-0.54-0.18-0.56-0.92-0.86c-0.72-0.28-1.2-1.52-1.2-3.04c0-4.28,3.62-7.8,8.1-7.8
		c4.38,0,7.6,3.04,7.6,7.16c0,4.22-3.28,7.08-7.9,7.44c-0.24,0.02-0.5,0.04-0.78,0.06C8.81,68.7,8.79,68.56,8.91,68.54z M3.25,61.82
		c0,1.8,0.76,3.1,1.82,3.1c0.66,0,1.44-0.54,2.26-1.54c1.36-1.56,2.24-3.86,2.24-5.94c0-0.72-0.04-1.64-0.64-2.72
		C5.61,55.26,3.25,58.22,3.25,61.82z"/>
	<path class="st0" d="M13.41,80.8c1.06,0.4,1.6,0.98,1.62,1.56c0,0.48-0.3,0.84-0.68,0.88c1.2,0.8,1.56,1.06,1.56,1.32
		c0,0.1-0.1,0.18-0.32,0.18c-0.16,0-0.38-0.04-0.7-0.12c-1.74,0.52-3.52,0.9-5.44,1.14c0.92,0.14,1.34,0.24,1.34,0.46
		c0,0.14-0.1,0.24-0.64,0.46c-0.02,0.52-0.08,1.12-0.18,1.66h5.8c0.88-1.06,1.02-1.16,1.14-1.16c0.14,0,0.28,0.1,1.22,0.86
		c0.42,0.36,0.52,0.48,0.52,0.6c0,0.14-0.08,0.2-0.26,0.2h-8.22c0.92,1.74,2.12,2.88,3.64,3.7c1.48,0.82,3.24,1.26,5.16,1.52
		c0.08,0.02,0.06,0.16-0.02,0.18c-0.64,0.22-0.84,0.46-1.08,1.08c-0.08,0.26-0.16,0.34-0.34,0.34c-0.18,0-0.6-0.12-0.96-0.24
		c-1.14-0.4-2.34-1.02-3.32-1.8c-1.5-1.16-2.64-2.54-3.46-4.54c-0.42,1.56-1.18,2.78-2.26,3.78c-1.6,1.48-3.82,2.5-6.66,2.94
		c-0.14,0.02-0.28-0.28-0.14-0.32c2.78-0.88,4.48-1.84,6-3.5c0.76-0.84,1.32-1.88,1.62-3.14h-5.8c-0.52,0-0.86,0.04-1.36,0.12
		L0.97,88.2c0.62,0.1,1,0.14,1.56,0.14h5.94c0.1-0.6,0.16-1.22,0.16-1.9c0-0.16-0.02-0.32-0.02-0.58c-1.76,0.2-3.64,0.28-5.7,0.26
		c-0.14,0-0.2-0.32-0.06-0.34c3.7-0.32,6.8-0.94,9.18-1.68c0.84-0.26,1.5-0.56,2.06-0.86c-0.24-0.04-0.36-0.24-0.52-0.78
		c-0.24-0.78-0.46-1.26-0.86-1.66h-1.16c-0.72,1.16-1.58,2.18-2.72,3.08c-0.1,0.08-0.3-0.08-0.22-0.18
		c0.94-1.22,1.74-2.82,2.24-4.38c0.22-0.66,0.36-1.28,0.42-1.78c1.36,0.32,2.08,0.54,2.08,0.8c0,0.2-0.18,0.32-0.74,0.42
		c-0.24,0.54-0.48,1.06-0.76,1.54h4.08c0.8-0.98,0.96-1.08,1.08-1.08s0.28,0.1,1.16,0.82c0.38,0.32,0.48,0.44,0.48,0.56
		c0,0.14-0.06,0.2-0.26,0.2H13.41z M7.57,80.3c0.72-0.9,0.86-1,0.98-1c0.14,0,0.28,0.1,1.02,0.78c0.32,0.28,0.42,0.4,0.42,0.52
		c0,0.14-0.06,0.2-0.28,0.2H5.73c1.08,0.7,1.72,1.54,1.72,2.2c0,0.54-0.36,1-0.8,1c-0.44,0-0.62-0.24-0.66-0.96
		c-0.08-0.98-0.3-1.62-0.74-2.24H4.09c-0.78,1.3-1.68,2.32-3.12,3.54c-0.1,0.1-0.36-0.12-0.26-0.22c1.2-1.38,1.98-2.94,2.58-4.6
		c0.28-0.76,0.5-1.48,0.54-2.12c1.6,0.42,2.1,0.62,2.1,0.88c0,0.2-0.16,0.28-0.76,0.4c-0.28,0.6-0.54,1.14-0.8,1.62H7.57z"/>
	<path class="st0" d="M8.13,110.26c0.66-0.84,0.76-0.9,0.88-0.9c0.18,0,0.28,0.06,0.94,0.68c0.26,0.28,0.34,0.4,0.34,0.52
		c0,0.12-0.08,0.2-0.28,0.2H2.93v0.84c0,2.2-0.14,3.86-0.5,5.42c-0.4,1.78-1.04,3.2-2.18,4.62c-0.08,0.1-0.3-0.06-0.24-0.16
		c0.72-1.52,1.14-2.9,1.34-4.7c0.18-1.26,0.26-2.6,0.26-4.34c0-1.38-0.02-2.02-0.12-3c0.68,0.28,0.96,0.42,1.68,0.82h2.92
		c0.28-0.6,0.5-1.18,0.66-1.72c0.16-0.52,0.28-1,0.36-1.46c1.52,0.58,1.7,0.68,1.7,0.9c0,0.16-0.12,0.28-0.66,0.36
		c-0.66,0.9-1.08,1.42-1.56,1.92H8.13z M7.91,106.26c0.58-0.82,0.74-0.92,0.86-0.92s0.26,0.1,1.02,0.74
		c0.28,0.24,0.36,0.38,0.36,0.5c0,0.12-0.06,0.18-0.26,0.18H2.57c-0.4,0-0.7,0.04-1.2,0.12l-0.2-0.76c0.52,0.12,0.88,0.14,1.38,0.14
		h2.36v-1.04c0-0.36-0.02-0.68-0.1-1.34c1.88,0.22,2.08,0.36,2.08,0.58c0,0.12-0.14,0.26-0.62,0.5v1.3H7.91z M1.91,121.34
		c1.98-0.8,3.9-1.94,5.26-3.34c0.42-0.4,0.76-0.82,0.96-1.18c1.48,0.9,1.62,1.02,1.62,1.26c0,0.18-0.16,0.24-0.88,0.2
		c-2.08,1.78-3.94,2.72-6.86,3.3C1.91,121.6,1.81,121.38,1.91,121.34z M2.89,117.48c1.6-0.68,2.96-1.6,3.92-2.48
		c0.48-0.4,0.84-0.78,1.06-1.16c1.1,0.78,1.46,1.08,1.46,1.26c0,0.16-0.2,0.26-0.84,0.18c-1.76,1.32-3.08,1.94-5.5,2.48
		C2.87,117.78,2.77,117.52,2.89,117.48z M3.67,109.12c-0.06-0.74-0.24-1.32-0.6-1.9c-0.04-0.06,0.04-0.16,0.12-0.12
		c1.08,0.56,1.76,1.34,1.76,2c0,0.48-0.32,0.84-0.7,0.84C3.85,109.94,3.69,109.72,3.67,109.12z M3.43,114.16
		c1.18-0.52,2.28-1.22,3.08-1.96c0.36-0.36,0.7-0.7,0.92-1.06c1.26,0.88,1.44,1.08,1.44,1.26c0,0.18-0.24,0.26-0.84,0.16
		c-1.26,0.98-2.6,1.56-4.5,1.9C3.39,114.48,3.31,114.22,3.43,114.16z M7.79,121.94c1.22-0.5,2.56-1.36,3.44-2.16
		c0.48-0.44,0.84-0.82,1-1.16c1.24,0.7,1.72,1.04,1.72,1.24c0,0.16-0.26,0.34-0.94,0.18c-1.44,1.1-2.96,1.78-5.14,2.16
		C7.75,122.22,7.67,121.98,7.79,121.94z M11.91,118.02c0,0.4-0.28,0.6-0.84,0.6c-0.4,0-0.6-0.16-0.6-0.46c0-0.64,0.1-1.7,0.1-5.44
		c0-2.42-0.02-3.76-0.12-5.18c0.7,0.28,0.96,0.46,1.62,0.82h0.96c0.22-0.88,0.38-1.76,0.44-2.66h-2.02c-0.46,0-0.78,0.04-1.3,0.12
		l-0.22-0.76c0.6,0.12,0.96,0.14,1.48,0.14h5.12c0.78-0.92,0.92-1.02,1.04-1.02c0.14,0,0.28,0.1,1.1,0.8
		c0.34,0.28,0.44,0.42,0.44,0.54s-0.06,0.18-0.26,0.18h-3.72c-0.46,0.92-0.94,1.82-1.54,2.66h2.74c0.56-0.68,0.66-0.76,0.78-0.76
		c0.16,0,0.28,0.08,0.92,0.6c0.3,0.28,0.38,0.4,0.38,0.52c0,0.18-0.1,0.3-0.54,0.58v2.3c0,3.94,0.08,5.86,0.08,6.44
		c0,0.44-0.3,0.64-0.86,0.64c-0.42,0-0.6-0.14-0.6-0.5v-0.48h-4.58V118.02z M16.49,108.86h-4.58v2.34h4.58V108.86z M11.91,114.08
		h4.58v-2.38h-4.58V114.08z M11.91,117.2h4.58v-2.62h-4.58V117.2z M17.55,121.62c-0.98-1.26-1.54-1.8-2.8-2.5
		c-0.06-0.04-0.02-0.22,0.06-0.2c2.56,0.36,4.04,1.32,4.04,2.4c0,0.44-0.28,0.76-0.66,0.76C17.97,122.08,17.79,121.96,17.55,121.62z
		"/>
	<path class="st0" d="M4.51,133.26c0.14,0.52,0.3,0.66,0.72,0.66c0.42,0,1.26-0.12,2.04-0.32c0.2-0.64,0.3-1.08,0.3-1.44
		c0-0.28-0.1-0.42-0.38-0.64c-0.2-0.14-0.24-0.18-0.24-0.26c0-0.22,0.32-0.46,0.66-0.46c0.66,0,1.26,0.52,1.28,1.04
		c0.5,0.18,1,0.32,1.32,0.32c0.22,0,0.44-0.06,0.66-0.06c0.38,0,0.66,0.26,0.66,0.64c0,0.68-1.08,1.32-3.56,2.04
		c-0.54,1.22-1,2.16-1.64,3.32c1.04-0.66,1.64-0.92,2.2-0.92c0.76,0,1.16,0.36,1.42,1.16c0.24,0.78,0.3,1.62,0.36,2.54
		c1.44-2.32,3.04-3.54,4.68-3.54c1.18,0,2.12,0.88,2.12,2c0,0.78-0.4,1.5-1.1,1.94c-0.72,0.48-1.42,0.7-3.96,1.24
		c-0.84,0.2-1.12,0.24-1.6,0.4c-0.04,0.34-0.04,0.58-0.04,1.4c0,1.08-0.18,1.42-0.62,1.42c-0.44,0-0.86-0.48-0.86-1.04
		c0-0.14,0.04-0.28,0.1-0.6c0.06-0.26,0.08-0.56,0.1-0.86c-1.22,0.48-1.76,1.08-1.76,1.86c0,0.88,0.78,1.42,2.14,1.42
		c0.64,0,1.26-0.1,1.98-0.28c0.62-0.16,0.68-0.18,0.88-0.18c0.54,0,0.94,0.3,0.94,0.7c0,0.28-0.16,0.48-0.52,0.66
		c-0.52,0.24-1.72,0.42-2.66,0.42c-2.14,0-3.48-0.92-3.48-2.38c0-1.24,0.76-2.04,2.52-2.74c0.04-0.5,0.08-1.08,0.08-1.86
		c0-2.52-0.18-3.12-0.88-3.12c-0.52,0-1.42,0.54-2.18,1.34c-0.56,0.58-1.16,1.32-1.72,2.14c-0.7,1.02-0.84,1.22-1.18,1.22
		c-0.38,0-0.58-0.44-0.58-1.22c0-0.52,0.14-0.74,0.72-1.16c0.48-0.34,0.9-0.84,1.5-1.66c0.84-1.24,1.32-2.1,1.9-3.42
		c-0.58,0.1-1.02,0.16-1.36,0.16c-0.76,0-1.22-0.42-1.22-1.12c0-0.24,0.04-0.46,0.16-0.78C4.43,133.18,4.49,133.2,4.51,133.26z
		 M9.87,132.78c-0.32-0.26-0.64-0.52-1-0.78c-0.08,0.42-0.24,0.9-0.4,1.34C9.09,133.14,9.47,133,9.87,132.78z M11.85,141.94
		c2.88-0.92,3.74-1.54,3.74-2.72c0-0.74-0.46-1.22-1.2-1.22c-1.6,0-3.4,2.02-3.9,4.38C11.19,142.16,11.25,142.12,11.85,141.94z"/>
</g>
<line class="st1" x1="10.74" y1="156.82" x2="10.74" y2="212.15"/>
</svg>
