<svg version="1.1" id="mes3" xmlns="http://www.w3.org/2000/svg" xmlns:xlink="http://www.w3.org/1999/xlink" x="0px"
	 y="0px" viewBox="0 0 18.59 259.44" style="enable-background:new 0 0 18.59 259.44;" xml:space="preserve" preserveAspectRatio="none" width="20" height="273">
<style type="text/css">
	.st0{fill:#231815;}
</style>
<g>
	<path class="st0" d="M2.57,2.46c0-1.12-0.02-1.8-0.1-2.46c1.92,0.18,2.16,0.34,2.16,0.54c0,0.12-0.14,0.28-0.66,0.52v2.28h2.76
		c0.74-0.9,0.88-1,1-1c0.14,0,0.28,0.1,1.04,0.76c0.34,0.3,0.44,0.44,0.44,0.56S9.13,3.84,8.95,3.84H3.97v3.38
		c1.62-0.24,3.36-0.6,5.02-1.02c0.1-0.02,0.14,0.2,0.06,0.24C7.23,7.34,4.61,8.18,1.63,8.9C1.49,9.38,1.39,9.52,1.19,9.52
		c-0.2,0-0.42-0.48-0.82-1.98c0.36,0,0.7-0.02,1.26-0.06c0.3-0.02,0.62-0.06,0.94-0.08V2.46z M7.43,10.36
		c0.2-0.48,0.36-0.9,0.52-1.4C8.07,8.58,8.17,8.2,8.23,7.78c1.4,0.46,1.9,0.7,1.9,0.9s-0.2,0.28-0.8,0.34
		c-0.52,0.58-0.82,0.9-1.32,1.34h5.5c0.6-0.68,0.7-0.74,0.82-0.74c0.14,0,0.26,0.06,0.9,0.62c0.32,0.24,0.4,0.38,0.4,0.5
		c0,0.14-0.02,0.18-0.56,0.58v1.58c0,2.88,0.08,4.3,0.08,4.72c0,0.46-0.3,0.66-0.92,0.66c-0.4,0-0.58-0.16-0.58-0.52v-0.64h-8.5
		v0.52c0,0.44-0.28,0.64-0.88,0.64c-0.46,0-0.62-0.18-0.62-0.62c0-0.46,0.08-1.3,0.08-4.18c0-1.82-0.02-2.78-0.1-3.96
		c0.72,0.3,1.02,0.46,1.7,0.84H7.43z M13.65,10.86h-8.5v2.54h8.5V10.86z M5.15,16.62h8.5V13.9h-8.5V16.62z M11.39,6.26
		c0,0.74,0.32,0.84,2.56,0.84c1.62,0,2.24-0.08,2.7-0.38c0.42-0.24,0.64-0.74,1.1-2.02c0.02-0.08,0.18-0.02,0.18,0.06
		c-0.04,0.52-0.12,1.32-0.12,1.52c0,0.24,0.06,0.3,0.24,0.38c0.3,0.12,0.4,0.3,0.4,0.56c0,0.4-0.4,0.7-1.1,0.9
		c-0.64,0.16-1.7,0.26-3.76,0.26c-2.78,0-3.6-0.4-3.6-1.8c0-0.4,0.02-0.96,0.02-3.16c0-1.6-0.02-2.46-0.1-3.42
		c2,0.22,2.2,0.3,2.2,0.56c0,0.18-0.16,0.32-0.72,0.54v3.06c1.32-0.6,2.52-1.3,3.42-2.02c0.58-0.48,1.04-0.92,1.38-1.36
		c0.98,0.66,1.54,1.16,1.54,1.38c0,0.22-0.26,0.32-0.96,0.18c-1.8,1.1-3.16,1.66-5.38,2.22V6.26z"/>
	<path class="st0" d="M3.91,31.2c0.28,0.52,0.74,0.74,1.52,0.74c0.88,0,2.18-0.28,3.42-0.76C8.09,30.2,7.77,29.4,7.77,28.5
		c0-0.96,0.52-1.66,1.24-1.66c0.4,0,0.5,0.1,0.74,0.62c0.14,0.36,0.44,0.64,1.04,1c0.54,0.38,0.96,0.52,1.44,0.52
		c0.16,0,0.32-0.02,0.5-0.02c0.38,0,0.64,0.24,0.64,0.6c0,0.66-1.08,1.52-2.78,2.26c0.34,0.36,0.54,0.58,1.18,1.2
		c1.46,1.46,2,2.42,2,3.48c0,0.92-0.5,1.6-1.2,1.6c-0.32,0-0.44-0.1-0.7-0.52c-0.34-0.56-0.48-0.64-2.12-1.14
		c-0.06-0.02-0.06-0.1,0-0.1c0.68,0.06,1.48,0.14,2.06,0.14c0.42,0,0.54-0.1,0.54-0.38c0-0.42-0.34-1.14-0.88-1.82
		c-0.42-0.58-1.02-1.26-1.78-2.08c-1.22,0.5-2.52,0.78-3.64,0.78c-1.34,0-2.12-0.6-2.22-1.74C3.83,31.18,3.89,31.16,3.91,31.2z
		 M7.53,36.78c-0.86,0.66-1.2,1.32-1.2,2.24c0,1.44,1.04,2.2,3,2.2c0.32,0,0.68-0.02,0.98-0.04c0.34-0.04,0.7-0.06,0.8-0.06
		c0.5,0,0.84,0.28,0.84,0.68c0,0.6-0.92,0.94-2.42,0.94c-2.54,0-4.2-1.22-4.2-3.08c0-1.4,0.7-2.34,2.16-2.98
		C7.57,36.66,7.59,36.74,7.53,36.78z M11.55,29.72c-0.28-0.24-0.4-0.36-0.86-0.76c-0.46-0.42-0.6-0.56-0.86-0.8
		c-0.18-0.16-0.3-0.22-0.42-0.22c-0.28,0-0.46,0.34-0.46,0.86c0,0.66,0.24,1.24,0.82,2.02C10.65,30.4,11.15,30.12,11.55,29.72z"/>
	<path class="st0" d="M13.41,59.12c0.38,0,0.62,0.24,0.62,0.58c0,0.4-0.34,0.74-1.02,1.08c-0.9,0.44-1.8,0.72-2.98,0.94
		c0.08,1.06,0.14,1.64,0.48,3.56c2.26,0.72,4.12,2.2,4.12,3.24c0,0.38-0.24,0.64-0.58,0.64c-0.28,0-0.38-0.08-0.88-0.66
		c-0.82-1-1.44-1.5-2.48-1.92c0.06,0.32,0.08,0.5,0.08,0.7c0,1.64-1.2,2.68-3.04,2.68c-1.24,0-2.12-0.38-2.32-1.08
		c-0.1-0.36-0.1-0.36-0.42-0.56c-0.26-0.2-0.42-0.5-0.42-0.84c0-1.4,1.64-2.48,3.76-2.48c0.36,0,0.6,0.02,1.02,0.1
		c-0.18-1.36-0.24-2.1-0.3-3.22C8.37,61.96,7.91,62,7.41,62c-1.9,0-2.68-0.56-3.08-2.24c0-0.04,0.02-0.06,0.06-0.04
		c0.64,0.92,1.22,1.2,2.42,1.2c0.64,0,1.38-0.06,2.2-0.22c0-1.1,0.04-1.88,0.1-2.84c-0.44,0.04-0.64,0.04-1.02,0.02
		c-1.08-0.08-1.78-0.7-2.02-1.7c-0.02-0.06,0.02-0.08,0.06-0.04c0.44,0.5,0.86,0.68,1.58,0.68c0.52,0,0.94-0.04,1.46-0.16
		c0.06-0.72,0.14-1.74,0.14-2c0-0.96-0.26-1.5-1.22-1.54c-0.06,0-0.08-0.04-0.04-0.1c0.26-0.34,0.58-0.48,0.98-0.48
		c0.84,0,1.62,0.76,1.62,1.6c0,0.4-0.06,0.76-0.2,1.22c-0.06,0.3-0.14,0.6-0.24,1.04c0.42-0.14,0.74-0.26,1.04-0.42
		c0.3-0.18,0.5-0.22,0.7-0.22c0.36,0,0.58,0.2,0.6,0.52c0,0.36-0.26,0.62-0.84,0.9c-0.44,0.22-0.98,0.4-1.62,0.56
		c-0.08,0.8-0.12,1.54-0.12,2.04c0,0.3,0,0.5,0.02,0.74c0.96-0.2,1.58-0.42,2.14-0.74c-0.56-0.66-0.92-1.04-1.44-1.7
		c-0.04-0.04,0-0.12,0.06-0.08c1.5,1.04,1.66,1.12,2.22,1.12H13.41z M8.15,66.08c-1.64,0-2.7,0.6-2.7,1.54
		c0,0.68,0.8,1.16,1.94,1.16c1.38,0,2.1-0.64,2.1-1.88c0-0.2-0.02-0.4-0.04-0.64C8.91,66.14,8.59,66.08,8.15,66.08z"/>
	<path class="st0" d="M3.65,79.37c1.08,0.38,1.86,1.58,1.86,2.78c0,0.68-0.1,1.18-0.58,2.6c-0.8,2.38-1.1,3.76-1.1,4.96
		c0,0.86,0.14,1.38,0.54,2.16c0.72-1.24,1.44-2.66,2.1-4.04c0.04-0.06,0.12-0.02,0.1,0.04c-0.2,0.68-0.34,1.1-0.72,2.42
		c-0.36,1.2-0.48,1.74-0.48,2.1c0,0.2,0.04,0.38,0.16,0.66c0.18,0.36,0.2,0.46,0.2,0.66c0,0.42-0.28,0.74-0.66,0.74
		c-1.22,0-2.22-2.14-2.22-4.8c0-1.42,0.22-2.86,0.86-5.74c0.32-1.48,0.42-2.12,0.42-2.72c0-0.74-0.12-1.2-0.54-1.78
		C3.57,79.37,3.59,79.35,3.65,79.37z M8.99,89.69c0.54,1.5,1.58,2.28,3.1,2.28c0.98,0,1.72-0.16,3-0.66
		c0.28-0.12,0.42-0.16,0.58-0.16c0.48,0,0.9,0.4,0.9,0.82c0,0.72-1.6,1.38-3.4,1.38c-1.52,0-2.68-0.44-3.38-1.24
		c-0.54-0.62-0.84-1.34-0.9-2.42C8.89,89.63,8.97,89.63,8.99,89.69z M9.83,81.63c0.46,0.36,0.82,0.48,1.3,0.48
		c0.34,0,0.76-0.08,1.22-0.2c0.46-0.14,0.88-0.34,1.36-0.58c0.34-0.2,0.54-0.26,0.72-0.26c0.46,0,0.98,0.38,0.98,0.8
		c0,0.68-1.7,1.42-3.18,1.42c-1.28,0-2.06-0.52-2.46-1.62C9.75,81.63,9.79,81.59,9.83,81.63z"/>
	<path class="st0" d="M2.37,107.4c0.6,0.78,1.44,1.14,2.66,1.14c0.44,0,0.74-0.02,1.26-0.12c0.06-1.42,0.08-1.98,0.08-2.5
		c0-0.88-0.06-1.02-0.44-1.26c-0.2-0.12-0.26-0.2-0.26-0.36c0-0.32,0.3-0.54,0.66-0.54c0.76,0,1.52,0.68,1.52,1.26
		c0,0.18-0.04,0.38-0.08,0.6c0.56,0.42,1.02,0.7,1.44,0.82c0.26,0.08,0.48,0.12,0.74,0.14c0.34,0,0.6,0.3,0.6,0.62
		c0,0.92-1.42,1.88-3.26,2.3c-0.06,0.58-0.08,0.96-0.08,1.86c0,0.74,0.02,1.4,0.06,1.94c1.92-0.98,3.5-1.42,5.14-1.42
		c2.82,0,4.64,1.4,4.64,3.6c0,1.9-1.48,3.2-3.64,3.2c-2.28,0-3.82-1.38-3.82-3.38c0-0.58,0.1-0.98,0.4-1.62
		c0.04-0.06,0.16-0.04,0.14,0.04c-0.1,0.4-0.12,0.58-0.12,0.9c0,1.62,1.32,2.8,3.08,2.8c1.48,0,2.5-0.86,2.5-2.14
		c0-1.62-1.36-2.64-3.48-2.64c-1.58,0-3.32,0.52-4.8,1.44c0.06,1.2,0.1,1.78,0.26,2.96c0.04,0.42,0.1,0.72,0.1,1
		c0,0.74-0.56,1.42-1.2,1.42c-0.36,0-0.46-0.08-0.64-0.64c-0.06-0.24-0.34-0.46-1.02-0.84c-0.44-0.26-0.82-0.46-1.24-0.66
		c-0.46,0.52-0.9,0.76-1.4,0.76c-0.64,0-1.1-0.38-1.1-0.94c0-0.38,0.22-0.58,0.7-0.62c0.34-0.04,0.54-0.08,0.78-0.18
		c0.28-0.12,0.64-0.4,1.4-0.98c0.66-0.48,1.12-0.8,2.3-1.58c0-0.92-0.02-1.68-0.02-2.24c0-0.74,0-1.22,0.02-1.88
		c-0.42,0.02-0.64,0.04-0.88,0.04c-1.66,0-2.76-0.8-3.08-2.26C2.29,107.38,2.33,107.36,2.37,107.4z M3.77,117.06
		c1.28,0.4,1.86,0.52,2.38,0.52c0.16,0,0.18-0.08,0.18-0.54c0-0.76-0.02-1.44-0.06-2.32C5.43,115.4,4.77,116.02,3.77,117.06z
		 M7.37,108.22c1.04-0.28,1.5-0.58,1.74-1.04c-0.42-0.46-0.92-0.88-1.4-1.32C7.57,106.62,7.51,107.02,7.37,108.22z M11.19,110.1
		c0.86-1.48,1.7-2.1,2.92-2.1c1.2,0,2.36,0.92,2.36,1.86c0,0.38-0.28,0.72-0.66,0.72c-0.22,0-0.34-0.1-0.68-0.54
		c-0.6-0.78-1.08-1.08-1.72-1.08c-0.74,0-1.28,0.3-2.12,1.24C11.23,110.26,11.13,110.2,11.19,110.1z"/>
	<path class="st0" d="M3.73,133.52c-0.06,3.06-0.32,5.18-0.76,6.96c-0.5,2.14-1.28,3.84-2.68,5.7c-0.08,0.12-0.34-0.02-0.28-0.14
		c0.9-1.92,1.48-3.72,1.8-5.92c0.28-2.06,0.4-4.5,0.4-8.26c0-1.82,0-2.24-0.08-3.28c0.74,0.32,1.04,0.44,1.84,0.88h11.32
		c0.64-0.7,0.74-0.78,0.86-0.78c0.14,0,0.24,0.08,0.92,0.66c0.3,0.26,0.38,0.36,0.38,0.5c0,0.16-0.1,0.3-0.56,0.58v0.74
		c0,1.58,0.06,2.18,0.06,2.62c0,0.48-0.28,0.7-0.86,0.7c-0.5,0-0.64-0.18-0.64-0.68v-0.28H3.73z M15.45,129.96H3.75v1.06
		c0,0.7,0,1.38-0.02,2h11.72V129.96z M10.07,136.2c0-0.88,0-1.36-0.08-2.1c1.92,0.2,2.14,0.38,2.14,0.58c0,0.16-0.14,0.3-0.62,0.52
		v1.98h3.68c0.62-0.68,0.72-0.76,0.84-0.76c0.14,0,0.24,0.08,0.9,0.64c0.32,0.28,0.4,0.38,0.4,0.5c0,0.16-0.08,0.24-0.58,0.56v1.98
		c0,3.46,0.1,5.2,0.1,5.74c0,0.44-0.28,0.64-0.86,0.64c-0.5,0-0.64-0.18-0.64-0.64v-0.44H6.43v0.4c0,0.54-0.24,0.76-0.82,0.76
		c-0.54,0-0.68-0.16-0.68-0.64c0-0.68,0.1-1.82,0.1-5.68c0-1.9-0.02-2.84-0.14-3.9c0.74,0.32,1.04,0.46,1.7,0.84h3.48V136.2z
		 M6.43,137.68v3.18h3.64v-3.18H6.43z M10.07,141.36H6.43v3.54h3.64V141.36z M11.51,140.86h3.84v-3.18h-3.84V140.86z M15.35,144.9
		v-3.54h-3.84v3.54H15.35z"/>
	<path class="st0" d="M3.51,155.76c0.58,0.08,1.02,0.34,1.36,0.76c0.34,0.44,0.56,1,0.56,1.56c0,0.68-0.1,1.04-0.56,2.38
		c-0.6,1.8-0.88,3.1-0.88,4.16c0,1.36,0.2,2.04,0.82,2.86c0.68-1.18,1.28-2.56,1.88-3.88c0.04-0.04,0.08-0.04,0.08,0.02
		c-0.14,0.72-0.34,1.42-0.52,2.2c-0.3,1.3-0.36,1.66-0.36,2.04c0,0.28,0.04,0.42,0.16,0.7c0.1,0.28,0.12,0.4,0.12,0.52
		c0,0.36-0.26,0.6-0.66,0.6c-1.38,0-2.52-2.32-2.52-5.14c0-1.32,0.16-2.42,0.64-4.78c0.3-1.3,0.38-1.88,0.38-2.42
		c0-0.66-0.12-1.04-0.54-1.52C3.43,155.78,3.45,155.74,3.51,155.76z M8.97,158.84c0.62,0.96,1.28,1.32,2.34,1.32
		c0.44,0,0.96-0.06,1.66-0.22c-0.02-0.8-0.1-1.92-0.2-2.82c-0.08-0.84-0.14-0.92-0.72-1.18c-0.06-0.04-0.12-0.08-0.12-0.14
		c0-0.24,0.44-0.54,0.84-0.54c0.76,0,1.58,0.62,1.58,1.16c0,0.1-0.04,0.24-0.08,0.42c-0.02,0.1-0.04,0.22-0.04,0.42
		c0.4,0.3,0.8,0.56,1.24,0.78c0.36,0.18,0.56,0.24,0.94,0.24c0.5,0,0.78,0.24,0.78,0.68c0,0.28-0.24,0.6-0.68,0.96
		c-0.54,0.4-1.14,0.68-2.2,1.04c0.08,1.54,0.14,2.78,0.14,3.9c0,2.54-0.96,4.36-3.14,5.7c-1,0.64-2.12,1.1-3.68,1.5
		c-0.06,0-0.1-0.08-0.06-0.12c1.68-0.78,2.82-1.58,3.82-2.66c1.32-1.42,1.7-2.7,1.7-5.6c0-0.76-0.02-1.42-0.04-2.48
		c-0.52,0.12-0.84,0.14-1.24,0.14c-1.54,0-2.54-0.84-2.92-2.44C8.87,158.82,8.93,158.78,8.97,158.84z M14.23,159.64
		c0.72-0.26,1.02-0.42,1.38-0.7c-0.42-0.5-0.9-0.94-1.4-1.5C14.19,158.16,14.21,158.78,14.23,159.64z"/>
	<path class="st0" d="M4.37,181.14c0.28-0.14,0.42-0.18,0.64-0.18c1.26,0,2.26,1.1,2.26,2.54c0,0.58-0.1,1.32-0.42,2.98
		c-0.6,3.4-0.8,4.72-0.8,5.92c0,2.16,1.18,3.36,3.32,3.36c2.86,0,5.38-2,6.66-5.28c0.04-0.08,0.1-0.06,0.1,0.02
		c-0.66,4.04-3.4,6.72-6.84,6.72c-2.8,0-4.32-1.78-4.32-5.1c0-1.06,0.06-2.12,0.38-5.18c0.18-1.64,0.22-2.92,0.22-3.74
		c0-1.16-0.3-1.68-1.2-1.98C4.33,181.2,4.33,181.16,4.37,181.14z"/>
	<path class="st0" d="M2.45,211.34c0.18,0.52,0.32,0.68,0.88,0.68c0.58,0,1.68-0.18,2.7-0.46c0.3-1.52,0.42-2.52,0.42-3.26
		c0-0.32-0.1-0.52-0.42-0.62c-0.18-0.08-0.22-0.12-0.22-0.18c0-0.1,0.08-0.22,0.2-0.32c0.18-0.16,0.4-0.26,0.64-0.26
		c0.66,0,1.42,0.54,1.42,0.98c0,0.16-0.02,0.18-0.18,0.52c-0.06,0.14-0.1,0.3-0.18,0.6c0.66,0.58,1.38,0.96,1.96,0.98
		c0.5,0,0.72,0.18,0.72,0.6c0,0.44-0.32,0.82-1.08,1.2c-0.66,0.32-1.42,0.62-2.36,0.88c-0.7,3.3-1.58,6.68-2.34,8.78
		c-0.58,1.62-0.84,2.04-1.32,2.04c-0.4,0-0.68-0.54-0.68-1.2c0-0.34,0.04-0.46,0.28-0.84c0.22-0.32,0.36-0.58,0.66-1.24
		c0.76-1.82,1.48-4.2,2.2-7.28c-1.22,0.32-1.96,0.44-2.48,0.44c-0.68,0-1.16-0.44-1.16-1.08c0-0.32,0.08-0.6,0.26-0.96
		C2.39,211.3,2.43,211.3,2.45,211.34z M8.85,210.62c-0.42-0.48-0.76-0.88-1.22-1.36c-0.1,0.64-0.3,1.52-0.4,2.02
		C7.85,211.08,8.25,210.94,8.85,210.62z M9.45,219.12c0.18,1.68,1.26,2.58,3.06,2.58c0.68,0,1.52-0.12,2.4-0.36
		c0.48-0.12,0.6-0.14,0.76-0.14c0.48,0,0.88,0.32,0.88,0.74c0,0.76-1.22,1.2-3.14,1.2c-2.62,0-4.18-1.22-4.18-3.32
		c0-0.26,0.04-0.42,0.14-0.72C9.39,219.06,9.43,219.06,9.45,219.12z M10.25,213.68c0.82-0.98,2.46-1.68,3.78-1.68
		c1.02,0,1.86,0.52,1.88,1.16c0,0.44-0.22,0.66-0.72,0.68c-0.44,0.04-0.6,0.08-0.98,0.24c-0.54,0.26-1.08,0.52-1.78,0.84
		c-0.06,0.02-0.1-0.02-0.06-0.06c0.64-0.52,1.08-0.88,1.44-1.2c0.2-0.2,0.26-0.3,0.26-0.36c0-0.16-0.28-0.22-0.8-0.22
		c-0.82,0-2,0.26-2.98,0.68C10.25,213.78,10.21,213.72,10.25,213.68z"/>
	<path class="st0" d="M3.01,233.54c0.82,0.5,1.34,1.32,1.34,2.3c0,0.48-0.02,0.7-0.24,2.08c-0.1,0.72-0.2,1.88-0.2,2.48
		c0,1.24,0.3,2.52,0.74,3.26c0.2,0.34,0.5,0.62,0.64,0.62c0.12,0,0.22-0.14,0.62-0.74c0.66-0.98,1.24-2.02,1.88-3.12
		c0.04-0.06,0.1-0.02,0.08,0.04c-0.42,1.38-0.9,2.52-1.22,3.64c-0.14,0.54-0.16,0.66-0.16,0.84c0,0.14,0,0.22,0.14,0.68
		c0.06,0.16,0.1,0.32,0.1,0.42c0,0.36-0.3,0.62-0.72,0.62c-0.6,0-1.36-0.5-1.94-1.28c-0.92-1.18-1.38-2.82-1.38-4.86
		c0-0.62,0.04-1.14,0.14-1.96c0.06-0.52,0.14-0.96,0.26-1.86c0.14-0.88,0.16-1.16,0.16-1.5c0-0.62-0.08-1.1-0.32-1.64
		C2.93,233.52,2.95,233.5,3.01,233.54z M13.03,236.06c1.12,0.06,1.92,0.46,2.56,1.06c0.86,0.72,1.38,1.8,1.38,2.92
		c0,0.96-0.42,1.62-1.06,1.62c-0.42,0-0.66-0.3-0.66-0.78c0-0.34,0.04-0.7,0.04-1.06c0-1.88-0.7-3.02-2.28-3.68
		C12.97,236.12,12.97,236.06,13.03,236.06z"/>
	<path class="st0" d="M18.59,256.8c0,1.42-1.22,2.64-2.64,2.64c-1.42,0-2.64-1.22-2.64-2.64c0-1.42,1.22-2.64,2.64-2.64
		C17.37,254.16,18.59,255.38,18.59,256.8z M14.01,256.8c0,1.04,0.9,1.94,1.94,1.94c1.04,0,1.94-0.9,1.94-1.94
		c0-1.04-0.9-1.94-1.94-1.94C14.91,254.86,14.01,255.76,14.01,256.8z"/>
</g>
</svg>
