<?xml version="1.0" encoding="UTF-8"?><svg id="qaA" xmlns="http://www.w3.org/2000/svg" viewBox="0 0 34.25 33.67"><defs><style>.cls-1{fill:#7ecef4;}</style></defs><path class="cls-1" d="m8.4,23.43l-1.92,4.42c-.74,1.74-1.11,2.9-1.11,3.49,0,.63.97.94,2.9.94h.36v1.39H0v-1.39l.47-.02c1.29-.06,2.06-.22,2.3-.48.25-.26.87-1.57,1.88-3.92L16.38,0h1.57l11.66,28.01c.91,2.01,1.56,3.2,1.93,3.58.37.38,1.11.6,2.2.66l.52.02v1.39h-12.33v-1.39h.4c2.1,0,3.14-.3,3.14-.9,0-.88-.31-2.06-.94-3.53l-1.86-4.42h-14.27Zm.72-1.82h12.73l-6.32-15.14-6.41,15.14Z"/></svg>