<?xml version="1.0" encoding="UTF-8"?><svg id="qaQ" xmlns="http://www.w3.org/2000/svg" viewBox="0 0 37.42 40.79"><defs><style>.cls-1{fill:#7ecef4;}</style></defs><path class="cls-1" d="m20.86,34.06c3.55,2.07,9.07,3.39,16.56,3.94l-5.59,2.79c-3.78-1.13-8.11-3.19-13-6.18-1.13.2-2.21.29-3.27.29-4.8,0-8.6-1.56-11.38-4.68C1.39,27.1,0,22.84,0,17.45S1.39,7.79,4.16,4.67C6.94,1.56,10.74,0,15.58,0s8.58,1.55,11.38,4.64c2.8,3.09,4.2,7.28,4.2,12.57,0,4.45-.86,8.08-2.57,10.89-1.72,2.81-4.29,4.8-7.72,5.97Zm5.31-16.6c0-5.02-.93-8.93-2.8-11.74S18.9,1.5,15.58,1.5s-5.92,1.4-7.79,4.21-2.8,6.72-2.8,11.74.93,8.93,2.79,11.73c1.86,2.8,4.46,4.2,7.8,4.2s5.92-1.4,7.79-4.21c1.87-2.81,2.8-6.72,2.8-11.72Z"/></svg>