<?xml version="1.0" encoding="UTF-8"?>
<svg id="_レイヤー_1" data-name="レイヤー 1" xmlns="http://www.w3.org/2000/svg" viewBox="0 0 332.27 19.42">
  <defs>
    <style>
      .cls-1 {
        fill: #fff;
      }
    </style>
  </defs>
  <path class="cls-1" d="M1.78,6.72c.42.13.73.17,1.3.17.4,0,.92-.04,1.53-.08,1.41-.17,3.13-.4,4.85-.69-.06-.8-.13-1.66-.23-2.5-.08-.84-.19-1.03-.63-1.2-.29-.13-.34-.15-.34-.23,0-.13.17-.31.38-.48.25-.19.57-.31.88-.31.8,0,1.74.65,1.74,1.24,0,.13-.08.31-.19.5-.1.25-.13.34-.13.67.02.23.04.52.06.99.02.48.04.78.06,1.09.5-.06.92-.15,1.32-.21.57-.13.78-.21,1.18-.42.27-.15.36-.17.55-.17.36,0,.84.15,1.26.4.38.23.59.5.59.82,0,.44-.31.71-.9.71-.17,0-.29-.02-.8-.06-.27-.02-.52-.02-.88-.02-.67,0-1.41.04-2.2.17.08,1.28.15,1.97.27,3.53.15,2.25.21,3.25.27,4.2,0,.48.02.92.02,1.15,0,.84-.13,1.32-.5,1.74-.36.44-.9.73-1.36.73-.4,0-.52-.1-.69-.65-.17-.36-.46-.55-1.05-.84-.63-.36-1.07-.65-1.66-1.01-.04-.04-.02-.1.04-.1.97.21,2.08.36,2.67.36.76,0,.8-.1.8-1.55,0-1.09-.08-2.48-.13-3.61-.04-.67-.06-1.18-.1-2.16-.9,1.76-2.12,3.32-3.74,4.62-1.64,1.34-3.4,2.2-5.86,2.94-.15.04-.23-.1-.08-.19,1.97-1.01,3.63-2.25,5.06-3.7,1.45-1.49,2.58-3.19,3.49-5.19-2.23.38-3.15.55-4.37.92-.44.13-.73.17-.97.17-.76,0-1.3-.57-1.57-1.68,0-.04.02-.06.06-.06Z"/>
  <path class="cls-1" d="M17.84,17.97c2.08-1.43,3.25-2.92,3.99-5.14.46-1.32.73-3.36.84-4.81.02-.23.02-.46.02-.65,0-.46-.06-.57-.55-.84-.17-.06-.25-.13-.25-.19,0-.1.21-.31.46-.46.23-.13.5-.21.76-.21.82,0,1.87.8,1.87,1.47,0,.21-.06.31-.19.46-.13.19-.15.27-.17.57-.25,2.39-.78,4.47-1.68,6-1.05,1.83-2.62,3.02-5.04,3.95-.1.02-.15-.08-.06-.15ZM36.7,9.09c-1.07,2.52-2.88,4.49-5.31,5.79-1.13.59-2.52,1.11-3.07,1.11-.38,0-.73-.17-1.01-.42-.29-.29-.4-.73-.4-1.28,0-.42-.02-1.26,0-2.25,0-.84.02-1.93.04-2.94.04-1.15.06-2.54.06-3.36s-.08-.97-.57-1.15c-.19-.06-.25-.1-.25-.15,0-.08.15-.27.31-.42.25-.21.57-.34.88-.34.86,0,1.89.78,1.89,1.43,0,.19-.04.29-.21.42-.19.19-.23.25-.27.78-.13,1.6-.21,3.99-.21,5.75s.02,1.83.34,1.83c.52,0,2.08-.57,3.17-1.13,1.85-.94,3.23-2.1,4.49-3.76.04-.06.15-.02.1.08Z"/>
  <path class="cls-1" d="M39.77,3.4c1.99.29,3.46,1.74,3.46,3.42,0,.99-.55,1.68-1.32,1.68-.4,0-.73-.27-.82-.67-.06-.23-.06-.46-.1-1.03-.04-1.53-.38-2.46-1.26-3.32-.04-.04-.02-.08.04-.08ZM41.22,18.18c2.94-1.72,4.87-3.76,6.3-6.68.99-2.04,1.64-4.24,1.97-6.61.08-.57.15-.99.15-1.2,0-.34-.15-.52-.48-.63-.27-.08-.34-.13-.34-.21s.21-.29.46-.44c.25-.17.55-.25.8-.25.46,0,.9.23,1.39.71.44.44.69.86.69,1.18,0,.27-.1.4-.31.57-.17.15-.21.19-.27.44-.52,2.88-1.22,5.23-2.52,7.35-1.72,2.81-4.58,4.85-7.75,5.92-.13.04-.19-.06-.08-.15Z"/>
  <path class="cls-1" d="M55.29,11.32c2.14-1.45,3.46-3.02,4.47-5.27.36-.82.69-1.83.9-2.71.06-.31.1-.55.1-.67,0-.19-.1-.31-.31-.42-.21-.13-.27-.19-.27-.27,0-.1.15-.27.4-.42.25-.17.48-.23.69-.23.31,0,.69.19,1.11.5.46.34.67.67.67.97,0,.19-.06.31-.23.5-.15.19-.21.34-.29.55-.29.9-.59,1.66-.97,2.39,2.06-.17,3.44-.34,4.7-.5,1.22-.17,1.55-.29,1.99-.46.4-.17.48-.23.84-.23.38,0,.86.19,1.28.46.38.25.59.52.59.82,0,.44-.36.71-.9.71-.17,0-.48-.04-.82-.08-.27-.04-.61-.08-1.11-.08-.57,0-1.18.04-2.29.15.67.44.86.73.86,1.39,0,1.62-1.05,4.37-2.33,6.07-1.49,1.99-3.3,3.17-6.32,4.18-.1.04-.17-.1-.08-.17,2.31-1.24,3.95-2.83,5.1-4.96.9-1.68,1.62-3.95,1.62-5.31,0-.42-.08-.65-.34-1.03-.42.02-.88.06-1.68.17-.86.08-1.34.17-1.83.23-1.43,1.91-2.92,2.96-5.46,3.88-.1.04-.19-.08-.1-.15Z"/>
  <path class="cls-1" d="M75.07,7.05c.29.42.46.5.94.5s1.18-.08,2.2-.23c1.41-.21,2.65-.36,3.93-.55.8-.13,1.2-.21,1.66-.48.29-.17.44-.23.59-.23.29,0,.86.36,1.43.9.34.34.52.67.52.94,0,.19-.04.29-.25.46-.23.17-.27.23-.44.82-.86,2.67-2.04,4.66-3.53,6.19-1.7,1.74-3.8,2.9-6.53,3.55-.1.02-.15-.1-.06-.15,2.37-1.11,4.2-2.6,5.61-4.58,1.15-1.6,1.93-3.4,2.46-5.25.1-.42.19-.78.19-.97,0-.13-.06-.17-.19-.17-.21,0-.59.04-1.07.13-1.6.21-2.96.5-4.83.94-.94.23-1.2.27-1.49.27-.78,0-1.45-.67-1.45-1.45,0-.25.08-.46.21-.67.04-.06.06-.06.1,0ZM76.2,2.75c.34.19.59.25,1.13.25.71,0,2.1-.19,3.53-.48,1.11-.23,1.26-.27,1.72-.61.21-.13.42-.17.61-.17.4,0,.84.1,1.2.27.34.19.52.42.52.73,0,.57-.34.73-1.85.94-.36.04-.8.1-1.39.17-.73.1-1.28.19-2.06.29-.67.1-1.15.15-1.45.15-.99,0-1.76-.63-2.04-1.49-.02-.06.02-.08.06-.06Z"/>
  <path class="cls-1" d="M94.83,7.26c1.83.19,3.11.59,4.14,1.22,1.03.61,1.66,1.49,1.66,2.44,0,.67-.38,1.13-.99,1.13-.48,0-.67-.19-1.07-1.09-.8-1.72-1.97-2.75-3.74-3.23v1.03c0,1.28.02,2.83.04,3.99.02,1.05.06,2.04.1,2.94.02.8.06,1.41.06,1.6,0,.86-.25,1.24-.84,1.24-.67,0-1.34-.88-1.34-1.72,0-.15.04-.34.1-.63.08-.23.13-1.05.15-2.12.04-1.51.06-3.65.06-5.75.02-2.96-.04-4.66-.13-5.44-.06-.57-.19-.76-.63-.86-.15-.02-.19-.06-.19-.13,0-.1.04-.19.23-.38.29-.29.59-.46.92-.46.4,0,.86.17,1.34.5.38.27.59.55.59.86,0,.19-.04.36-.21.55-.15.17-.23.23-.23.61-.02.9-.04,2.04-.04,2.86v.86Z"/>
  <path class="cls-1" d="M108.48,15.85c0,.76-.27,1.15-.76,1.15-.61,0-1.11-.8-1.11-1.74,0-.17.02-.44.04-.8.04-.78.04-1.01.04-1.49,0-1.26-.06-3.49-.15-4.72-.13-1.85-.17-2.04-.76-2.2-.15-.04-.23-.08-.23-.17,0-.1.23-.42.4-.55.21-.19.48-.27.8-.27s.52.06,1.03.29c1.05-.06,1.99-.15,3.11-.25.99-.1,2.04-.21,3.07-.29.9-.08,1.05-.13,1.45-.36.17-.1.27-.13.4-.13.25,0,.65.19,1.26.67.5.38.73.67.73.94,0,.23-.08.31-.27.63-.13.17-.17.4-.25.99-.08.61-.15,1.26-.25,2.16-.08.94-.19,2.18-.31,3.38.52.29.73.59.73.97,0,.42-.25.65-.71.65-.1,0-.31-.02-.57-.04-.55-.04-.82-.04-1.34-.04-.86,0-1.93.02-3.04.1-1.05.06-2.2.15-3.32.25,0,.34.02.65.02.86ZM108.23,10.12c.04,1.2.08,1.93.17,3.59.84-.04,1.95-.13,3.42-.23,1.26-.1,2.41-.19,3.3-.29.06-1.11.13-2.1.19-3.46s.1-2.73.1-3.15c.02-.48-.04-.55-.57-.55-.23,0-.71.02-1.66.1-1.99.13-3.36.23-5.1.46.06,1.43.1,2.23.15,3.53Z"/>
  <path class="cls-1" d="M122.99,7.85c.57-.13.88-.17,1.34-.17,1.81,0,3.04.76,3.04,1.87,0,.65-.46,1.18-1.05,1.18-.42,0-.59-.15-1.05-.9-.57-.88-1.18-1.39-2.29-1.89-.04-.02-.04-.06,0-.08ZM124.38,15.12c.4.5.65.63,1.09.63.97,0,3.07-.8,5.12-1.93,3.07-1.72,5.65-4.01,7.43-6.61.06-.08.17-.02.13.06-1.28,3.21-3.46,5.86-6.57,7.94-2.06,1.39-4.64,2.52-5.75,2.52-.97,0-1.76-.8-1.76-1.74,0-.31.06-.5.21-.86.02-.04.06-.04.1,0ZM124.69,3.21c.61-.13.99-.19,1.41-.19,1.64,0,2.83.76,2.83,1.78,0,.65-.42,1.13-.99,1.13-.38,0-.57-.1-.94-.73-.48-.88-1.32-1.49-2.31-1.91-.04-.02-.04-.06,0-.08ZM132.8,2.65c.23,0,.36.02.48.04,1.64.1,2.77.97,2.77,1.85,0,.48-.36.86-.76.86-.34,0-.48-.13-.82-.76-.44-.82-.94-1.39-1.72-1.91-.06-.04-.04-.06.04-.08ZM134.85,1.26c.36-.04.57-.04,1.05.02,1.11.15,2.16.76,2.16,1.64,0,.46-.31.82-.71.82-.31,0-.44-.13-.76-.67-.48-.82-.92-1.26-1.76-1.72-.04-.02-.04-.06.02-.08Z"/>
  <path class="cls-1" d="M141.56,9.2c.36.36.86.48,1.97.48.84,0,1.87-.04,3.02-.13,1.47-.1,2.46-.19,3.78-.27,1.34-.06,2.62-.15,3.67-.21.69-.04.9-.08,1.36-.21.34-.1.44-.13.55-.13.36,0,.86.21,1.22.46.4.27.61.57.61.9,0,.46-.34.78-.9.78-.34,0-.61-.02-1.11-.08-.97-.1-1.53-.13-2.6-.13-1.83,0-3.72.1-5.63.29-.97.08-2.08.21-3.8.44-.48.06-.73.08-.9.08-.86,0-1.45-.67-1.45-1.62,0-.27,0-.4.13-.65.02-.04.04-.04.08-.02Z"/>
  <path class="cls-1" d="M166.81,2.64s-.01.07-.07.13c-2.15,2.01-3.12,4.25-3.12,6.86s.96,4.83,3.06,6.8c.1.1.13.13.13.19s-.03.09-.07.09-.09-.01-.19-.09c-1.29-.93-2.26-1.97-2.95-3.16-.72-1.23-1.06-2.51-1.06-3.84s.34-2.6,1.06-3.84c.69-1.19,1.68-2.25,2.97-3.17.07-.04.1-.07.15-.07.06,0,.1.03.1.09Z"/>
  <path class="cls-1" d="M170.52,15.77c1.22-.76,2.06-1.57,2.59-2.66.54-1.07.79-2.41.88-4.19-.63.06-1.1.13-1.7.24-.72.1-1.1.19-1.76.35-.19.06-.34.07-.48.07-.51,0-.94-.44-1.06-1.01-.03-.15-.03-.25-.03-.41,0-.04.03-.06.06-.04.4.22.6.26,1.18.26.41,0,1.04-.03,1.9-.1.72-.07,1.38-.13,1.94-.19.01-.82.03-1.37,0-2.4-.03-1.03-.04-1.09-.46-1.18-.04-.01-.07-.06-.07-.09,0-.07.09-.19.21-.29.18-.16.4-.25.63-.25.32,0,.69.16.97.4.21.19.37.41.37.62,0,.13-.03.22-.16.37-.12.12-.13.15-.13.6,0,.48-.03,1.38-.04,2.09.59-.06,1.07-.1,1.73-.18.63-.07.76-.12,1.15-.29.13-.06.25-.07.4-.07.28,0,.54.1.88.29.34.22.54.46.54.72,0,.29-.24.51-.6.51-.09,0-.28-.03-.54-.07-.56-.1-1.19-.16-1.75-.16-.37,0-.79.03-1.84.1-.1,2.34-.44,3.59-1.28,4.73-.78,1.06-1.88,1.81-3.44,2.35-.09.03-.13-.06-.06-.12Z"/>
  <path class="cls-1" d="M181.65,12.18c1.85-1.09,3.14-2.32,4.33-4.04.6-.85,1.18-1.94,1.54-2.82.13-.26.19-.5.19-.6,0-.15-.12-.28-.29-.35-.13-.04-.18-.07-.18-.13,0-.19.4-.4.75-.4.68,0,1.41.57,1.41,1.07,0,.12-.04.21-.18.31-.16.1-.22.18-.31.38-.41.87-.82,1.59-1.37,2.32.44.16.6.29.6.5,0,.07-.01.13-.09.26-.07.18-.07.41-.07.87,0,.91.01,1.65.03,2.54.01,1.13.03,1.68.07,2.66,0,.21.01.34.01.56,0,.51-.19.81-.54.81-.44,0-.93-.63-.93-1.23,0-.09.03-.19.09-.41.03-.16.04-.32.06-.72.03-.56.03-1.53.04-2.6.01-.87,0-1.6-.06-2.31-1.43,1.73-2.76,2.66-5.05,3.44-.09.03-.15-.06-.07-.1Z"/>
  <path class="cls-1" d="M196.08,7.98c1.28.13,2.17.41,2.89.85.72.43,1.16,1.04,1.16,1.7,0,.47-.26.79-.69.79-.34,0-.47-.13-.75-.76-.56-1.2-1.38-1.92-2.62-2.26v.72c0,.9.01,1.98.03,2.79.01.73.04,1.43.07,2.06.01.56.04.98.04,1.12,0,.6-.18.87-.59.87-.47,0-.94-.62-.94-1.2,0-.1.03-.24.07-.44.06-.16.09-.73.1-1.48.03-1.06.04-2.56.04-4.03.01-2.07-.03-3.26-.09-3.81-.04-.4-.13-.53-.44-.6-.1-.01-.13-.04-.13-.09,0-.07.03-.13.16-.26.21-.21.41-.32.65-.32.28,0,.6.12.94.35.26.19.41.38.41.6,0,.13-.03.25-.15.38-.1.12-.16.16-.16.43-.01.63-.03,1.43-.03,2v.6Z"/>
  <path class="cls-1" d="M203.79,6.29c.28.13.47.15,1.06.15.34,0,.76-.03,1.65-.12,1.35-.13,2.32-.24,3.23-.35.6-.07.68-.12.94-.25.15-.09.22-.1.35-.1.19,0,.38.1.68.35.47.38.69.68.69.9,0,.12-.03.16-.21.4-.1.13-.15.26-.19.71-.06.62-.07,1-.18,1.91-.1.79-.18,1.59-.29,2.51.41.24.53.41.53.68,0,.31-.16.46-.5.46-.1,0-.18,0-.54-.01-.22-.01-.43-.01-.56-.01-1,0-2.28.07-3.28.21-.9.09-1.59.19-2.23.32-.32.07-.44.09-.56.09-.56,0-.97-.53-1-1.26,0-.04.03-.04.06-.03.31.19.44.22.9.22.38,0,.85-.04,2.23-.22,1.44-.18,2.23-.25,3.72-.37.1-.97.21-2,.28-2.98.06-.87.09-1.87.09-2.19,0-.35-.06-.41-.43-.41-.19,0-.85.06-2.16.21-.97.12-2.04.25-2.81.4-.41.07-.51.09-.65.09-.48,0-.84-.5-.88-1.23,0-.03.03-.04.06-.03Z"/>
  <path class="cls-1" d="M216.5,12.78c.22.41.43.56.66.56.31,0,1.03-.19,1.84-.5,2.75-1.03,5.25-2.84,7.16-5.19.06-.06.12-.01.09.07-1.28,2.54-2.85,4.23-5.2,5.63-1.25.73-2.84,1.34-3.53,1.34s-1.31-.6-1.31-1.31c0-.21.06-.35.24-.6.03-.03.04-.03.06,0ZM216.37,5.55c.32-.04.49-.06.75-.06,1.37,0,2.26.54,2.26,1.41,0,.5-.32.87-.79.87-.34,0-.44-.1-.76-.72-.35-.63-.75-1.03-1.47-1.44-.03-.01-.03-.04.01-.06Z"/>
  <path class="cls-1" d="M227.65,11.28c1.76-1.44,2.95-3.01,3.82-5.14.26-.68.57-1.63.57-1.85,0-.12-.06-.21-.28-.31-.1-.06-.13-.07-.13-.13,0-.04.07-.13.21-.24.15-.1.38-.19.56-.19.25,0,.53.12.85.35.25.19.41.41.41.62,0,.16-.03.24-.21.4-.12.1-.16.16-.23.28-.19.43-.34.82-.51,1.2.96-.1,1.66-.21,2.25-.28.38-.06.51-.1.79-.28.12-.06.22-.1.31-.1.18,0,.38.13.69.44.37.38.53.63.53.81,0,.13-.07.25-.21.35-.15.1-.19.15-.25.31-.09.25-.31.81-.56,1.35-.32.73-.56,1.2-.96,1.84.88.62,1.31,1.18,1.31,1.7,0,.37-.24.63-.56.63-.26,0-.35-.06-.69-.54-.22-.31-.41-.54-.71-.81-1.72,2.35-3.72,3.66-6.63,4.41-.09.01-.12-.06-.06-.1,2.59-1.26,4.38-2.81,5.8-5.07-.79-.63-1.38-.96-2.57-1.41-.04-.03-.03-.09.06-.09,1.22.1,1.95.29,2.97.73.46-.81.81-1.54,1.1-2.37.16-.44.25-.78.25-.9s-.03-.15-.28-.15c-.12,0-.38.03-1.12.12-.63.07-1.31.16-1.9.25-1.25,2.12-2.53,3.29-4.56,4.25-.07.03-.13-.04-.09-.09Z"/>
  <path class="cls-1" d="M239.6,11.5c.75-.65,1.4-1.41,1.95-2.28.57-.88,1.04-1.87,1.46-3.01.25-.65.46-1.47.46-1.72,0-.16-.09-.26-.32-.38-.07-.03-.1-.07-.1-.13,0-.07.09-.18.26-.28.15-.07.31-.12.5-.12.29,0,.57.12.85.34.32.22.48.46.48.66,0,.13-.06.21-.19.34-.13.12-.18.18-.31.5-.13.4-.25.73-.43,1.07.43-.03.65-.06,1.21-.12.6-.07.9-.12,1.23-.15.28-.03.35-.07.56-.21.12-.07.22-.12.32-.12.19,0,.48.19.79.51.31.31.43.56.43.75,0,.13-.06.24-.19.34-.15.12-.18.16-.26.44-.6,1.91-1.43,3.56-2.54,4.88-1.35,1.59-3.07,2.63-5.35,3.22-.06.01-.09-.04-.04-.09,1.88-.97,3.38-2.26,4.51-3.88.96-1.32,1.69-2.89,2.09-4.45.07-.26.09-.34.09-.43s-.07-.13-.25-.13c-.26,0-.63.04-1.37.12-.65.06-1.12.12-1.59.18-.63,1.2-1.04,1.79-1.79,2.54-.82.81-1.53,1.29-2.41,1.68-.04.01-.09-.03-.04-.07Z"/>
  <path class="cls-1" d="M254.69,7.98c1.28.13,2.17.41,2.89.85.72.43,1.16,1.04,1.16,1.7,0,.47-.26.79-.69.79-.34,0-.47-.13-.75-.76-.56-1.2-1.38-1.92-2.62-2.26v.72c0,.9.01,1.98.03,2.79.01.73.04,1.43.07,2.06.02.56.04.98.04,1.12,0,.6-.18.87-.59.87-.47,0-.94-.62-.94-1.2,0-.1.03-.24.07-.44.06-.16.09-.73.1-1.48.03-1.06.04-2.56.04-4.03.02-2.07-.03-3.26-.09-3.81-.04-.4-.13-.53-.44-.6-.1-.01-.13-.04-.13-.09,0-.07.03-.13.16-.26.21-.21.41-.32.65-.32.28,0,.6.12.94.35.26.19.41.38.41.6,0,.13-.03.25-.15.38-.1.12-.16.16-.16.43-.01.63-.03,1.43-.03,2v.6Z"/>
  <path class="cls-1" d="M261.5,2.63c1.29.93,2.28,1.98,2.97,3.17.72,1.23,1.06,2.51,1.06,3.84s-.34,2.6-1.06,3.84c-.69,1.19-1.66,2.23-2.95,3.16-.1.07-.15.09-.19.09s-.07-.03-.07-.09.03-.09.13-.19c2.1-1.97,3.06-4.23,3.06-6.8s-.97-4.85-3.12-6.86c-.06-.06-.07-.09-.07-.13,0-.06.04-.09.1-.09.04,0,.07.03.15.07Z"/>
  <path class="cls-1" d="M277.88,18.06c1.83-.4,3.19-1.01,4.35-1.87,1.99-1.41,3.09-3.53,3.09-6.11,0-4.01-2.52-6.74-6.19-6.74-.21,0-.38,0-.71.04.97,1.28,1.39,2.6,1.39,4.12,0,2.79-1.39,5.73-3.34,7.33-.78.65-1.7,1.09-2.5,1.09-.61,0-.9-.25-1.11-.92-.15-.57-.19-.61-1.01-.92-.8-.29-1.3-1.57-1.3-3.19,0-4.54,3.86-8.25,8.65-8.25s8.19,3.23,8.19,7.64-3.59,7.6-8.65,7.89c-.23.02-.5.04-.82.04-.1,0-.13-.13-.02-.15ZM272.21,10.88c0,1.81.76,3.07,1.83,3.07.71,0,1.55-.59,2.39-1.66,1.3-1.6,2.2-3.95,2.2-6.07,0-.76-.08-1.7-.69-2.77-3.36.57-5.73,3.61-5.73,7.43Z"/>
  <path class="cls-1" d="M294.81,7.52c1.18.44,1.93,1.3,1.93,2.23,0,.61-.31,1.05-.76,1.05-.38,0-.42-.1-.65-1.49-.1-.5-.27-.97-.52-1.34,0,5.46.08,9.39.08,10.73,0,.52-.42.73-1.11.73-.52,0-.8-.17-.8-.59,0-1.03.13-5.14.17-9.47-.67,2.18-1.36,3.57-2.46,4.93-.06.08-.23,0-.19-.1.97-2.23,1.87-5.73,2.29-8.67h-.42c-.4,0-.8.04-1.32.13l-.23-.78c.63.13,1.09.17,1.55.17h.65v-2.35c0-1.05-.02-1.85-.1-2.69,2.16.21,2.6.31,2.6.69,0,.23-.21.4-.71.61v3.74h.17c.36-.94.61-1.11.76-1.11.19,0,.34.17.8.78.15.19.31.46.31.61s-.06.21-.27.21h-1.76v1.99ZM298.65,14.26c.76-.27,1.49-.57,2.23-.86-.23-.94-.5-1.57-1.03-2.37-.06-.08.04-.21.15-.17,1.7.76,2.77,1.87,2.77,2.88,0,.67-.44,1.18-1.03,1.18-.4,0-.61-.25-.73-.94-1.32,1.07-2.65,1.93-3.86,2.65-.17.65-.29.8-.55.8-.29,0-.44-.34-1.13-2.35.52-.06,1.01-.15,1.55-.27V5.86c0-2.39-.02-3.21-.1-5.12.9.42,1.07.48,1.93.94h1.53c.63-.73.8-.86.97-.86.21,0,.36.13.97.67.25.25.38.42.38.59,0,.15-.13.27-.44.52v1.3c0,3.4.02,5.17.02,5.77,0,.44-.31.61-.99.61-.52,0-.71-.1-.71-.48v-.4h-1.91v4.85ZM303.94,9.39c-.38,0-.76.04-1.26.13l-.23-.78c.42.08.78.13,1.11.15V2.23c-.19.02-.38.04-.59.08l-.23-.78c.61.13,1.05.17,1.51.17h3.13c.69-.92.94-1.09,1.09-1.09.19,0,.42.17,1.13.8.29.25.46.42.46.57s-.06.21-.27.21h-1.26c-.15,2.27-.38,4.54-.97,6.72h.36c.55-1.05.8-1.22.94-1.22.19,0,.36.17.99.86.23.25.4.48.4.63s-.06.21-.27.21h-2.56c-.13.48-.29.97-.46,1.45,1.05.17,1.2.25,1.2.48,0,.17-.17.31-.55.48v5.08c0,.5.06.55.67.55.34,0,.55-.04.73-.27.27-.34.48-1.07.92-2.69.02-.1.23-.1.23,0,0,.61-.02,1.62-.02,1.99,0,.29.02.36.36.57.27.17.4.38.4.71,0,.42-.23.76-.69.97-.46.23-1.13.34-2.02.34-1.81,0-2.33-.48-2.33-2.04,0-.67.04-1.39.04-3.97-1.57,2.73-3.93,4.72-7.37,6.28-.1.04-.25-.19-.17-.25,2.65-1.68,5.19-4.56,6.55-7.5.29-.57.57-1.3.8-2.18h-1.78ZM300.56,2.16h-1.91v3.02h1.91v-3.02ZM298.65,8.92h1.91v-3.25h-1.91v3.25ZM305.85,8.9c.5-2.2.82-4.45.86-6.72h-1.51v6.72h.65Z"/>
  <path class="cls-1" d="M316.86,9.01c0,.5-.4.71-1.07.71-.63,0-.88-.19-.88-.65s.06-.97.06-2.92c0-.92-.02-1.85-.06-2.79,1.05.42,1.2.48,2.27,1.03h2.18V1.78h-4.22c-.44,0-.86.04-1.45.13l-.23-.78c.67.13,1.18.17,1.68.17h13.48c.97-1.07,1.22-1.24,1.36-1.24.19,0,.46.17,1.53.86.5.36.67.5.67.65s-.06.21-.27.21h-6.28v2.6h2.54c.71-.8.88-.92,1.05-.92.21,0,.38.13,1.15.71.36.29.48.44.48.61,0,.15-.13.29-.57.59v.59c0,1.55.06,2.6.06,2.96,0,.5-.38.73-1.15.73-.57,0-.82-.19-.82-.61v-.27h-11.53v.23ZM327.27,11.93c-.52,1.18-1.2,2.29-2.04,3.28,3.28.84,4.6,1.93,4.6,2.83,0,.61-.42,1.15-1.11,1.15-.44,0-.71-.23-1.39-.78-1.01-.8-2.1-1.49-3.3-2.08-2.41,1.89-5.65,2.75-10.5,2.81-.1,0-.1-.29,0-.31,3.74-.5,6.68-1.53,8.78-3.23-1.01-.4-2.04-.69-3.09-.92-.13.17-.25.36-.38.52-.23.31-.48.38-.99.38-.78,0-1.24-.17-1.24-.46,0-.13.04-.21.15-.34.73-.88,1.36-1.74,2.06-2.86h-3.7c-.44,0-.86.04-1.45.13l-.23-.78c.67.13,1.18.17,1.68.17h3.99l.29-.5c.44-.78.73-1.51.9-1.97,1.91.4,2.39.61,2.39.84,0,.21-.17.34-.8.46-.21.42-.42.8-.63,1.18h7.52c1.03-1.13,1.28-1.3,1.43-1.3.19,0,.44.17,1.43.92.44.34.61.5.61.65s-.06.21-.27.21h-4.72ZM319.36,4.87h-2.5v3.42h2.5v-3.42ZM321.02,11.93c-.46.8-.97,1.6-1.49,2.35,1.55.15,2.6.29,3.67.48.76-.84,1.36-1.81,1.83-2.83h-4.01ZM323.75,1.78h-2.54v2.6h2.54V1.78ZM323.75,8.29v-3.42h-2.54v3.42h2.54ZM328.39,4.87h-2.75v3.42h2.75v-3.42Z"/>
</svg>