<?xml version="1.0" encoding="UTF-8"?>
<svg id="_レイヤー_1" data-name="レイヤー 1" xmlns="http://www.w3.org/2000/svg" viewBox="0 0 140.46 32.88">
  <defs>
    <style>
      .cls-1 {
        fill: #fff;
      }
    </style>
  </defs>
  <path class="cls-1" d="M12.04,5.15c-.88.03-2.02.07-2.63.12l-.03-1.53c.24.01.41.01.53.01.31,0,1.77-.03,2.1-.04l4.05-.12v-.29c0-1.21-.04-2.09-.12-2.46l1.69.15c.13.01.22.07.22.16s-.07.16-.26.26c-.01.29-.03,1.35-.03,1.71v.44l1.28-.04c.93-.03,1.97-.07,2.63-.12l.03,1.53h-.53c-.44,0-1.78.01-2.1.03l-1.31.04v5.49c0,.46.01.9.01,1.35,0,.74-.22,1.07-.81,1.24-.47.12-.69.15-2.44.16-.06-.69-.12-1.01-.31-1.63.6.06.91.09,1.15.09.81,0,.9-.06.9-.5v-4.87l-.25.37c-.63.94-2.13,2.4-3.66,3.56-.71.53-1.24.87-2.43,1.56-.25-.59-.47-.91-.91-1.38,2.44-1.35,4.25-2.74,5.6-4.28.32-.37.75-.91.88-1.1l-3.25.1Z"/>
  <path class="cls-1" d="M27.36,2.31c.09,0,.19.07.19.13,0,.09-.12.21-.29.28,0,3.63-.12,4.82-.57,6.09-.5,1.35-1.22,2.29-2.46,3.16-.32.24-.57.38-1.24.78-.34-.54-.68-.96-1.03-1.27,1.24-.72,1.74-1.07,2.24-1.6.9-.99,1.32-2.16,1.46-4.05.04-.56.07-1.5.07-2.47,0-.5-.01-.72-.04-1.19l1.68.13ZM28.92,11.58c.13-.46.18-.93.18-2.74v-4.47c0-1.16-.01-1.81-.04-2.21l1.63.1c.16.01.25.06.25.15s-.07.16-.28.29c-.01.31-.01.53-.01,1.66v5.75c1.74-.9,3.16-2.04,4.57-3.69.1.41.28.99.53,1.72-2.32,2.18-3.1,2.75-5.21,3.82-.06.21-.13.29-.24.29-.04,0-.13-.04-.22-.09l-1.16-.6Z"/>
  <path class="cls-1" d="M38.28,1.9c1.38,1.49,1.88,2.19,2.78,3.87l-1.5,1c-.88-1.74-1.4-2.53-2.54-3.91l1.26-.96ZM48.45,2.63c.13.06.19.12.19.21,0,.12-.12.21-.37.28-1.07,3.22-1.63,4.34-3.03,5.99-1.63,1.93-3.06,2.99-6.02,4.41-.24-.6-.46-.99-.91-1.43,1.9-.85,2.75-1.35,3.84-2.22,1.74-1.38,3.06-3.12,3.84-5.03.31-.76.51-1.44.85-2.85l1.6.65Z"/>
  <path class="cls-1" d="M53.56,5.28c-.82,1.28-1.37,1.96-2.44,2.99-.4-.62-.59-.84-1.04-1.21,1.29-1.27,2.06-2.28,2.75-3.66.47-.94.68-1.5.99-2.81l1.59.38c.13.03.21.1.21.19,0,.1-.04.13-.35.24-.38,1.19-.57,1.69-.9,2.4h6.49c.6,0,1.52-.01,2.06-.04v1.57c-.54-.03-1.46-.04-2.06-.04h-1.99c-.19,2.97-.66,4.4-1.93,5.85-.87,1-1.68,1.53-3.94,2.62-.24-.51-.56-.97-.94-1.35,1.49-.66,2.09-.99,2.74-1.49,1.25-.97,1.9-2.04,2.25-3.72.13-.62.21-1.26.24-1.91h-3.71Z"/>
  <path class="cls-1" d="M75.56,5.25c.12.09.15.15.15.22,0,.1-.07.16-.29.24-1.21,4.18-3.5,6.4-8.41,8.12-.31-.75-.49-1.03-.84-1.41,1.78-.6,2.71-1,3.72-1.62,2-1.24,3.1-2.62,3.9-4.9l-2.53.1c-1.85.07-4.99.13-6.49.19l-.06-1.6c1.29.03,1.62.03,3.29.03,1.96,0,2.52,0,3.25-.03l2.94-.09.21-.24,1.16.99ZM73.84,2.65c-.41-.01-1.03-.03-1.46-.03h-4.43c-.44,0-1.06.01-1.47.03v-1.49c.41.01,1.03.03,1.47.03h4.43c.43,0,1.04-.01,1.46-.03v1.49Z"/>
  <path class="cls-1" d="M81.97,4.56c2.22.99,3.35,1.65,5.09,3l-1.07,1.41c-1.46-1.32-2.75-2.18-4.52-2.96v4.07c0,1.56.03,2.72.06,3.44h-1.75c.06-.76.09-1.99.09-3.44v-5.94c0-1.93-.01-3.12-.07-3.47l1.74.1c.15.01.22.06.22.15s-.06.16-.25.28c-.01.31-.03,1.02-.03,2.94v1.29l.5-.88Z"/>
  <path class="cls-1" d="M91.55,12.41h-1.57c.03-.54.04-1.41.04-2.57v-5.07c0-1.04-.01-1.87-.04-2.34.4.01.75.03,1.25.03h7.62c.5,0,.85-.01,1.25-.03-.03.47-.04,1.46-.04,2.34v5.07c0,1.22.01,2.02.04,2.57h-1.57v-.75h-6.97v.75ZM98.53,10.19V3.93h-6.97v6.27h6.97Z"/>
  <path class="cls-1" d="M103.58,4.56c1.18.69,1.54.96,2.79,2.09l-1.13,1.31c-.88-.91-1.53-1.43-2.65-2.15l.99-1.25ZM103.54,11.91c2.29-.82,3.74-1.54,5.28-2.62,2.07-1.44,3.07-2.6,4.72-5.41.51.62.78.88,1.18,1.22-1.22,2.03-1.87,2.88-3.02,4.02-1.22,1.19-2.59,2.16-4.21,2.99-.68.34-1.22.6-2.54,1.21-.06.19-.13.29-.24.29-.07,0-.18-.07-.25-.19l-.93-1.5ZM105.51,1.04c1.19.69,1.56.96,2.81,2.09l-1.15,1.29c-.88-.9-1.51-1.41-2.63-2.13l.97-1.25ZM112.47,1.27c.71.44,1.15.79,1.87,1.49l-.74.79c-.68-.72-1.01-1-1.78-1.52l.65-.76ZM113.63,0c.69.43,1.13.78,1.85,1.47l-.74.81c-.68-.72-1.01-1.02-1.77-1.53l.65-.75Z"/>
  <path class="cls-1" d="M128.89,7.88c-.63-.03-1.68-.04-2.35-.04h-7.47c-.75,0-1.72.01-2.34.04v-1.6c.62.03,1.59.04,2.34.04h7.47c.68,0,1.72-.01,2.35-.04v1.6Z"/>
  <path class="cls-1" d="M3.96,19.14c-1.62,2.18-2.44,4.5-2.44,6.87s.82,4.69,2.44,6.87h-1.25c-1.84-2.21-2.71-4.4-2.71-6.87s.87-4.66,2.71-6.87h1.25Z"/>
  <path class="cls-1" d="M7.58,24.73c-.63,0-1.46.01-2.06.03v-1.56c.56.01,1.4.04,2.06.04h3.63v-1.91c0-.65-.04-1.35-.12-1.59l1.74.09c.15.01.26.09.26.19s-.09.18-.31.28l-.03,1.03v1.91h3.04c.59,0,1.54-.03,2.04-.04v1.56c-.53-.01-1.49-.03-2.04-.03h-3.04c0,2.46-.63,4.6-2.57,6.27-.84.72-1.62,1.18-2.84,1.72-.25-.68-.43-1-.87-1.47,2.12-.84,3.35-1.87,4.1-3.4.46-.93.6-1.65.63-3.12h-3.63Z"/>
  <path class="cls-1" d="M26.32,24.3c.12.01.21.07.21.16s-.06.16-.24.26c-.01.49-.01,1-.01,2.1v3.1c0,1.04.03,2.15.04,2.59h-1.69c.06-.57.07-1.15.07-2.59v-3.09c0-.44,0-1.07-.01-1.5-1.19,1.15-3,2.49-4.81,3.57-.18-.29-.35-.54-.51-.72-.24-.25-.38-.44-.5-.59,2.6-1.47,4.59-3.02,6.28-4.84,1.18-1.28,2.06-2.47,2.31-3.13l1.41.65c.12.06.18.12.18.18,0,.12-.09.19-.29.25-.16.22-1.87,2.4-1.94,2.49-.07.09-.68.72-1,1.06l.51.04Z"/>
  <path class="cls-1" d="M35.95,23.48c2.22.99,3.35,1.65,5.09,3l-1.07,1.41c-1.46-1.32-2.75-2.18-4.52-2.96v4.07c0,1.56.03,2.72.06,3.44h-1.75c.06-.76.09-1.99.09-3.44v-5.94c0-1.93-.01-3.12-.07-3.47l1.74.1c.15.01.22.06.22.15s-.06.16-.25.28c-.01.31-.03,1.01-.03,2.94v1.29l.5-.88Z"/>
  <path class="cls-1" d="M51.98,23.09h-6.5c-.5,0-1.28.01-1.77.03v-1.54c.44.01,1.16.03,1.77.03h6.91c.49,0,.88,0,1.25-.01-.03.47-.04,1.28-.04,2.34v4.97c0,1.18.01,2.03.04,2.59h-1.66v-.69h-6.6c-.49,0-1.32.03-1.77.04v-1.56c.44.03,1.19.04,1.77.04h6.6v-6.24Z"/>
  <path class="cls-1" d="M57.55,20.54c1.28.72,2.09,1.37,3.24,2.54l-1.25,1.29c-1.13-1.25-1.32-1.41-2.97-2.59l.99-1.25ZM57.27,30.24c2.04-.88,3.5-1.71,4.88-2.77,1.24-.96,2.31-2.06,3.18-3.27.44-.63.78-1.19,1.43-2.4.43.6.69.91,1.1,1.24-1.4,2.5-2.34,3.71-4.09,5.22-1.41,1.22-2.59,1.99-5.07,3.29-.06.21-.12.29-.22.29-.07,0-.18-.07-.25-.18l-.96-1.44Z"/>
  <path class="cls-1" d="M73.65,24.86c1.09.59,2.02,1.22,2.59,1.78.31.31.32.32.44.41.71-.9,1.41-2.44,1.69-3.75h-4.18c-1.07,1.56-1.62,2.13-3.56,3.78-.37-.57-.59-.81-1.1-1.19,2.53-1.91,3.88-3.81,4.71-6.55l1.49.51c.15.06.19.1.19.19,0,.1-.04.13-.31.24-.38,1-.47,1.21-.66,1.6h3.97l.22-.26,1,1.04c.13.15.16.15.16.22,0,.12-.1.22-.32.32-.71,2.62-1.46,4.19-2.62,5.62-1.29,1.56-2.93,2.74-5.71,4.02-.28-.62-.5-.94-.94-1.37,2.34-.99,4.05-2.06,4.93-3.12-1.1-1.1-1.78-1.63-2.9-2.32l.91-1.18Z"/>
  <path class="cls-1" d="M91.93,21.68l1.1,1c.1.1.13.15.13.21,0,.1-.07.18-.29.26-.38,2.06-1.09,3.8-2.13,5.24-.96,1.31-2.24,2.41-3.85,3.34-.53.29-.9.49-1.81.91-.22-.62-.41-.93-.9-1.44,2.47-1.04,3.77-1.93,4.99-3.41,1.07-1.29,1.69-2.6,2.1-4.47h-4.13c-1.13,1.69-1.41,2.02-3.16,3.66-.62-.72-.68-.76-1.16-1.1,1.57-1.4,2.35-2.34,3.18-3.81.57-1.01.87-1.74,1.15-2.68l1.47.49c.15.04.21.1.21.19,0,.1-.04.15-.32.25l-.32.79c-.18.44-.24.57-.35.79h3.91l.21-.22Z"/>
  <path class="cls-1" d="M99.75,23.48c2.22.99,3.35,1.65,5.09,3l-1.07,1.41c-1.46-1.32-2.75-2.18-4.52-2.96v4.07c0,1.56.03,2.72.06,3.44h-1.75c.06-.76.09-1.99.09-3.44v-5.94c0-1.93-.01-3.12-.07-3.47l1.74.1c.15.01.22.06.22.15s-.06.16-.25.28c-.01.31-.03,1.01-.03,2.94v1.29l.5-.88Z"/>
  <path class="cls-1" d="M106.93,32.88c1.62-2.18,2.44-4.5,2.44-6.87s-.82-4.69-2.44-6.87h1.24c1.85,2.21,2.72,4.4,2.72,6.87s-.87,4.66-2.72,6.87h-1.24Z"/>
  <path class="cls-1" d="M124.52,23.64c.07.09.1.16.1.24,0,.12-.1.15-.46.16-6.05,3.02-7.52,4.07-7.52,5.46,0,.97.96,1.35,3.27,1.35,1.81,0,3.35-.16,5-.53-.04.43-.04.63-.04.91,0,.24,0,.4.03.74-1.43.26-3.22.43-4.99.43-1.88,0-3.04-.24-3.81-.75-.69-.46-1.09-1.24-1.09-2.13,0-1.38.75-2.34,3-3.81-.01-.03-.06-.12-.1-.24-.35-.94-.43-1.32-.69-3.97-.09-.81-.13-1.16-.25-1.56h1.74c.13.01.25.09.25.18,0,.1-.06.19-.19.29,0,2.22.15,3.32.57,4.5l2.44-1.38c.29-.16.91-.53,1.84-1.12l.9,1.24Z"/>
  <path class="cls-1" d="M129.77,20.14c.13.03.24.12.24.22,0,.12-.07.19-.35.31-.5,2.25-.71,3.96-.71,5.72,0,1.99.18,3.78.53,5.41-.26.06-1.27.31-1.59.41-.31-1.6-.47-3.35-.47-5.38,0-1.66.12-2.97.62-6.33.01-.15.04-.34.07-.65l1.66.28ZM136.92,19.95c.15.01.24.09.24.21,0,.1-.03.13-.1.19l-.12.1c0,.57.01.87.04,1.43.01.37.01.43.03.78.91-.07,1.54-.18,2.56-.4l.06,1.46c-.51.12-1.66.26-2.59.34.01.5.03.76.07,2.71.01.31.01.81.04,1.37,1.49.66,2.13,1.07,3.31,2.06-.46.46-.68.71-1.01,1.21-.79-.78-1.21-1.07-2.29-1.75-.16,1.72-1.07,2.46-3.02,2.46s-3.07-.81-3.07-2.25,1.16-2.31,2.91-2.31c.49,0,1.03.06,1.66.18,0-1.03-.03-2.53-.09-3.6-.6.01-.85.03-1.24.03-1.07,0-1.49-.03-2.75-.13l.06-1.46c.59.1,1.6.18,2.4.18.09,0,.57-.01,1.5-.03-.01-1.24-.09-2.21-.22-2.88l1.62.13ZM133.98,28.82c-.9,0-1.46.38-1.46.99s.53.97,1.47.97c.51,0,.93-.12,1.19-.32.25-.21.38-.49.43-.91.01-.1.03-.37.03-.44-.62-.21-1.09-.28-1.66-.28Z"/>
</svg>