<?xml version="1.0" encoding="UTF-8"?>
<svg id="_レイヤー_1" data-name="レイヤー 1" xmlns="http://www.w3.org/2000/svg" viewBox="0 0 163.4 13.99">
  <defs>
    <style>
      .cls-1 {
        fill: #fff;
      }
    </style>
  </defs>
  <path class="cls-1" d="M3.24,5.15c-.88.03-2.02.07-2.63.12l-.03-1.53c.24.01.41.01.53.01.31,0,1.77-.03,2.1-.04l4.05-.12v-.29c0-1.21-.04-2.09-.12-2.46l1.69.15c.13.01.22.07.22.16s-.07.16-.27.26c-.01.29-.03,1.35-.03,1.71v.44l1.28-.04c.93-.03,1.97-.07,2.63-.12l.03,1.53h-.53c-.44,0-1.78.01-2.1.03l-1.31.04v5.49c0,.46.01.9.01,1.35,0,.74-.22,1.07-.81,1.24-.47.12-.69.15-2.44.16-.06-.69-.12-1.01-.31-1.63.6.06.91.09,1.15.09.81,0,.9-.06.9-.5v-4.87l-.25.37c-.63.94-2.13,2.4-3.66,3.56-.71.53-1.24.87-2.43,1.56-.25-.59-.47-.91-.91-1.38,2.44-1.35,4.25-2.74,5.6-4.28.32-.37.75-.91.88-1.1l-3.25.1Z"/>
  <path class="cls-1" d="M18.56,2.31c.09,0,.19.07.19.13,0,.09-.12.21-.29.28,0,3.63-.12,4.82-.57,6.09-.5,1.35-1.22,2.29-2.46,3.16-.32.24-.57.38-1.24.78-.34-.54-.68-.96-1.03-1.27,1.24-.72,1.74-1.07,2.24-1.6.9-.99,1.32-2.16,1.46-4.05.04-.56.07-1.5.07-2.47,0-.5-.01-.72-.04-1.19l1.68.13ZM20.12,11.58c.13-.46.18-.93.18-2.74v-4.47c0-1.16-.01-1.81-.04-2.21l1.63.1c.16.01.25.06.25.15s-.07.16-.28.29c-.01.31-.01.53-.01,1.66v5.75c1.74-.9,3.16-2.04,4.57-3.69.1.41.28.99.53,1.72-2.32,2.18-3.1,2.75-5.21,3.82-.06.21-.13.29-.24.29-.04,0-.13-.04-.22-.09l-1.16-.6Z"/>
  <path class="cls-1" d="M29.48,1.9c1.38,1.49,1.88,2.19,2.78,3.87l-1.5,1c-.88-1.74-1.4-2.53-2.54-3.91l1.27-.96ZM39.64,2.63c.13.06.19.12.19.21,0,.12-.12.21-.37.28-1.07,3.22-1.63,4.34-3.03,5.99-1.63,1.93-3.06,2.99-6.02,4.41-.24-.6-.46-.99-.91-1.43,1.9-.85,2.75-1.35,3.84-2.22,1.74-1.38,3.06-3.12,3.84-5.03.31-.76.51-1.44.85-2.85l1.6.65Z"/>
  <path class="cls-1" d="M44.76,5.28c-.82,1.28-1.37,1.96-2.44,2.99-.4-.62-.59-.84-1.04-1.21,1.29-1.27,2.06-2.28,2.75-3.66.47-.94.68-1.5.99-2.81l1.59.38c.13.03.21.1.21.19,0,.1-.04.13-.35.24-.38,1.19-.57,1.69-.9,2.4h6.49c.6,0,1.52-.01,2.06-.04v1.57c-.54-.03-1.46-.04-2.06-.04h-1.99c-.19,2.97-.66,4.4-1.93,5.85-.87,1-1.68,1.53-3.94,2.62-.24-.51-.56-.97-.94-1.35,1.49-.66,2.09-.99,2.74-1.49,1.25-.97,1.9-2.04,2.25-3.72.13-.62.21-1.26.24-1.91h-3.71Z"/>
  <path class="cls-1" d="M66.76,5.25c.12.09.15.15.15.22,0,.1-.07.16-.29.24-1.21,4.18-3.5,6.4-8.41,8.12-.31-.75-.49-1.03-.84-1.41,1.78-.6,2.71-1,3.72-1.62,2-1.24,3.1-2.62,3.9-4.9l-2.53.1c-1.85.07-4.99.13-6.49.19l-.06-1.6c1.29.03,1.62.03,3.29.03,1.96,0,2.52,0,3.25-.03l2.94-.09.21-.24,1.16.99ZM65.04,2.65c-.41-.01-1.03-.03-1.46-.03h-4.43c-.44,0-1.06.01-1.47.03v-1.49c.41.01,1.03.03,1.47.03h4.43c.43,0,1.04-.01,1.46-.03v1.49Z"/>
  <path class="cls-1" d="M73.17,4.56c2.22.99,3.35,1.65,5.09,3l-1.07,1.41c-1.46-1.32-2.75-2.18-4.52-2.96v4.07c0,1.56.03,2.72.06,3.44h-1.75c.06-.76.09-1.99.09-3.44v-5.94c0-1.93-.01-3.12-.07-3.47l1.74.1c.15.01.22.06.22.15s-.06.16-.25.28c-.02.31-.03,1.02-.03,2.94v1.29l.5-.88Z"/>
  <path class="cls-1" d="M82.75,12.41h-1.57c.03-.54.04-1.41.04-2.57v-5.07c0-1.04-.01-1.87-.04-2.34.4.01.75.03,1.25.03h7.62c.5,0,.85-.01,1.25-.03-.03.47-.04,1.46-.04,2.34v5.07c0,1.22.01,2.02.04,2.57h-1.57v-.75h-6.97v.75ZM89.72,10.19V3.93h-6.97v6.27h6.97Z"/>
  <path class="cls-1" d="M94.78,4.56c1.18.69,1.54.96,2.79,2.09l-1.13,1.31c-.88-.91-1.53-1.43-2.65-2.15l.99-1.25ZM94.73,11.91c2.29-.82,3.74-1.54,5.28-2.62,2.07-1.44,3.07-2.6,4.72-5.41.51.62.78.88,1.18,1.22-1.22,2.03-1.87,2.88-3.02,4.02-1.22,1.19-2.59,2.16-4.21,2.99-.68.34-1.22.6-2.54,1.21-.06.19-.13.29-.24.29-.07,0-.18-.07-.25-.19l-.93-1.5ZM96.71,1.04c1.19.69,1.56.96,2.81,2.09l-1.15,1.29c-.88-.9-1.52-1.41-2.63-2.13l.97-1.25ZM103.66,1.27c.71.44,1.15.79,1.87,1.49l-.74.79c-.68-.72-1.01-1-1.78-1.52l.65-.76ZM104.82,0c.69.43,1.13.78,1.85,1.47l-.74.81c-.68-.72-1.02-1.02-1.77-1.53l.65-.75Z"/>
  <path class="cls-1" d="M120.09,7.88c-.63-.03-1.68-.04-2.35-.04h-7.47c-.75,0-1.72.01-2.34.04v-1.6c.62.03,1.59.04,2.34.04h7.47c.68,0,1.72-.01,2.35-.04v1.6Z"/>
  <path class="cls-1" d="M129.02,3.59c.13.06.16.09.16.16s-.06.12-.16.16c-.46,2.03-1.09,4.09-1.63,5.28-.88,1.93-1.78,2.79-2.93,2.79-1.52,0-2.56-1.49-2.56-3.63,0-1.63.65-3.15,1.85-4.37,1.25-1.25,2.94-1.93,4.81-1.93,1.56,0,3,.43,4.1,1.21,1.28.91,1.96,2.32,1.96,4.09s-.65,3.09-2,4.07c-.82.62-1.38.87-3.09,1.46-.25-.71-.38-.97-.72-1.46,1.22-.34,1.91-.62,2.6-1.06,1.04-.68,1.62-1.75,1.62-3.09,0-1.78-.96-3.06-2.71-3.63-.57-.19-.79-.22-1.81-.28l.5.22ZM123.38,8.37c0,1.19.47,2.12,1.06,2.12.49,0,1.04-.75,1.72-2.27.4-.9.77-2.07,1.18-3.63.12-.47.13-.59.18-1.15-2.19.32-4.13,2.63-4.13,4.93Z"/>
  <path class="cls-1" d="M145.95,6.65c.51,0,.9-.01,1.25-.03-.04.56-.04,1.07-.04,2.34v.47c0,1.18.01,2.03.04,2.59h-1.4v-.25h-5.55v.29h-1.4c.03-.54.04-1.44.04-2.34v-.76c0-.57-.01-1.16-.01-1.74-.07.03-.16.07-.24.1-.47.21-.97.38-1.93.69-.18-.53-.31-.81-.54-1.18,1.57-.4,2.62-.84,3.29-1.44h-1.13l-.13.4-1.34-.13c.43-1.34.6-2.1.68-2.9.97.04,1.07.04,1.43.04h1.57c.01-.19.03-.37.03-.56h-1.85c-.49,0-1.26.01-1.75.03v-1.12c.44.01,1.19.03,1.75.03h1.87c0-.31,0-.63-.03-.94l1.43.1c.16.01.25.06.25.15s-.07.16-.28.29v.4h1.72c0-.31-.01-.63-.03-.94l1.44.1c.16.01.25.06.25.15s-.07.16-.26.29c0,.13-.01.26-.01.4h1.57c.99,0,1.28,0,1.71-.01-.01.28-.01.71-.01,1.1v.68c0,.43,0,.71.01,1.12h-1.35v-.25h-1.93v.56h3.35l.22-.26.91.78c.09.07.12.13.12.21,0,.09-.06.13-.24.21l-.1.04c-.12.85-.19,1.13-.37,1.38-.22.34-.59.46-1.37.46h-.28c-.04-.62-.07-.78-.24-1.24.15.01.28.01.4.01.35,0,.46-.06.54-.57h-2.96c.01.35.01.72.03,1.07h-1.43c.01-.35.01-.72.03-1.07h-2.52l-.04.06c-.31.41-.72.82-1.25,1.19h6.06ZM142.09,12.9l-1.53.41c-.99.26-2.29.5-3.82.68-.07-.44-.21-.82-.41-1.21,2.52-.25,3.75-.47,5.07-.93l.99.63c.1.07.15.15.15.24,0,.13-.09.18-.41.18h-.03ZM140.21,4.38c.07-.18.13-.37.18-.56h-1.59c-.06.21-.1.4-.15.56h1.56ZM145.8,8.05v-.4h-5.55v.4h5.55ZM140.26,9.38h5.55v-.37h-5.55v.37ZM140.26,10.77h5.55v-.41h-5.55v.41ZM143.7,3.82h-1.91c-.04.19-.07.38-.13.56h2.04v-.56ZM141.93,2.25c0,.19-.02.37-.03.56h1.79v-.56h-1.76ZM144.67,11.89c1.56.41,3.1.68,5.13.85-.37.47-.49.69-.65,1.21-2.02-.22-3.91-.62-5.3-1.1l.81-.96ZM145.07,2.81h1.93v-.56h-1.93v.56Z"/>
  <path class="cls-1" d="M158.67,10.38c0,1.35.01,2.35.04,3.02h-1.5c.03-.66.04-1.66.04-3.02v-1.07h-3.24c-.1.66-.25,1.27-.43,1.71-.4,1.06-.87,1.71-2,2.87-.22-.41-.6-.93-.85-1.15.93-1,1.32-1.66,1.65-2.71.24-.78.41-2.09.41-3.21v-3.37c0-1.4-.03-2.19-.04-2.38.91.04,1.93.07,3.5.07h4.22c1,0,2.16-.03,2.93-.07-.02.46-.03,1.56-.03,2.87v5.66c0,.38,0,1,.01,1.87,0,.24.02.69.02.84,0,1.29-.47,1.56-2.69,1.56h-.38c-.04-.54-.12-.94-.28-1.56.62.04,1.02.06,1.34.06.47,0,.54-.09.54-.62v-2.44h-3.27v1.07ZM157.25,5.82h-3.03v1.03c0,.35-.02.74-.04,1.1h3.07v-2.13ZM157.25,2.49h-3.03v2h3.03v-2ZM161.93,4.49v-2h-3.27v2h3.27ZM161.93,7.96v-2.13h-3.27v2.13h3.27Z"/>
</svg>