<?xml version="1.0" encoding="UTF-8"?>
<svg id="_レイヤー_1" data-name="レイヤー 1" xmlns="http://www.w3.org/2000/svg" viewBox="0 0 196.79 31.21">
  <defs>
    <style>
      .cls-1 {
        fill: #fff;
      }
    </style>
  </defs>
  <path class="cls-1" d="M3.24,5.15c-.88.03-2.02.07-2.63.12l-.03-1.53c.24.01.41.01.53.01.31,0,1.77-.03,2.1-.04l4.05-.12v-.29c0-1.21-.04-2.09-.12-2.46l1.69.15c.13.01.22.07.22.16s-.07.16-.26.26c-.01.29-.03,1.35-.03,1.71v.44l1.28-.04c.93-.03,1.97-.07,2.63-.12l.03,1.53h-.53c-.44,0-1.78.01-2.1.03l-1.31.04v5.49c0,.46.01.9.01,1.35,0,.74-.22,1.07-.81,1.24-.47.12-.69.15-2.44.16-.06-.69-.12-1.01-.31-1.63.6.06.91.09,1.15.09.81,0,.9-.06.9-.5v-4.87l-.25.37c-.63.94-2.13,2.4-3.66,3.56-.71.53-1.24.87-2.43,1.56-.25-.59-.47-.91-.91-1.38,2.44-1.35,4.25-2.74,5.6-4.28.32-.37.75-.91.88-1.1l-3.25.1Z"/>
  <path class="cls-1" d="M17.97,2.31c.09,0,.19.07.19.13,0,.09-.12.21-.29.28,0,3.63-.12,4.82-.57,6.09-.5,1.35-1.22,2.29-2.46,3.16-.32.24-.57.38-1.24.78-.34-.54-.68-.96-1.03-1.27,1.24-.72,1.74-1.07,2.24-1.6.9-.99,1.32-2.16,1.46-4.05.04-.56.07-1.5.07-2.47,0-.5-.01-.72-.04-1.19l1.68.13ZM19.53,11.58c.13-.46.18-.93.18-2.74v-4.47c0-1.16-.01-1.81-.04-2.21l1.63.1c.16.01.25.06.25.15s-.07.16-.28.29c-.01.31-.01.53-.01,1.66v5.75c1.74-.9,3.16-2.04,4.57-3.69.1.41.28.99.53,1.72-2.32,2.18-3.1,2.75-5.21,3.82-.06.21-.13.29-.24.29-.04,0-.13-.04-.22-.09l-1.16-.6Z"/>
  <path class="cls-1" d="M28.3,1.9c1.38,1.49,1.88,2.19,2.78,3.87l-1.5,1c-.88-1.74-1.4-2.53-2.54-3.91l1.26-.96ZM38.47,2.63c.13.06.19.12.19.21,0,.12-.12.21-.37.28-1.07,3.22-1.63,4.34-3.03,5.99-1.63,1.93-3.06,2.99-6.02,4.41-.24-.6-.46-.99-.91-1.43,1.9-.85,2.75-1.35,3.84-2.22,1.74-1.38,3.06-3.12,3.84-5.03.31-.76.51-1.44.85-2.85l1.6.65Z"/>
  <path class="cls-1" d="M42.99,5.28c-.82,1.28-1.37,1.96-2.44,2.99-.4-.62-.59-.84-1.04-1.21,1.29-1.27,2.06-2.28,2.75-3.66.47-.94.68-1.5.99-2.81l1.59.38c.13.03.21.1.21.19,0,.1-.04.13-.35.24-.38,1.19-.57,1.69-.9,2.4h6.49c.6,0,1.51-.01,2.06-.04v1.57c-.54-.03-1.46-.04-2.06-.04h-1.99c-.19,2.97-.66,4.4-1.93,5.85-.87,1-1.68,1.53-3.94,2.62-.24-.51-.56-.97-.94-1.35,1.49-.66,2.09-.99,2.74-1.49,1.25-.97,1.9-2.04,2.25-3.72.13-.62.21-1.26.24-1.91h-3.71Z"/>
  <path class="cls-1" d="M64.41,5.25c.12.09.15.15.15.22,0,.1-.07.16-.29.24-1.21,4.18-3.5,6.4-8.41,8.12-.31-.75-.49-1.03-.84-1.41,1.78-.6,2.71-1,3.72-1.62,2-1.24,3.1-2.62,3.9-4.9l-2.53.1c-1.85.07-4.99.13-6.49.19l-.06-1.6c1.29.03,1.62.03,3.29.03,1.96,0,2.52,0,3.25-.03l2.94-.09.21-.24,1.16.99ZM62.68,2.65c-.41-.01-1.03-.03-1.46-.03h-4.43c-.44,0-1.06.01-1.47.03v-1.49c.41.01,1.03.03,1.47.03h4.43c.43,0,1.04-.01,1.46-.03v1.49Z"/>
  <path class="cls-1" d="M70.23,4.56c2.22.99,3.35,1.65,5.09,3l-1.07,1.41c-1.46-1.32-2.75-2.18-4.52-2.96v4.07c0,1.56.03,2.72.06,3.44h-1.75c.06-.76.09-1.99.09-3.44v-5.94c0-1.93-.01-3.12-.07-3.47l1.74.1c.15.01.22.06.22.15s-.06.16-.25.28c-.01.31-.03,1.02-.03,2.94v1.29l.5-.88Z"/>
  <path class="cls-1" d="M79.22,12.41h-1.57c.03-.54.04-1.41.04-2.57v-5.07c0-1.04-.01-1.87-.04-2.34.4.01.75.03,1.25.03h7.62c.5,0,.85-.01,1.25-.03-.03.47-.04,1.46-.04,2.34v5.07c0,1.22.01,2.02.04,2.57h-1.57v-.75h-6.97v.75ZM86.19,10.19V3.93h-6.97v6.27h6.97Z"/>
  <path class="cls-1" d="M90.66,4.56c1.18.69,1.54.96,2.79,2.09l-1.13,1.31c-.88-.91-1.53-1.43-2.65-2.15l.99-1.25ZM90.62,11.91c2.29-.82,3.74-1.54,5.28-2.62,2.07-1.44,3.07-2.6,4.72-5.41.51.62.78.88,1.18,1.22-1.22,2.03-1.87,2.88-3.02,4.02-1.22,1.19-2.59,2.16-4.21,2.99-.68.34-1.22.6-2.54,1.21-.06.19-.13.29-.24.29-.07,0-.18-.07-.25-.19l-.93-1.5ZM92.59,1.04c1.19.69,1.56.96,2.81,2.09l-1.15,1.29c-.88-.9-1.51-1.41-2.63-2.13l.97-1.25ZM99.55,1.27c.71.44,1.15.79,1.87,1.49l-.74.79c-.68-.72-1.01-1-1.78-1.52l.65-.76ZM100.71,0c.69.43,1.13.78,1.85,1.47l-.74.81c-.68-.72-1.01-1.02-1.77-1.53l.65-.75Z"/>
  <path class="cls-1" d="M115.38,7.88c-.63-.03-1.68-.04-2.35-.04h-7.47c-.75,0-1.72.01-2.34.04v-1.6c.62.03,1.59.04,2.34.04h7.47c.68,0,1.72-.01,2.35-.04v1.6Z"/>
  <path class="cls-1" d="M123.73,3.59c.13.06.16.09.16.16s-.06.12-.16.16c-.46,2.03-1.09,4.09-1.63,5.28-.88,1.93-1.78,2.79-2.93,2.79-1.52,0-2.56-1.49-2.56-3.63,0-1.63.65-3.15,1.85-4.37,1.25-1.25,2.94-1.93,4.81-1.93,1.56,0,3,.43,4.1,1.21,1.28.91,1.96,2.32,1.96,4.09s-.65,3.09-2,4.07c-.82.62-1.38.87-3.09,1.46-.25-.71-.38-.97-.72-1.46,1.22-.34,1.91-.62,2.6-1.06,1.04-.68,1.62-1.75,1.62-3.09,0-1.78-.96-3.06-2.71-3.63-.57-.19-.79-.22-1.81-.28l.5.22ZM118.08,8.37c0,1.19.47,2.12,1.06,2.12.49,0,1.04-.75,1.72-2.27.4-.9.76-2.07,1.18-3.63.12-.47.13-.59.18-1.15-2.19.32-4.13,2.63-4.13,4.93Z"/>
  <path class="cls-1" d="M135.45,2.82c.41-.87.75-1.75.97-2.68l1.46.49c.12.04.19.1.19.19s-.06.12-.28.19c-.25.56-.56,1.22-.88,1.81h3.35c.99,0,2.15-.01,2.91-.06-.01.46-.03,1.06-.03,2.87v4.09c0,.4.01.76.01,1.56,0,.28.01.75.01.93,0,.72-.12,1.06-.49,1.29-.41.28-.84.32-2.49.32-.03-.59-.1-1-.28-1.54.49.03.69.04,1,.04.72,0,.76-.03.76-.6v-7.55h-9.09v6.27c0,2.24.01,2.84.04,3.46h-1.54c.01-.57.04-1.94.04-2.87v-5.4c0-1.78-.01-2.41-.04-2.87.78.04,1.93.06,2.93.06h1.43ZM135.6,11.21h-1.41c.03-.34.04-.82.04-1.56v-2.68c0-.46-.01-1.03-.04-1.29.32.01.63.03,1.06.03h3.8c.43,0,.74-.01,1.06-.03-.03.26-.04.84-.04,1.29v2.47c0,.69.01,1.19.04,1.53h-1.41v-.6h-3.09v.84ZM138.68,6.99h-3.09v2.12h3.09v-2.12Z"/>
  <path class="cls-1" d="M150.37.46c.15,0,.22.09.22.18s-.01.12-.18.28c.24.81.34,1.15.47,1.57,1.68-.21,1.82-.24,3.29-.63l.4,1.41c-1.29.29-2.34.49-3.22.57.24.62.35.81.72,1.56,1.66-.25,1.82-.28,3.21-.65l.41,1.41c-.82.19-1.12.25-2,.4-.4.06-.71.1-.94.15.15.24.24.38.34.54.07.12.43.62,1.06,1.49l-.93.94c-.69-.41-1.12-.5-2.24-.5-.13,0-.21,0-.41.01-.07-.57-.16-.9-.32-1.22.31-.03.44-.04.74-.04.32,0,.49.01.87.06-.16-.26-.38-.65-.65-1.16-1.5.15-3.29.24-5.35.28l-.26-1.47c.31.01,1.44.03,1.91.03.99,0,1.74-.03,3.04-.13-.26-.53-.5-1.06-.72-1.62-1.6.13-2.4.16-3.6.19l-.28-1.41c.38.01.53.01.74.01.68,0,1.97-.04,2.71-.1-.03-.15-.1-.34-.62-2.09l1.6-.06ZM148.23,9.41c-.68.29-.96.63-.96,1.13s.34.9,1.02,1.16c.51.19.94.28,1.9.37.54.04,1.29.07,1.69.07.62,0,1.12-.03,2.12-.1.01.34.01.44.04.85.03.29.03.38.04.65-.57.03-.81.03-1.44.03-2.25,0-3.28-.07-4.31-.31-1.65-.38-2.54-1.28-2.54-2.54,0-.63.28-1.26.75-1.74.21-.21.49-.38.96-.65l.74,1.07Z"/>
  <path class="cls-1" d="M164.81,2.6c-.37.72-.74,1.46-1.18,2.15l.63.04c.16.01.25.06.25.15s-.07.16-.28.29v6.03c0,1.12.01,2.04.03,2.57h-1.52c.01-.56.03-1.38.03-2.57v-5.24c-.35.47-.72.9-1.15,1.37-1.15,1.22-2.13,2.03-4.06,3.29-.34-.62-.56-.94-.85-1.32,1.79-1.04,2.74-1.78,3.88-2.99,1.13-1.19,1.79-2.16,2.59-3.78h-2.99c-.81,0-2.13.01-2.93.04v-1.46c.75.03,2.09.06,2.93.06h7.15c.93,0,2.18-.03,2.93-.06v1.46c-.78-.03-2.03-.04-2.93-.04h-2.54ZM165.55,5.16c2.13,1.47,3.37,2.57,5.02,4.52l-1.19,1.18c-1.34-1.82-2.53-3.03-4.65-4.69l.82-1Z"/>
  <path class="cls-1" d="M176.54,2.82c.41-.87.75-1.75.97-2.68l1.46.49c.12.04.19.1.19.19s-.06.12-.28.19c-.25.56-.56,1.22-.88,1.81h3.35c.99,0,2.15-.01,2.91-.06-.01.46-.03,1.06-.03,2.87v4.09c0,.4.01.76.01,1.56,0,.28.01.75.01.93,0,.72-.12,1.06-.49,1.29-.41.28-.84.32-2.49.32-.03-.59-.1-1-.28-1.54.49.03.69.04,1,.04.72,0,.76-.03.76-.6v-7.55h-9.09v6.27c0,2.24.01,2.84.04,3.46h-1.54c.01-.57.04-1.94.04-2.87v-5.4c0-1.78-.01-2.41-.04-2.87.78.04,1.93.06,2.93.06h1.43ZM176.69,11.21h-1.41c.03-.34.04-.82.04-1.56v-2.68c0-.46-.01-1.03-.04-1.29.32.01.63.03,1.06.03h3.8c.43,0,.74-.01,1.06-.03-.03.26-.04.84-.04,1.29v2.47c0,.69.01,1.19.04,1.53h-1.41v-.6h-3.09v.84ZM179.78,6.99h-3.09v2.12h3.09v-2.12Z"/>
  <path class="cls-1" d="M191.47.46c.15,0,.22.09.22.18s-.01.12-.18.28c.24.81.34,1.15.47,1.57,1.68-.21,1.82-.24,3.29-.63l.4,1.41c-1.29.29-2.34.49-3.22.57.24.62.35.81.72,1.56,1.66-.25,1.82-.28,3.21-.65l.41,1.41c-.82.19-1.12.25-2,.4-.4.06-.71.1-.94.15.15.24.24.38.34.54.07.12.43.62,1.06,1.49l-.93.94c-.69-.41-1.12-.5-2.24-.5-.13,0-.21,0-.41.01-.07-.57-.16-.9-.32-1.22.31-.03.44-.04.74-.04.32,0,.49.01.87.06-.16-.26-.38-.65-.65-1.16-1.5.15-3.29.24-5.35.28l-.26-1.47c.31.01,1.44.03,1.91.03.99,0,1.74-.03,3.04-.13-.26-.53-.5-1.06-.72-1.62-1.6.13-2.4.16-3.6.19l-.28-1.41c.38.01.53.01.74.01.68,0,1.97-.04,2.71-.1-.03-.15-.1-.34-.62-2.09l1.6-.06ZM189.32,9.41c-.68.29-.96.63-.96,1.13s.34.9,1.01,1.16c.51.19.94.28,1.9.37.54.04,1.29.07,1.69.07.62,0,1.12-.03,2.12-.1.01.34.01.44.04.85.03.29.03.38.04.65-.57.03-.81.03-1.44.03-2.25,0-3.28-.07-4.31-.31-1.65-.38-2.54-1.28-2.54-2.54,0-.63.28-1.26.75-1.74.21-.21.49-.38.96-.65l.74,1.07Z"/>
  <path class="cls-1" d="M56.02,28.39c-.66-.93-1.57-1.96-2.46-2.82-1.62,2.03-3.29,3.47-5.82,4.96-.34-.62-.44-.76-.99-1.28,1.69-.99,2.63-1.68,3.94-2.9.65-.6.99-.97,1.66-1.84-1.1-.91-1.46-1.16-3.57-2.47l.84-1.21c2.29,1.37,2.47,1.49,3.63,2.4,1.04-1.72,1.57-2.99,2.02-4.78l1.53.6c.1.04.18.12.18.19,0,.1-.09.19-.28.26-.15.38-.22.57-.43,1.09-.62,1.53-1.19,2.74-1.78,3.66,1.18,1.09,1.94,1.9,2.78,2.97l-1.25,1.16Z"/>
  <path class="cls-1" d="M62.06,18.84c.16.01.26.07.26.15,0,.09-.09.16-.28.29-.01.75-.01,1.13-.01,1.68v2.94c0,.99,0,1.62.03,2.15h-1.63c.03-.5.04-1.18.04-2.15v-2.94c0-1.18-.01-1.81-.04-2.21l1.63.09ZM67.59,18.46c.15.01.25.09.25.19,0,.12-.07.21-.31.34-.03.47-.03.71-.03,1.56v2.82c0,2.1-.15,3.13-.62,4.19-.65,1.49-2.07,2.63-4.52,3.65-.29-.68-.49-.99-.91-1.44,1.56-.54,2.49-1.09,3.22-1.87.96-1.01,1.25-2.04,1.25-4.38v-2.97c0-1.32-.03-1.94-.12-2.24l1.78.15Z"/>
  <path class="cls-1" d="M71.48,22.55c.85,1,1.19,1.54,1.72,2.74l-1.43.69c-.56-1.29-.78-1.69-1.54-2.69l1.25-.74ZM80.07,22.46c.13.04.21.13.21.24,0,.15-.06.21-.29.31-.75,2.75-1.63,4.38-3.06,5.69-1.18,1.07-1.97,1.56-4.07,2.46-.29-.63-.41-.81-.85-1.29,1.41-.54,1.96-.81,2.59-1.22,1.84-1.18,2.99-2.74,3.69-5.02.16-.53.19-.66.41-1.68l1.38.51ZM74.76,21.55c.71.99,1.06,1.68,1.46,2.9l-1.46.57-.19-.6c-.28-.88-.31-.94-1.09-2.27l1.28-.6Z"/>
  <path class="cls-1" d="M86.02,21.93c2.22.99,3.35,1.65,5.09,3l-1.07,1.41c-1.46-1.32-2.75-2.18-4.52-2.96v4.07c0,1.56.03,2.72.06,3.44h-1.75c.06-.76.09-1.99.09-3.44v-5.94c0-1.93-.01-3.12-.07-3.47l1.74.1c.15.01.22.06.22.15s-.06.16-.25.28c-.01.31-.03,1.02-.03,2.94v1.29l.5-.88Z"/>
  <path class="cls-1" d="M99.83,23.84c-.09,1.32-.38,2.65-.81,3.53-.6,1.27-1.66,2.16-3.65,3.13-.41.19-.59.26-.97.41-.25-.63-.54-1.09-.93-1.44,2.54-.97,3.47-1.65,4.09-2.91.34-.72.59-1.75.65-2.72h-3.27c-.75,0-1.72.01-2.34.04v-1.52c.62.03,1.59.04,2.34.04h7.33c.68,0,1.71-.01,2.34-.04v1.52c-.63-.03-1.66-.04-2.34-.04h-2.44ZM101.93,20.31c-.44-.01-1.28-.03-1.77-.03h-4.03c-.49,0-1.31.01-1.75.03v-1.53c.44.01,1.19.03,1.75.03h4.03c.57,0,1.32-.01,1.77-.03v1.53ZM102.74,18.66c.69.43,1.16.78,1.87,1.47l-.74.81c-.69-.74-1.01-1.02-1.78-1.53l.65-.75ZM103.89,17.38c.71.44,1.15.78,1.87,1.49l-.74.79c-.68-.72-1.01-1-1.78-1.52l.65-.76Z"/>
  <path class="cls-1" d="M115.14,28.39c-.66-.93-1.57-1.96-2.46-2.82-1.62,2.03-3.29,3.47-5.82,4.96-.34-.62-.44-.76-.99-1.28,1.69-.99,2.63-1.68,3.94-2.9.65-.6.99-.97,1.66-1.84-1.1-.91-1.46-1.16-3.57-2.47l.84-1.21c2.29,1.37,2.47,1.49,3.63,2.4,1.04-1.72,1.57-2.99,2.02-4.78l1.53.6c.1.04.18.12.18.19,0,.1-.09.19-.28.26-.15.38-.22.57-.43,1.09-.62,1.53-1.19,2.74-1.78,3.66,1.18,1.09,1.94,1.9,2.78,2.97l-1.25,1.16Z"/>
  <path class="cls-1" d="M121.18,18.84c.16.01.26.07.26.15,0,.09-.09.16-.28.29-.01.75-.01,1.13-.01,1.68v2.94c0,.99,0,1.62.03,2.15h-1.63c.03-.5.04-1.18.04-2.15v-2.94c0-1.18-.01-1.81-.04-2.21l1.63.09ZM126.71,18.46c.15.01.25.09.25.19,0,.12-.07.21-.31.34-.03.47-.03.71-.03,1.56v2.82c0,2.1-.15,3.13-.62,4.19-.65,1.49-2.07,2.63-4.52,3.65-.29-.68-.49-.99-.91-1.44,1.56-.54,2.49-1.09,3.22-1.87.96-1.01,1.25-2.04,1.25-4.38v-2.97c0-1.32-.03-1.94-.12-2.24l1.78.15Z"/>
  <path class="cls-1" d="M130.6,22.55c.85,1,1.19,1.54,1.72,2.74l-1.43.69c-.56-1.29-.78-1.69-1.54-2.69l1.25-.74ZM139.19,22.46c.13.04.21.13.21.24,0,.15-.06.21-.29.31-.75,2.75-1.63,4.38-3.06,5.69-1.18,1.07-1.97,1.56-4.07,2.46-.29-.63-.41-.81-.85-1.29,1.41-.54,1.96-.81,2.59-1.22,1.84-1.18,2.99-2.74,3.69-5.02.16-.53.19-.66.41-1.68l1.38.51ZM133.88,21.55c.71.99,1.06,1.68,1.46,2.9l-1.46.57-.19-.6c-.28-.88-.31-.94-1.09-2.27l1.28-.6Z"/>
  <path class="cls-1" d="M145.15,21.93c2.22.99,3.35,1.65,5.09,3l-1.07,1.41c-1.46-1.32-2.75-2.18-4.52-2.96v4.07c0,1.56.03,2.72.06,3.44h-1.75c.06-.76.09-1.99.09-3.44v-5.94c0-1.93-.01-3.12-.07-3.47l1.74.1c.15.01.22.06.22.15s-.06.16-.25.28c-.01.31-.03,1.02-.03,2.94v1.29l.5-.88Z"/>
</svg>