<?xml version="1.0" encoding="UTF-8"?>
<svg id="_レイヤー_1" data-name="レイヤー 1" xmlns="http://www.w3.org/2000/svg" viewBox="0 0 152.52 13.83">
  <defs>
    <style>
      .cls-1 {
        fill: #fff;
      }
    </style>
  </defs>
  <path class="cls-1" d="M3.24,5.15c-.88.03-2.02.07-2.63.12l-.03-1.53c.24.01.41.01.53.01.31,0,1.77-.03,2.1-.04l4.04-.12v-.29c0-1.21-.04-2.09-.12-2.46l1.69.15c.13.01.22.07.22.16s-.07.16-.26.26c-.01.29-.03,1.35-.03,1.71v.44l1.28-.04c.93-.03,1.97-.07,2.63-.12l.03,1.53h-.53c-.44,0-1.78.01-2.1.03l-1.31.04v5.49c0,.46.01.9.01,1.35,0,.74-.22,1.07-.81,1.24-.47.12-.69.15-2.44.16-.06-.69-.12-1.02-.31-1.63.6.06.91.09,1.15.09.81,0,.9-.06.9-.5v-4.87l-.25.37c-.63.94-2.13,2.4-3.66,3.56-.71.53-1.24.87-2.43,1.56-.25-.59-.47-.91-.91-1.38,2.44-1.35,4.25-2.74,5.6-4.28.32-.37.75-.91.88-1.1l-3.25.1Z"/>
  <path class="cls-1" d="M18.56,2.31c.09,0,.19.07.19.13,0,.09-.12.21-.29.28,0,3.63-.12,4.82-.57,6.09-.5,1.35-1.22,2.29-2.46,3.16-.32.24-.57.38-1.24.78-.34-.54-.68-.96-1.03-1.26,1.24-.72,1.74-1.07,2.24-1.6.9-.99,1.32-2.16,1.46-4.05.04-.56.07-1.5.07-2.47,0-.5-.01-.72-.04-1.19l1.68.13ZM20.12,11.58c.13-.46.18-.93.18-2.74v-4.47c0-1.16-.01-1.81-.04-2.21l1.63.1c.16.01.25.06.25.15s-.07.16-.28.29c-.01.31-.01.53-.01,1.66v5.75c1.74-.9,3.16-2.04,4.57-3.69.1.41.28.99.53,1.72-2.32,2.18-3.1,2.75-5.21,3.82-.06.21-.13.29-.24.29-.04,0-.13-.04-.22-.09l-1.16-.6Z"/>
  <path class="cls-1" d="M29.48,1.9c1.38,1.49,1.88,2.19,2.78,3.87l-1.5,1c-.88-1.74-1.4-2.53-2.54-3.91l1.27-.96ZM39.64,2.63c.13.06.19.12.19.21,0,.12-.12.21-.37.28-1.07,3.22-1.63,4.34-3.03,5.99-1.63,1.93-3.06,2.99-6.02,4.41-.24-.6-.46-.99-.91-1.43,1.9-.85,2.75-1.35,3.84-2.22,1.74-1.38,3.06-3.12,3.84-5.03.31-.76.51-1.44.85-2.85l1.6.65Z"/>
  <path class="cls-1" d="M44.76,5.28c-.82,1.28-1.37,1.96-2.44,2.99-.4-.62-.59-.84-1.04-1.21,1.29-1.27,2.06-2.28,2.75-3.66.47-.94.68-1.5.99-2.81l1.59.38c.13.03.21.1.21.19,0,.1-.04.13-.35.24-.38,1.19-.57,1.69-.9,2.4h6.49c.6,0,1.52-.01,2.06-.04v1.57c-.54-.03-1.46-.04-2.06-.04h-1.99c-.19,2.97-.66,4.4-1.93,5.85-.87,1-1.68,1.53-3.94,2.62-.24-.51-.56-.97-.94-1.35,1.49-.66,2.09-.99,2.74-1.49,1.25-.97,1.9-2.04,2.25-3.72.13-.62.21-1.27.24-1.91h-3.71Z"/>
  <path class="cls-1" d="M66.76,5.25c.12.09.15.15.15.22,0,.1-.07.16-.29.24-1.21,4.18-3.5,6.4-8.41,8.12-.31-.75-.49-1.03-.84-1.41,1.78-.6,2.71-1,3.72-1.62,2-1.24,3.1-2.62,3.9-4.9l-2.53.1c-1.85.07-4.99.13-6.49.19l-.06-1.6c1.29.03,1.62.03,3.29.03,1.96,0,2.52,0,3.25-.03l2.94-.09.21-.24,1.16.99ZM65.04,2.65c-.41-.01-1.03-.03-1.46-.03h-4.43c-.44,0-1.06.01-1.47.03v-1.49c.41.01,1.03.03,1.47.03h4.43c.43,0,1.04-.01,1.46-.03v1.49Z"/>
  <path class="cls-1" d="M73.17,4.56c2.22.99,3.35,1.65,5.09,3l-1.07,1.41c-1.46-1.32-2.75-2.18-4.52-2.96v4.07c0,1.56.03,2.72.06,3.44h-1.75c.06-.76.09-1.99.09-3.44v-5.94c0-1.93-.01-3.12-.07-3.47l1.74.1c.15.01.22.06.22.15s-.06.16-.25.28c-.02.31-.03,1.01-.03,2.94v1.29l.5-.88Z"/>
  <path class="cls-1" d="M82.75,12.41h-1.57c.03-.54.04-1.41.04-2.57v-5.07c0-1.04-.01-1.87-.04-2.34.4.01.75.03,1.25.03h7.62c.5,0,.85-.01,1.25-.03-.03.47-.04,1.46-.04,2.34v5.07c0,1.22.01,2.02.04,2.57h-1.57v-.75h-6.97v.75ZM89.72,10.19V3.93h-6.97v6.27h6.97Z"/>
  <path class="cls-1" d="M94.78,4.56c1.18.69,1.54.96,2.79,2.09l-1.13,1.31c-.88-.91-1.53-1.43-2.65-2.15l.99-1.25ZM94.73,11.91c2.29-.82,3.74-1.54,5.28-2.62,2.07-1.44,3.07-2.6,4.72-5.41.51.62.78.88,1.18,1.22-1.22,2.03-1.87,2.88-3.02,4.02-1.22,1.19-2.59,2.16-4.21,2.99-.68.34-1.22.6-2.54,1.21-.06.19-.13.29-.24.29-.07,0-.18-.07-.25-.19l-.93-1.5ZM96.71,1.04c1.19.69,1.56.96,2.81,2.09l-1.15,1.29c-.88-.9-1.52-1.41-2.63-2.13l.97-1.25ZM103.66,1.27c.71.44,1.15.79,1.87,1.49l-.74.79c-.68-.72-1.01-1-1.78-1.52l.65-.76ZM104.82,0c.69.43,1.13.78,1.85,1.47l-.74.81c-.68-.72-1.02-1.01-1.77-1.53l.65-.75Z"/>
  <path class="cls-1" d="M120.09,7.88c-.63-.03-1.68-.04-2.35-.04h-7.47c-.75,0-1.72.01-2.34.04v-1.6c.62.03,1.59.04,2.34.04h7.47c.68,0,1.72-.01,2.35-.04v1.6Z"/>
  <path class="cls-1" d="M129.23,12.16c-.76.49-1.57.72-2.52.72-2.87,0-4.81-2.34-4.81-5.8s1.94-5.8,4.82-5.8,4.81,2.34,4.81,5.8c0,1.57-.4,2.93-1.15,3.96l1.29,1.41-1.16,1.1-1.29-1.4ZM129.19,9.74c.34-.71.53-1.66.53-2.65,0-2.6-1.18-4.3-2.99-4.3s-3,1.68-3,4.3,1.18,4.3,2.99,4.3c.53,0,.99-.12,1.43-.4l-1.53-1.66,1.16-1.1,1.41,1.52Z"/>
  <path class="cls-1" d="M139.96,11.83c-.76.68-1.68,1-2.79,1-2.12,0-3.54-1.28-3.54-3.15,0-1.29.59-2.19,2.24-3.5-.96-1.25-1.21-1.79-1.21-2.57,0-1.38,1.06-2.32,2.62-2.32,1.47,0,2.44.91,2.44,2.27,0,.87-.37,1.62-1.19,2.43-.07.07-.29.26-.65.56l2.16,2.96c.25-.53.37-1.22.37-2.1v-.25h1.34c0,1.79-.19,2.68-.79,3.6l1.41,1.94h-1.77l-.63-.85ZM136.76,7.41c-1.21.97-1.57,1.54-1.57,2.38,0,.99.84,1.69,2,1.69.74,0,1.25-.22,1.94-.82l-2.37-3.25ZM138.31,3.52c0-.59-.43-.99-1.04-.99s-1.1.43-1.1,1.04c0,.47.21.9.85,1.78.97-.72,1.29-1.16,1.29-1.84Z"/>
  <path class="cls-1" d="M148.7,1.47l3.82,11.21h-1.79l-.82-2.62h-4.07l-.84,2.62h-1.78l3.81-11.21h1.68ZM147.86,3.55l-1.57,5.03h3.16l-1.59-5.03Z"/>
</svg>