<svg id="_レイヤー_1" data-name="レイヤー 1" xmlns="http://www.w3.org/2000/svg" xmlns:xlink="http://www.w3.org/1999/xlink" viewBox="0 0 749.82 73.46">
  <defs>
    <style>
      .cls-1 {
        fill: none;
      }

      .cls-1, .cls-2, .cls-3 {
        stroke-width: 0px;
      }

      .cls-2 {
        fill: url(#_新規パターンスウォッチ_24);
        opacity: .7;
      }

      .cls-3 {
        fill: #88abda;
      }
    </style>
    <pattern id="_新規パターンスウォッチ_24" data-name="新規パターンスウォッチ 24" x="0" y="0" width="14.4" height="14.4" patternTransform="translate(-3982.2 2615.78) scale(.5 .53)" patternUnits="userSpaceOnUse" viewBox="0 0 14.4 14.4">
      <g>
        <rect class="cls-1" x="0" width="14.4" height="14.4"/>
        <g>
          <path class="cls-3" d="M3.6,11.88c.6,0,1.08-.48,1.08-1.08s-.48-1.08-1.08-1.08-1.08.48-1.08,1.08.48,1.08,1.08,1.08Z"/>
          <path class="cls-3" d="M10.8,11.88c.6,0,1.08-.48,1.08-1.08s-.48-1.08-1.08-1.08-1.08.48-1.08,1.08.48,1.08,1.08,1.08Z"/>
          <path class="cls-3" d="M3.6,4.68c.6,0,1.08-.48,1.08-1.08s-.48-1.08-1.08-1.08-1.08.48-1.08,1.08.48,1.08,1.08,1.08Z"/>
          <path class="cls-3" d="M10.8,4.68c.6,0,1.08-.48,1.08-1.08s-.48-1.08-1.08-1.08-1.08.48-1.08,1.08.48,1.08,1.08,1.08Z"/>
        </g>
      </g>
    </pattern>
  </defs>
  <rect class="cls-2" y="0" width="749.82" height="73.46"/>
</svg>